/* XPM */
static char *result[] = {
/* columns rows colors chars-per-pixel */
"64 64 195 2 ",
"   c #000400",
".  c #0C0402",
"X  c #060A06",
"o  c #0E0E01",
"O  c #0B0E0B",
"+  c #130404",
"@  c #0F120E",
"#  c #151302",
"$  c #1E1903",
"%  c #151308",
"&  c #141611",
"*  c #171A14",
"=  c #250308",
"-  c #2C030A",
";  c #33030B",
":  c #3C030D",
">  c #251805",
",  c #1F231F",
"<  c #282103",
"1  c #3B2E05",
"2  c #3D3005",
"3  c #231F20",
"4  c #2A1E21",
"5  c #331C21",
"6  c #3C1B22",
"7  c #252123",
"8  c #292526",
"9  c #2B2728",
"0  c #2E2A2B",
"q  c #332725",
"w  c #302D2E",
"e  c #2F322F",
"r  c #353333",
"t  c #393536",
"y  c #3E3A3B",
"u  c #44030E",
"i  c #4E0210",
"p  c #5B0213",
"a  c #46181F",
"s  c #620215",
"d  c #6C0217",
"f  c #720218",
"g  c #7C021A",
"h  c #493507",
"j  c #52370A",
"k  c #441A23",
"l  c #4D1825",
"z  c #541625",
"x  c #5A1726",
"c  c #631425",
"v  c #6B1225",
"b  c #691B2A",
"n  c #771027",
"m  c #791027",
"M  c #7B122D",
"N  c #40392E",
"B  c #443B36",
"V  c #413D3E",
"C  c #67232F",
"Z  c #3F413E",
"A  c #5A4507",
"S  c #6B460D",
"D  c #644C08",
"F  c #74580A",
"G  c #4B413B",
"H  c #423E40",
"J  c #444242",
"K  c #494647",
"L  c #484847",
"P  c #4C4A4A",
"I  c #584D47",
"U  c #575656",
"Y  c #5C5B5B",
"T  c #675A4B",
"R  c #615E5F",
"E  c #756655",
"W  c #646263",
"Q  c #676766",
"!  c #6B6B6A",
"~  c #6F716F",
"^  c #726F70",
"/  c #767575",
"(  c #7B7A7A",
")  c #83011B",
"_  c #8C011E",
"`  c #8A0B1B",
"'  c #95011F",
"]  c #AB051C",
"[  c #B4031A",
"{  c #BF0119",
"}  c #880E29",
"|  c #9B0121",
" . c #920B24",
".. c #9A0B2A",
"X. c #920F32",
"o. c #A60123",
"O. c #AB0124",
"+. c #AA082B",
"@. c #B20226",
"#. c #BA0324",
"$. c #B5062B",
"%. c #BC012A",
"&. c #A90C36",
"*. c #B50A39",
"=. c #C20019",
"-. c #C50123",
";. c #CC0023",
":. c #C4012B",
">. c #CC002C",
",. c #D00026",
"<. c #D6002F",
"1. c #D8002F",
"2. c #C60636",
"3. c #D50232",
"4. c #DB0031",
"5. c #DA0837",
"6. c #CF193C",
"7. c #D81B3F",
"8. c #E40036",
"9. c #E9013C",
"0. c #F1003E",
"q. c #C52532",
"w. c #8C5B11",
"e. c #87650B",
"r. c #A87D0E",
"t. c #B57417",
"y. c #863C43",
"u. c #AC3C4A",
"i. c #DE0440",
"p. c #EC0243",
"a. c #F40041",
"s. c #FC0045",
"d. c #D82746",
"f. c #A4474F",
"g. c #B7555B",
"h. c #8F6E61",
"j. c #807E7F",
"k. c #B26664",
"l. c #D54959",
"z. c #C46969",
"x. c #D4666A",
"c. c #C5746F",
"v. c #D37070",
"b. c #B3850F",
"n. c #C78A15",
"m. c #C59210",
"M. c #D39C12",
"N. c #E2901C",
"B. c #F59C1F",
"V. c #E3A813",
"C. c #ECAE14",
"Z. c #EEB014",
"A. c #F6B615",
"S. c #F8B715",
"D. c #A28D77",
"F. c #AF977F",
"G. c #DD807D",
"H. c #858383",
"J. c #898787",
"K. c #8C8B8B",
"L. c #929191",
"P. c #999898",
"I. c #B59B83",
"U. c #BDA389",
"Y. c #A5A4A4",
"T. c #A8A7A7",
"R. c #ACABAB",
"E. c #AFB0AF",
"W. c #B7B7B6",
"Q. c #BCBBBB",
"!. c #D49485",
"~. c #C3A58C",
"^. c #D1A68F",
"/. c #CCAA91",
"(. c #D1AC93",
"). c #CFB296",
"_. c #D1B397",
"`. c #D6B59A",
"'. c #DCBEA2",
"]. c #DEC0A4",
"[. c #E1C3A7",
"{. c #C4C3C4",
"}. c #C7C8C7",
"|. c #CCCCCC",
" X c #D0CFCF",
".X c #D0CFD0",
"XX c #D3D3D3",
"oX c #D8D7D7",
"OX c #DEDDDD",
"+X c #CAEAF4",
"@X c #E3E3E3",
"#X c #EAEAEA",
"$X c #F0EFEF",
"%X c #F3F3F3",
"&X c #FFFFFF",
/* pixels */
"+X+X+X+X+X+X+X+X+X+X+X+X+X+X+X+X+X+X+XP.0 3 3 8 K Y.+X+X+X+X+X+X+X+X+X+X+X+X+X+X+X+X+X+X+X+X+X+X+X+X+X+X+X+X+X+X+X+X+X+X+X+X+X+X",
"+X+X+X+X+X+X+X+X+X+X+X+X+X+X+X+X+X+XP 4 ..3.5.2.M 4 3 r Q.+X+X+X+X+X+X+X+X+X+X+X+X+X+X+X+X+X+X+X+X+X+X+X+X+X+X+X+X+X+X+X+X+X+X+X",
"+X+X+X+X+X+X+X+X+X+X+X+X+X+X+X+X+XXX3 a.s.a.s.s.s.s.a.} 3 8 {.+X+X+X+X+X+X+X+X+X+X+X+X+X+X+X+X+X+X+X+X+X+X+X+X+X+X+X+X+X+X+X+X+X",
"+X+X+X+X+X+X+X+X+X+X+X+X+X+X+X+X+XJ.x 1.<.<.<.4.4.a.s.s.s.&.3 P +X+X+X+X+X+X+X+X+X+X+X+X+X+X+X+X+X+X+X+X+X+X+X+X+X+X+X+X+X+X+X+X",
"+X+X+X+X+X+X+X+X+X+X+X+X+X+X+X+X+XL.6 <.1.1.1.1.4.4.4.a.s.s.s.x 7 OX+X+X+X+X+X+X+X+X+X+X+X+X+X+X+X+X+X+X+X+X+X+X+X+X+X+X+X+X+X+X",
"+X+X+X+X+X+X+X+X+X+X+X+X+X+X+X+X+X@X3 <.1.1.1.1.1.3.1.1.8.s.s.s.*.3 }.+X+X+X+X+X+X+X+X+X+X+X+X+X+X+X+X+X+X+X+X+X+X+X+X+X+X+X+X+X",
"+X+X+X+X+X+X+X+X+X+X+X+X+X+X+X@X|.}.0 k 1.1.3.1.1.1.1.<.1.4.s.s.s.i.3 |.+X+X+X+X+X+X+X+X+X+X+X+X+X+X+X+X+X+X+X+X+X+X+X+X+X+X+X+X",
"+X+X+X+X+X+X+X+X+X+X+X}.K 3 3 3 4 4 3 7 6 :.<.<.1.1.1.1.1.1.1.a.s.s.i.3 #X+X+X+X+X+X+X+X+X+X+X+X+X+X+X+X+X+X+X+X+X+X+X+X+X+X+X+X",
"+X+X+X+X+X+X+X+X+X@Xw 3 v %.3.4.1.<.1.1.<.c 6 $.1.1.<.<.1.1.<.1.s.s.s.*.9 +X+X+X+X+X+X+X+X+X+X+X+X+X+X+X+X+X+X+X+X+X+X+X+X+X+X+X",
"+X+X+X+X+X+X+X+XOX7 v 1.4.<.1.<.1.1.1.1.1.1.<.$.x m :.<.1.1.1.1.3.s.s.s.l / +X+X+X+X+X+X+X+X+X+X+X+X+X+X+X+X+X+X+X+X+X+X+X+X+X+X",
"+X+X+X+X+X+X+X+X8 m 1.1.1.1.1.1.1.1.1.<.1.1.<.1.1.1.<.<.<.<.<.1.<.4.s.s.p.3 W #X+X+X+X+X+X+X+X+X+X+X+X+X+X+X+X+X+X+X+X+X+X+X+X+X",
"+X+X+X+X+X+X+X#X3 <.1.1.1.1.1.1.1.1.1.<.1.<.1.1.1.1.1.1.<.<.1.<.<.4.8.s.s.s.M 3 w W.+X+X+X+X+X+X+X+X+X+X+X+X+X+X+X+X+X+X+X+X+X+X",
"+X+X+X+X+X+X+X#X, <.1.4.1.<.<.<.3.1.1.4.<.1.1.1.1.1.1.1.1.1.1.<.1.1.1.1.1.9.s.s.*.4 8 R.+X+X+X+X+X+X+X+X+X+X+X+X+X+X+X+X+X+X+X+X",
"+X+X+X+X+X+X+X+XU 3 c $.<.<.<.<.:...m $.<.1.<.1.1.1.1.1.1.1.<.4.1.1.1.1.1.1.1.8.s.s.*.3 0 .X+X+X+X+X+X+X+X+X+X+X+X+X+X+X+X+X+X+X",
"+X+X+X+X+X+X+X+X+X.XP 7 3 3 3 n :.<.1.1.1.1.1.1.1.1.1.1.1.1.1.1.1.1.1.1.1.<.1.1.3.8.s.s.X.3 P +X+X+X+X+X+X+X+X+X+X+X+X+X+X+X+X+X",
"+X+X+X+X+X+X+X+X+X+X+X+X+Xw x <.1.1.1.1.1.<.1.1.1.1.1.1.1.<.1.<.1.1.1.1.1.1.1.1.3.4.1.0.s.p.k 7 W.+X+X+X+X+X+X+X+X+X+X+X+X+X+X+X",
"+X+X+X+X+X+X+X+X+X+X+X+XL m <.1.1.1.1.1.1.1.<.1.1.1.1.1.<.1.1.1.1.1.1.<.1.1.1.1.1.1.1.<.4.s.s.&.7 W +X+X+X+X+X+X+X+X+X+X+X+X+X+X",
"+X+X+X+X+X+X+X+X+X+X+X( k 3.<.1.1.1.1.1.1.1.1.1.1.1.1.1.1.1.1.1.1.1.1.4.1.1.<.1.1.1.1.1.<.<.0.s.9.4 r +X+X+X+X+X+X+X+X+X+X+X+X+X",
"+X+X+X+X+X+X+X+X+X+X].3 { 3.1.1.1.1.1.1.1.1.1.1.1.1.1.1.1.1.1.1.1.1.1.1.1.1.1.1.1.1.1.1.<.1.1.8.s.s.k 8 +X+X+X+X+X+X+X+X+X+X+X+X",
"+X+X+X+X+X+X+X+X+X+X, ` ;.4.1.1.<.1.1.1.1.1.1.1.1.1.1.1.1.1.1.1.1.1.1.<.1.1.1.1.1.1.1.1.1.<.1.1.4.s.s.x 8 +X+X+X+X+X+X+X+X+X+X+X",
"+X+X+X+X+X+X+X+X+XV a =.<.1.1.1.1.<.<.<.1.<.4.<.1.1.1.1.1.1.1.1.1.1.1.1.<.1.1.1.1.1.<.1.<.<.1.1.<.1.s.s.c 8 +X+X+X+X+X+X+X+X+X+X",
"+X+X+X+X+X+X+X+XY.3 { ;.1.1.1.1.1.i . <.1.1.<.<.1.1.<.1.1.<.1.1.1.1.1.<.1.<.1.1.1.1.<.<.4.<.1.1.1.1.1.s.a.z t +X+X+X+X+X+X+X+X+X",
"+X+X+X+X+X+X+X+X3  .=.<.1.1.1.1.s     . >.1.1.1.<.<.1.<.1.<.1.1.1.1.1.<.<.1.1.<.1.1.1.<.1.1.1.1.1.1.1.1.s.0.6 ! +X+X+X+X+X+X+X+X",
"+X+X+X+X+X+X+XU 6 =.=.1.1.1.1._           o.<.1.4.<.1.1.1.1.1.1.1.1.1.1.1.1.1.1.1.1.<.1.1.1.1.1.u - 1.1.4.s.4.7 |.+X+X+X+X+X+X+X",
"+X+X+X+X+X+X@X7 #.=.,.<.1.1.:.              p 4.1.1.1.1.1.1.1.1.<.1.1.1.1.1.1.1.1.1.<.<.4.<.:..     %.1.1.9.s.+.8 +X+X+X+X+X+X+X",
"+X+X+X+X+X+XV z =.=.<.1.1.1..                 + >.1.1.1.1.1.1.1.1.1.1.1.1.1.1.1.1.1.1.1.<._         - 1.1.1.0.0.l H.+X+X+X+X+X+X",
"+X+X+X+X+XOX3 -.=.=.<.1.1.f                       ) 1.<.1.1.1.1.1.1.1.1.1.1.<.4.1.1.1.1.;             <.1.1.1.s.3.3 +X+X+X+X+X+X",
"+X+X+X+X+XK z =.=.,.1.1.1.                          + :.1.1.1.1.1.1.1.1.1.1.1.<.1.1.@.                g 1.1.1.8.s.c j.+X+X+X+X+X",
"+X+X+X+X+X3 :.=.=.<.1.1.>.                              u :.1.1.1.1.1.<.1.1.1.1.<.i                   + 1.1.1.1.s.<.3 +X+X+X+X+X",
"+X+X+X+XJ.5 =.=.=.<.1.1.1.1._ +                             ) 1.1.1.1.<.<.<.1.@..                       >.1.1.1.4.0.k {.+X+X+X+X",
"+X+X+X+X9 ..=.=.=.1.1.1.1.1.1.1.:.u                           + %.1.<.<.<.<.:                       ; %.1.1.<.<.1.s.+.K +X+X+X+X",
"+X+X+X+X3 ;.=.=.,.1.1.1.1.1.1.1.<.<.f J *                         - >.>.p                       d <.<.<.1.1.1.1.1.8.8.3 +X+X+X+X",
"+X+X+XP.6 =.=.=.<.1.1.1.1.1.<.<.>.' @ &X&X%XJ.@                                         O   g <.<.<.<.<.<.1.1.1.1.1.0.5 OX+X+X+X",
"+X+X+XJ m =.=.=.<.1.1.1.1.<.<.>.o.+ XX&X&X&X&X&X%X( O                             X ! #X&XQ + o.<.<.<.<.1.1.1.1.1.1.0.c J.+X+X+X",
"+X+X+X7 $.=.=.=.<.1.1.1.1.1.<.o.' @ &X&X&X&X&X&X&X&X&X#X! X                 X Y @X&X&X&X&X&XO d O.<.3.1.<.1.1.1.1.1.8...J +X+X+X",
"+X+X+X7 ;.=.=.=.<.1.1.1.1.1.O.o.i ~ &X&X&X&X&XL.7 7 J.&X&X&XOXY         Z 9 ! &X&X&X&X&X&X&XJ.. o.%.1.1.1.1.1.<.1.<.<.2.9 +X+X+X",
"+X+X+X3 =.=.=.=.<.1.1.1.<.>.O.o.- T.&X&X&X&XOX3 3 3 3 |.&X&X&X&X&X, E.&Xt 3 3 J.&X&X&X&X&X&XXX  o.o.<.<.<.<.1.1.<.1.4.5.3 +X+X+X",
"+X+X+X3 =.=.=.;.1.1.1.1.<.#.o.o.: H.&X&X&X&X|.3 3 3 7 W.&X&X&X&X&X@ Y.&Xt 3 3 J.&X&X&X&X&X&X X  | o.>.1.1.1.1.1.1.1.4.8.3 +X+X+X",
"+X+X+X4 =.=.=.=.1.1.1.1.1.O.o.o.) @ &X&X&X&X&XJ 3 3 y &X&X&X&X&X&XX Q &X$XK W &X&X&X&X&X&X&XW   o.o.@.1.1.1.1.1.1.1.1.4.3 +X+X+X",
"+X+X+X4 =.=.=.;.1.1.1.1.1.O.o.o.o.. ! &X&X&X&X&X%X$X&X&X&X&X&X&XL   O {.&X&X&X&X&X&X&X&X&XXX  p o.o.O.1.1.1.1.1.1.1.1.<.3 +X+X+X",
"+X+X+X4 =.=.{ =.1.1.1.1.1.@.o.o.o.|   r %X&X&X&X&X&X&X&X&X&XY.          @ / }.#X&X&X%X|.L   ; o.o.o.O.<.1.1.1.1.1.1.4.>.7 +X+X+X",
"+X+X+X3 =.=.=.;.1.1.1.1.1.>.o.o.o.o.| .   e W.%X&X&X%X|.U   < r.Z.S.S.M.$               . g o.o.o.o.%.<.1.1.1.1.1.1.4.$.3 +X+X+X",
"+X+X+X3 =.=.=.=.1.1.1.1.1.1.O.o.o.o.o.o.d .             1 C.S.S.S.S.S.S.S.b.  - ) g _ o.o.o.o.o.o.o.<.<.1.1.1.1.1.1.1. .3 +X+X+X",
"+X+X+X3 =.=.=.=.1.1.1.1.1.1.<.o.o.o.o.o.o.o.o.) i =   b.S.S.S.S.S.S.S.S.S.S.A.< . o.o.o.o.o.o.o.o.@.1.1.1.1.1.1.1.1.1.z 3 +X+X+X",
"+X+X+X3 [ =.=.=.1.1.1.1.1.1.<.<.o.o.o.o.o.O.o.o.o.+ M.S.S.S.S.S.S.S.S.S.S.S.S.S.e.+ o.o.o.o.o.o.O.1.1.1.1.1.1.1.<.<.4.4 3 +X+X+X",
"+X+X+Xr ` =.=.=.<.1.1.1.1.1.1.1.<.:.o.o.o.o.o.o.: r.S.S.S.S.S.S.S.S.S.S.S.S.S.S.C.  | O.o.o.O.:.1.1.1.1.1.1.1.1.<.<.<.3 0 +X+X+X",
"+X+X+X! a =.=.=.<.1.1.1.1.1.1.1.1.1.1.<.%.@.O.O.> S.S.S.S.S.S.S.S.S.S.S.S.S.S.S.m.  6.3.1.3.1.1.1.1.1.1.1.1.1.1.1.1.} 3 ! +X+X+X",
"+X+X+X|.4 { =.=.=.1.1.1.1.1.1.1.1.1.1.1.1.1.1.>.% V.S.S.S.S.S.S.S.S.S.S.S.S.S.S.D   _._.(.x.5.1.1.1.1.1.1.1.1.1.1.1.4 7 .X+X+X+X",
"+X+X+X+X3 [ =.=.=.<.1.1.1.1.1.1.1.1.1.1.1.1.1.1.> j b.S.A.A.S.S.S.S.S.S.S.S.S.S.o N _._._._._.!.5.1.1.1.1.1.1.1.1.$.3 3 +X+X+X+X",
"+X+X+X+XV v =.=.=.,.1.1.1.1.1.1.1.1.1.1.1.1.1.1.| t.w.F A.A.S.S.S.A.S.S.S.S.S.C.  I._._._._._._._.l.1.1.1.1.1.1.1.6 3 Q +X+X+X+X",
"+X+X+X+X{.4 =.=.=.=.<.1.1.1.1.1.1.1.1.1.1.1.1.7.`.% B.t.h A.S.S.S.S.S.S.S.S.S.A @ _._._._._._._._._.v.1.1.1.1.1.+.3 3 +X+X+X+X+X",
"+X+X+X+X+X8  .=.=.=.=.4.1.1.1.1.1.1.1.1.1.1.G.[.[.D.S B.n.$ S.S.S.S.S.S.S.S.A.  D._._._._._._._._._._.x.1.1.1.<., 3 Y +X+X+X+X+X",
"+X+X+X+X+XT.3 =.=.=.=.1.1.1.1.1.1.1.1.1.i.'.[.[.[.[.* N.B.t.$ S.S.S.S.S.S.S.A & _._._._._._._._._._._._.d.<.1.6 3 7 +X+X+X+X+X+X",
"+X+X+X+X+X+Xw v =.=.=.=.1.1.1.1.1.1.1.d.[.[.[.[.[.[.I.# B.B.S 2 S.S.S.S.S.b.  U._._._._._._._._._._._._.(.<.c 3 3 Q.+X+X+X+X+X+X",
"+X+X+X+X+X+XOX7 #.=.=.=.=.4.1.1.3.1.d.[.[.[.[.[.[.'.`.T S N.h   e.S.S.S.Z.  h._._._._._._._._._._._._._._.b 4 3 ( +X+X+X+X+X+X+X",
"+X+X+X+X+X+X+XL.7 -.=.=.=.=.1.1.3.d.[.[.[.[.[.[.[.`._._.q N U.~.  V.S.A.# E )._._._._._._._._._._._._._.I 3 3 W +X+X+X+X+X+X+X+X",
"+X+X+X+X+X+X+X+XW 3 -.=.=.=.=.<.3.'.[.[.[.[.[.'.`._._._._._._._.F.# A.$ E _._._._._._._._._._._._._.).B 3 7 ^ +X+X+X+X+X+X+X+X+X",
"+X+X+X+X+X+X+X+X+XY 3 #.=.=.=.=.!.'.'.'.'.'._._._._._._._._._._._.I # E ).)._._._._._._._._._._._.F.7 3 7 Y.+X+X+X+X+X+X+X+X+X+X",
"+X+X+X+X+X+X+X+X+X+XH.3 } =.=.q._._._._._._._._._._._._._._._._._.).E _._._._._._._._._._.(._./.G 3 3 r +X+X+X+X+X+X+X+X+X+X+X+X",
"+X+X+X+X+X+X+X+X+X+X+X|.3 5 ] ^._._._.)._._._._._._._._._._._._._._.)._._._._._._._._._._.~.K 4 3 7 R.+X+X+X+X+X+X+X+X+X+X+X+X+X",
"+X+X+X+X+X+X+X+X+X+X+X+X+X( 3 q k./._.'._._.`.(._._._._._._._._._._._._._._._._._._.(.h.q 3 3 0 Y.+X+X+X+X+X+X+X+X+X+X+X+X+X+X+X",
"+X+X+X+X+X+X+X+X+X+X+X+X+X+X+XD.3 3 l f.!.(._.(._._._._._._._._._._._.'._._.^.c.y.6 7 3 7 R OX+X+X+X+X+X+X+X+X+X+X+X+X+X+X+X+X+X",
"+X+X+X+X+X+X+X+X+X+X+X+X+X+X+X+X+XoXW 4 3 3 l v y.u.g.z.z.c.c.k.k.u.C C 6 , 3 3 7 H K.#X+X+X+X+X+X+X+X+X+X+X+X+X+X+X+X+X+X+X+X+X",
"+X+X+X+X+X+X+X+X+X+X+X+X+X+X+X+X+X+X+X+X+X|.K.U r 4 3 3 3 3 3 7 7 0 H R L.].#X+X+X+X+X+X+X+X+X+X+X+X+X+X+X+X+X+X+X+X+X+X+X+X+X+X"
};
