/* XPM */
static char *result[] = {
/* columns rows colors chars-per-pixel */
"64 64 192 2 ",
"   c #000400",
".  c #0C0402",
"X  c #060A06",
"o  c #0B0E0B",
"O  c #0E0E01",
"+  c #130404",
"@  c #0F120E",
"#  c #151302",
"$  c #1E1903",
"%  c #151308",
"&  c #141611",
"*  c #171A14",
"=  c #2C030A",
"-  c #250308",
";  c #33030B",
":  c #3C030D",
">  c #251805",
",  c #1F231F",
"<  c #282103",
"1  c #3D3005",
"2  c #3B2E05",
"3  c #231F20",
"4  c #2A1E21",
"5  c #331C21",
"6  c #3C1B22",
"7  c #252123",
"8  c #292526",
"9  c #2B2728",
"0  c #2D2A2B",
"q  c #312D2E",
"w  c #332725",
"e  c #2F322F",
"r  c #332F30",
"t  c #353333",
"y  c #393537",
"u  c #3E3A3B",
"i  c #3B3638",
"p  c #3B352B",
"a  c #44030E",
"s  c #4E0210",
"d  c #5B0213",
"f  c #46181F",
"g  c #6C0217",
"h  c #620215",
"j  c #720218",
"k  c #7C021A",
"l  c #493507",
"z  c #52370A",
"x  c #441A23",
"c  c #4D1825",
"v  c #541625",
"b  c #5C1524",
"n  c #571B29",
"m  c #631425",
"M  c #6B1225",
"N  c #691B2A",
"B  c #771027",
"V  c #791027",
"C  c #7B122D",
"Z  c #40392E",
"A  c #413D3E",
"S  c #443B36",
"D  c #6C2330",
"F  c #62232E",
"G  c #3F413E",
"H  c #5A4507",
"J  c #6B460D",
"K  c #644C08",
"L  c #74580A",
"P  c #50433E",
"I  c #4B413B",
"U  c #433F41",
"Y  c #444242",
"T  c #484847",
"R  c #5C4D43",
"E  c #585A58",
"W  c #675A4B",
"Q  c #736453",
"!  c #7B6B59",
"~  c #6A6B69",
"^  c #646463",
"/  c #6F716F",
"(  c #787A78",
")  c #83011B",
"_  c #8C011E",
"`  c #8A0B1B",
"'  c #95011F",
"]  c #BF0119",
"[  c #B4031A",
"{  c #AB051C",
"}  c #880E29",
"|  c #9B0121",
" . c #9A0B2A",
".. c #920B24",
"X. c #8A1031",
"o. c #9A0D33",
"O. c #A60123",
"+. c #AB0124",
"@. c #AA082B",
"#. c #B20226",
"$. c #BA0324",
"%. c #B5062B",
"&. c #BC012A",
"*. c #A90C36",
"=. c #B50A39",
"-. c #8A2D3B",
";. c #C20019",
":. c #C50123",
">. c #CC0023",
",. c #C4012B",
"<. c #CC002C",
"1. c #D00026",
"2. c #D6002F",
"3. c #D8002F",
"4. c #C60636",
"5. c #D50232",
"6. c #DB0031",
"7. c #DA0837",
"8. c #D81B3F",
"9. c #CF193C",
"0. c #E40036",
"q. c #E9013C",
"w. c #F1003E",
"e. c #C52532",
"r. c #8C5B11",
"t. c #87650B",
"y. c #A87D0E",
"u. c #B57417",
"i. c #863C43",
"p. c #AC3C4A",
"a. c #DE0440",
"s. c #F40041",
"d. c #FC0045",
"f. c #EC0243",
"g. c #D82746",
"h. c #B7555B",
"j. c #A4474F",
"k. c #8F6E61",
"l. c #B26664",
"z. c #D54959",
"x. c #C46969",
"c. c #D4666A",
"v. c #D37070",
"b. c #C5746F",
"n. c #B3850F",
"m. c #C78A15",
"M. c #D39C12",
"N. c #C59210",
"B. c #E08F1C",
"V. c #F59C1F",
"C. c #E2901C",
"Z. c #ECAE14",
"A. c #E3A813",
"S. c #EEB014",
"D. c #F6B615",
"F. c #F8B715",
"G. c #A28D77",
"H. c #AF977F",
"J. c #DD807D",
"K. c #CF887D",
"L. c #858483",
"P. c #8A8A89",
"I. c #939191",
"U. c #B59B83",
"Y. c #BDA389",
"T. c #A4A5A4",
"R. c #AFB0AF",
"E. c #B7B7B6",
"W. c #D28F82",
"Q. c #D59888",
"!. c #C3A58C",
"~. c #D1A68F",
"^. c #CCAA91",
"/. c #D1AC93",
"(. c #D1B397",
"). c #D6B59A",
"_. c #CFB296",
"`. c #DCBEA2",
"'. c #E0B9A0",
"]. c #DEC0A4",
"[. c #E1C3A7",
"{. c #CCCBCC",
"}. c #C5C5C5",
"|. c #D0CFCF",
" X c #D3D4D3",
".X c #DEDDDD",
"XX c #EBEBEB",
"oX c #E1E2E1",
"OX c #F0EFEF",
"+X c #F3F3F3",
"@X c #FFFFFF",
"#X c NONE",
/* pixels */
"#X#X#X#X#X#X#X#X#X#X#X#X#X#X#X#X#X#X#XY 8 3 3 7 q T #X#X#X#X#X#X#X#X#X#X#X#X#X#X#X#X#X#X#X#X#X#X#X#X#X#X#X#X#X#X#X#X#X#X#X#X#X#X",
"#X#X#X#X#X#X#X#X#X#X#X#X#X#X#X#X#X#Xq 4  .5.7.4.C 5 3 9 #X#X#X#X#X#X#X#X#X#X#X#X#X#X#X#X#X#X#X#X#X#X#X#X#X#X#X#X#X#X#X#X#X#X#X#X",
"#X#X#X#X#X#X#X#X#X#X#X#X#X#X#X#X#X#X3 s.d.s.d.d.d.d.s.X.3 8 #X#X#X#X#X#X#X#X#X#X#X#X#X#X#X#X#X#X#X#X#X#X#X#X#X#X#X#X#X#X#X#X#X#X",
"#X#X#X#X#X#X#X#X#X#X#X#X#X#X#X#X#Xy v 3.2.2.2.2.6.s.d.d.d.o.3 t #X#X#X#X#X#X#X#X#X#X#X#X#X#X#X#X#X#X#X#X#X#X#X#X#X#X#X#X#X#X#X#X",
"#X#X#X#X#X#X#X#X#X#X#X#X#X#X#X#X#Xu 6 2.3.3.3.3.6.2.6.s.d.d.d.b 7 #X#X#X#X#X#X#X#X#X#X#X#X#X#X#X#X#X#X#X#X#X#X#X#X#X#X#X#X#X#X#X",
"#X#X#X#X#X#X#X#X#X#X#X#X#X#X#X#X#X#X7 2.3.3.3.3.3.2.3.3.0.d.d.d.=.3 #X#X#X#X#X#X#X#X#X#X#X#X#X#X#X#X#X#X#X#X#X#X#X#X#X#X#X#X#X#X",
"#X#X#X#X#X#X#X#X#X#X#X#X#X#X#X#X#X#X9 x 3.3.3.3.3.3.3.2.6.6.d.d.d.a.3 #X#X#X#X#X#X#X#X#X#X#X#X#X#X#X#X#X#X#X#X#X#X#X#X#X#X#X#X#X",
"#X#X#X#X#X#X#X#X#X#X#X#X0 7 3 3 4 4 3 7 6 ,.3.3.3.3.3.3.3.3.2.s.d.d.a.3 #X#X#X#X#X#X#X#X#X#X#X#X#X#X#X#X#X#X#X#X#X#X#X#X#X#X#X#X",
"#X#X#X#X#X#X#X#X#X#X9 3 M ,.5.2.3.2.3.3.2.m 6 %.3.3.2.2.3.3.2.3.d.d.d.=.9 #X#X#X#X#X#X#X#X#X#X#X#X#X#X#X#X#X#X#X#X#X#X#X#X#X#X#X",
"#X#X#X#X#X#X#X#X#X3 M 2.5.3.3.2.3.3.3.3.3.3.3.@.b V ,.2.3.3.3.3.3.d.d.d.c u #X#X#X#X#X#X#X#X#X#X#X#X#X#X#X#X#X#X#X#X#X#X#X#X#X#X",
"#X#X#X#X#X#X#X#X7 V 3.3.3.3.3.3.3.3.3.3.3.3.3.3.6.2.2.2.2.2.2.3.2.6.d.d.f.3 y #X#X#X#X#X#X#X#X#X#X#X#X#X#X#X#X#X#X#X#X#X#X#X#X#X",
"#X#X#X#X#X#X#X#X7 2.3.3.3.3.3.3.3.3.3.3.3.2.3.3.3.3.3.3.2.2.3.2.2.6.0.d.d.s.C 3 9 #X#X#X#X#X#X#X#X#X#X#X#X#X#X#X#X#X#X#X#X#X#X#X",
"#X#X#X#X#X#X#X#X, 2.3.5.3.2.2.2.5.3.3.3.2.3.3.3.3.3.3.3.3.3.3.2.3.3.3.3.6.q.d.d.*.4 7 #X#X#X#X#X#X#X#X#X#X#X#X#X#X#X#X#X#X#X#X#X",
"#X#X#X#X#X#X#X#Xr 3 m %.2.2.2.2.,. .V %.2.3.2.3.3.2.3.3.3.3.2.6.3.3.3.3.3.3.3.0.d.d.=.3 8 #X#X#X#X#X#X#X#X#X#X#X#X#X#X#X#X#X#X#X",
"#X#X#X#X#X#X#X#X#X#Xq 7 7 3 3 B ,.5.3.3.3.3.3.3.3.3.3.3.3.3.3.3.3.3.3.3.2.2.3.3.6.0.d.d.X.3 r #X#X#X#X#X#X#X#X#X#X#X#X#X#X#X#X#X",
"#X#X#X#X#X#X#X#X#X#X#X#X#X8 b 2.3.3.3.3.3.2.2.3.3.3.3.3.3.2.3.2.3.3.3.3.3.3.3.3.6.3.6.w.d.s.x 7 #X#X#X#X#X#X#X#X#X#X#X#X#X#X#X#X",
"#X#X#X#X#X#X#X#X#X#X#X#Xr ` 6.2.2.3.3.3.3.3.2.3.3.3.3.3.2.3.3.3.3.3.3.2.3.3.3.3.3.3.3.2.6.d.d.*.3 i #X#X#X#X#X#X#X#X#X#X#X#X#X#X",
"#X#X#X#X#X#X#X#X#X#X#XA f 2.2.3.3.2.3.3.3.3.3.3.3.3.3.3.3.3.3.3.3.3.3.6.3.3.2.3.3.3.3.3.2.2.w.d.q.4 0 #X#X#X#X#X#X#X#X#X#X#X#X#X",
"#X#X#X#X#X#X#X#X#X#X#X3 ] 2.2.3.3.3.3.3.3.2.3.3.3.3.3.3.3.3.3.3.3.3.3.3.3.3.3.3.3.3.3.3.2.3.3.0.d.d.x 7 #X#X#X#X#X#X#X#X#X#X#X#X",
"#X#X#X#X#X#X#X#X#X#X3 ` >.6.3.3.3.3.3.3.3.6.2.3.3.3.3.3.3.3.3.3.3.3.3.2.3.3.3.3.3.3.3.3.3.2.3.3.6.d.d.b 7 #X#X#X#X#X#X#X#X#X#X#X",
"#X#X#X#X#X#X#X#X#Xq f ;.2.3.3.3.6.2.2.2.3.2.2.3.3.3.3.3.3.3.3.3.3.3.3.3.2.3.3.3.3.3.2.3.2.2.3.3.2.6.d.d.m 7 #X#X#X#X#X#X#X#X#X#X",
"#X#X#X#X#X#X#X#X#X3 ] >.3.3.3.3.2.s . 2.3.3.3.3.3.3.2.3.3.2.3.3.3.3.3.2.3.2.3.3.3.3.2.2.6.2.3.3.2.2.3.d.s.v 9 #X#X#X#X#X#X#X#X#X",
"#X#X#X#X#X#X#X#X3 ..;.2.3.3.3.3.h     . <.2.2.3.2.2.3.2.3.2.3.3.3.3.3.2.2.3.3.2.3.3.3.2.3.3.3.3.3.3.3.3.d.w.6 u #X#X#X#X#X#X#X#X",
"#X#X#X#X#X#X#Xt 6 ;.;.3.3.3.3._           O.3.3.6.2.3.3.3.3.3.3.3.3.3.3.3.3.3.3.3.3.2.3.3.3.3.3.a = 3.3.6.d.6.7 #X#X#X#X#X#X#X#X",
"#X#X#X#X#X#X#X3 $.;.1.3.3.3.,.              d 6.3.3.3.3.3.3.3.3.2.3.3.3.3.3.3.3.3.3.2.2.6.2.,..     &.3.3.q.d.@.7 #X#X#X#X#X#X#X",
"#X#X#X#X#X#X0 v ;.;.3.3.3.2..                 + <.3.3.3.3.3.3.3.3.3.3.3.3.3.3.3.3.3.3.3.2._         = 3.3.3.s.w.c u #X#X#X#X#X#X",
"#X#X#X#X#X#X3 :.;.;.3.3.3.j                       ) 3.2.3.3.3.3.3.3.3.3.3.3.2.6.3.3.3.3.;             2.3.3.3.d.6.7 #X#X#X#X#X#X",
"#X#X#X#X#X0 v ;.;.1.3.3.3.                          + ,.3.3.3.3.3.3.3.3.3.3.3.2.3.3.#.                k 3.3.2.0.s.M A #X#X#X#X#X",
"#X#X#X#X#X3 ,.;.;.2.3.3.,.                              a ,.3.3.3.3.3.2.3.3.3.3.2.s                   + 2.2.2.3.d.5.7 #X#X#X#X#X",
"#X#X#X#XA 5 ;.] ;.3.3.3.3.3.' +                             ) 3.3.3.3.2.2.2.3.#..                       2.3.2.2.6.w.x #X#X#X#X#X",
"#X#X#X#X7  .;.;.;.3.3.3.3.3.3.3.,.a                           + &.3.2.2.2.2.:                       ; &.3.3.2.2.3.d.@.0 #X#X#X#X",
"#X#X#X#X7 >.;.;.1.3.3.3.3.3.3.3.2.2.j Y *                         = <.<.d                       g 2.2.2.3.3.3.3.3.0.0.3 #X#X#X#X",
"#X#X#XU 6 ;.;.;.2.3.3.3.3.3.2.2.<.' @ @X@X+XP.@                                         o   k 2.2.2.2.2.2.3.3.3.2.3.d.5 #X#X#X#X",
"#X#X#X0 V ;.;.;.2.3.3.3.3.2.2.<.O.+  X@X@X@X@X@X+X( o                             X ~ XX@X^ + O.2.2.3.2.3.3.3.3.3.3.w.m A #X#X#X",
"#X#X#X7 %.;.;.;.2.3.3.3.3.3.2.O.' @ @X@X@X@X@X@X@X@X@XXX~ X                 X E oX@X@X@X@X@Xo g O.2.2.6.3.3.3.3.3.3.0. .0 #X#X#X",
"#X#X#X7 >.;.;.;.2.3.3.3.3.3.+.O.s / @X@X@X@X@XI.7 7 L.@X@X@XoXE         I 0 ~ @X@X@X@X@X@X@XP.. O.&.2.2.2.3.3.2.3.3.2.4.7 #X#X#X",
"#X#X#X3 ;.;.;.;.2.3.3.3.2.<.+.O.= T.@X@X@X@X.X3 3 3 3 {.@X@X@X@X@X, R.@Xy 3 3 P.@X@X@X@X@X@X X  O.O.2.2.2.3.3.3.3.5.6.7.3 #X#X#X",
"#X#X#X3 ;.;.;.>.3.3.3.3.2.$.O.O.: L.@X@X@X@X{.3 3 3 7 E.@X@X@X@X@X& T.@Xt , 3 L.@X@X@X@X@X@X{.  O.O.<.3.3.3.3.3.3.6.5.0.7 #X#X#X",
"#X#X#X4 ;.;.;.;.3.3.3.3.3.+.O.O.) & @X@X@X@X@XY 3 3 u @X@X@X@X@X@X  ^ @XOXT ^ @X@X@X@X@X@X@X^   O.O.+.3.3.3.3.3.3.3.2.6.3 #X#X#X",
"#X#X#X4 ;.;.;.>.3.3.3.3.3.+.O.O.O.. ~ @X@X@X@X@X+X+X@X@X@X@X@X@XT   o }.@X@X@X@X@X@X@X@X@X X  d O.O.+.3.3.3.3.3.3.3.2.2.3 #X#X#X",
"#X#X#X4 ;.;.;.>.3.3.3.3.3.#.O.O.O.|   t +X@X@X@X@X@X@X@X@X@XT.          @ ( }.XX@X@X+X{.T   ; O.O.O.+.2.3.3.3.3.3.3.6.<.7 #X#X#X",
"#X#X#X3 ;.;.;.;.3.3.3.3.3.<.O.O.O.O.| .   e E.+X@X@X+X{.E   > y.S.F.F.M.$               . k O.O.O.O.$.2.3.3.3.3.3.3.6.%.* #X#X#X",
"#X#X#X3 ;.;.;.>.3.3.3.3.3.3.+.O.O.O.O.O.g .             2 Z.F.F.F.F.F.F.F.n.  = ) k _ O.O.O.O.O.O.O.2.2.3.3.3.3.3.3.3...7 #X#X#X",
"#X#X#X3 ] ;.;.;.3.3.3.3.3.3.2.O.O.O.O.O.O.O.O.) s -   n.F.F.F.F.F.F.F.F.F.F.D.< . O.O.O.O.O.O.O.O.#.3.3.3.3.3.3.3.3.3.v 7 #X#X#X",
"#X#X#X7 [ ;.;.;.3.3.3.3.3.3.2.2.O.O.O.O.O.+.O.O.O.+ M.F.F.F.F.F.F.F.F.F.F.F.F.F.t.+ O.O.O.O.O.O.+.3.3.3.3.3.3.3.5.2.5.4 3 #X#X#X",
"#X#X#X8 ` ] ;.] 2.3.3.3.3.3.3.3.2.,.O.O.O.O.O.O.: y.F.F.F.F.F.F.F.F.F.F.F.F.F.F.Z.  | +.O.O.+.,.3.3.3.3.3.3.3.3.3.2.2.7 9 #X#X#X",
"#X#X#Xy f ] ;.;.2.3.3.3.3.3.3.3.3.3.3.2.&.#.+.+.> F.F.F.F.F.F.F.F.F.F.F.F.F.F.F.N.  9.5.3.5.3.3.3.3.3.3.3.3.3.3.3.3...3 t #X#X#X",
"#X#X#X#X4 ;.;.;.;.3.3.3.3.3.3.3.3.3.3.3.3.3.3.<.# A.F.F.F.F.F.F.F.F.F.F.F.F.F.F.K   (.(./.c.7.3.3.3.3.3.3.3.3.3.3.3.4 3 #X#X#X#X",
"#X#X#X#X, [ ;.;.;.3.3.3.3.3.3.3.3.3.3.3.3.3.3.3.> z n.F.D.F.F.F.F.F.F.F.F.F.F.F.O Z (.(.(.(.(.W.7.3.3.3.3.3.3.3.3.&.3 3 #X#X#X#X",
"#X#X#X#X0 M ;.;.;.1.3.3.3.3.3.3.3.3.3.3.3.3.3.3.' u.r.L D.D.F.F.F.D.F.F.F.F.F.Z.  U.(.(.(.(.(.(.(.z.3.3.3.3.3.3.3.5 3 y #X#X#X#X",
"#X#X#X#X#X4 ;.;.;.;.3.3.3.3.3.3.3.3.3.3.3.3.3.8.'.% V.u.l D.F.F.F.F.F.F.F.F.F.H & (.(.(.(.(.(.(.(.(.v.3.3.3.3.3.@.7 7 #X#X#X#X#X",
"#X#X#X#X#X7 ..;.;.;.>.3.3.3.3.3.3.3.3.3.3.3.J.[.'.G.J V.m.$ F.F.F.F.F.F.F.F.D.  G.(.(.(.(.(.(.(.(.(.(.c.3.3.3.2.7 * y #X#X#X#X#X",
"#X#X#X#X#X#X3 ;.;.;.;.3.3.3.3.3.3.3.3.3.7.`.[.[.[.[.* C.V.u.$ F.F.F.F.F.F.F.H & (.(.(.(.(.(.(.(.(.(.(.(.g.3.3.6 3 3 #X#X#X#X#X#X",
"#X#X#X#X#X#X9 M ;.;.;.;.3.3.3.3.3.3.3.g.[.[.[.[.[.[.!.# V.V.J 1 F.F.F.F.F.n.  Y.(.(.(.(.(.(.(.(.(.(.(.(./.3.m 3 3 #X#X#X#X#X#X#X",
"#X#X#X#X#X#X#X3 #.;.;.;.;.3.3.3.3.3.g.[.[.[.[.[.[.`.(.W J B.l   t.F.F.F.S.  k.(.(.(.(.(.(.(.(.(.(.(.(.(.(.D 3 3 u #X#X#X#X#X#X#X",
"#X#X#X#X#X#X#XY 3 :.;.;.;.;.3.3.3.g.[.[.[.[.[.[.[.).(.(.w p Y.!.  A.F.D.O ! _.(.(.(.(.(.(.(.(.(.(.(.(.(.R 3 3 i #X#X#X#X#X#X#X#X",
"#X#X#X#X#X#X#X#Xy 4 :.;.;.;.;.2.5.].[.].[.[.[.].).(.(.(.(.(.(.(.H.# F.$ Q (.(.(.(.(.(.(.(.(.(.(.(._._.S 3 3 i #X#X#X#X#X#X#X#X#X",
"#X#X#X#X#X#X#X#X#Xu 3 $.;.;.;.;.Q.].].].].).(.(.(.(.(.(.(.(.(.(._.R # Q _.(.(.(.(.(.(.(.(.(.(./.(.U.7 3 3 #X#X#X#X#X#X#X#X#X#X#X",
"#X#X#X#X#X#X#X#X#X#Xu 7 } ] ;.e.(.(.(.(._.(.(.(.(.(.(.(.(.(.(.(._._.Q (.(.(.(.(.(.(.(.(.(.(.(.^.I 3 3 9 #X#X#X#X#X#X#X#X#X#X#X#X",
"#X#X#X#X#X#X#X#X#X#X#X#X, 5 { ~.(.(.(.(.(.(.(.(.(.(.(.(.(.(.(.(.(.(.(.(.(.(.(.(.(.(.(.(.(.!.T 4 3 7 #X#X#X#X#X#X#X#X#X#X#X#X#X#X",
"#X#X#X#X#X#X#X#X#X#X#X#X#Xu 3 w l.^._.(.(.(.(.(.(.(.(.(.(.(.(.(.(.(.(.(.(.(.(.(.(.(./.k.w 3 7 7 #X#X#X#X#X#X#X#X#X#X#X#X#X#X#X#X",
"#X#X#X#X#X#X#X#X#X#X#X#X#X#X#XA 7 3 n j.W./.(./.(.(.(.(.(.(.(.(.(.(.(.(.(.(.~.b.i.6 3 3 3 t #X#X#X#X#X#X#X#X#X#X#X#X#X#X#X#X#X#X",
"#X#X#X#X#X#X#X#X#X#X#X#X#X#X#X#X#X#Xt 7 3 3 x N -.p.h.x.x.b.b.l.h.j.-.F x 4 7 , 7 0 u #X#X#X#X#X#X#X#X#X#X#X#X#X#X#X#X#X#X#X#X#X",
"#X#X#X#X#X#X#X#X#X#X#X#X#X#X#X#X#X#X#X#X#X#XA r 8 4 3 4 3 3 3 , , 8 0 t u #X#X#X#X#X#X#X#X#X#X#X#X#X#X#X#X#X#X#X#X#X#X#X#X#X#X#X"
};
