/* XPM */
static char *result[] = {
/* columns rows colors chars-per-pixel */
"64 64 153 2 ",
"   c #281108",
".  c #301207",
"X  c #301307",
"o  c #38170A",
"O  c #37190B",
"+  c #3B1809",
"@  c #39180A",
"#  c #3A190B",
"$  c #3B190B",
"%  c #3C1809",
"&  c #3C1909",
"*  c #3D1909",
"=  c #3D1A0A",
"-  c #3E1A0A",
";  c #3E1B0A",
":  c #3F1B0A",
">  c #3F1B0B",
",  c #381A0C",
"<  c #3C1C0F",
"1  c #3C1D10",
"2  c #3C281C",
"3  c #3D291C",
"4  c #3D291D",
"5  c #3E291C",
"6  c #3E291D",
"7  c #3F291D",
"8  c #401B0B",
"9  c #401C0B",
"0  c #411C0B",
"q  c #401C0C",
"w  c #411C0C",
"e  c #451F0E",
"r  c #432112",
"t  c #442011",
"y  c #472212",
"u  c #522616",
"i  c #62301B",
"p  c #65331D",
"a  c #69331B",
"s  c #6B331B",
"d  c #6D351C",
"f  c #6E351C",
"g  c #6E351D",
"h  c #6F361C",
"j  c #6F371F",
"k  c #71371D",
"l  c #72371D",
"z  c #72371E",
"x  c #72381E",
"c  c #73381E",
"v  c #73391E",
"b  c #74391E",
"n  c #75391E",
"m  c #74391F",
"M  c #75391F",
"N  c #753A1E",
"B  c #753A1F",
"V  c #763A1F",
"C  c #773A1F",
"Z  c #773D24",
"A  c #763E24",
"S  c #783B20",
"D  c #7A3C20",
"F  c #7B3C20",
"G  c #793E23",
"H  c #7C3C20",
"J  c #7C3D21",
"K  c #776D66",
"L  c #796E67",
"P  c #706C6B",
"I  c #844224",
"U  c #844225",
"Y  c #844325",
"T  c #854325",
"R  c #844426",
"E  c #874426",
"W  c #884426",
"Q  c #884526",
"!  c #894526",
"~  c #894527",
"^  c #8A4527",
"/  c #8B4527",
"(  c #8B4627",
")  c #8A4728",
"_  c #8E4728",
"`  c #8F4728",
"'  c #8D482A",
"]  c #904829",
"[  c #914929",
"{  c #914B2B",
"}  c #944B2A",
"|  c #944B2B",
" . c #974D2B",
".. c #974D2C",
"X. c #984D2B",
"o. c #984E2B",
"O. c #9B4F2B",
"+. c #984D2C",
"@. c #984E2C",
"#. c #9B4F2C",
"$. c #9A4F2D",
"%. c #9B4F2D",
"&. c #9D502E",
"*. c #9F512E",
"=. c #9F522E",
"-. c #9F522F",
";. c #A1532F",
":. c #A2532F",
">. c #A3532F",
",. c #A3542F",
"<. c #A25430",
"1. c #A35430",
"2. c #A35530",
"3. c #A45430",
"4. c #A55530",
"5. c #A55531",
"6. c #A45631",
"7. c #A85732",
"8. c #A95832",
"9. c #AD5A33",
"0. c #A95834",
"q. c #A95A36",
"w. c #AA5B36",
"e. c #AC5A34",
"r. c #AD5A34",
"t. c #AE5A34",
"y. c #AE5B34",
"u. c #AF5B34",
"i. c #AC5C37",
"p. c #B05C35",
"a. c #B05C36",
"s. c #B15D36",
"d. c #B35D36",
"f. c #B35E36",
"g. c #B45E37",
"h. c #B55F37",
"j. c #B35E38",
"k. c #B46038",
"l. c #B46039",
"z. c #B76139",
"x. c #B5613A",
"c. c #B86139",
"v. c #BA623A",
"b. c #BF663E",
"n. c #BF673F",
"m. c #C1663C",
"M. c #BF6840",
"N. c #C06840",
"B. c #8F837B",
"V. c #8D837C",
"C. c #8E847D",
"Z. c #90847C",
"A. c #CAEAF4",
/* pixels */
"A.b.m.m.m.m.m.m.m.m.m.m.m.m.m.m.m.m.m.m.m.m.m.m.m.m.m.m.m.j.A.A.A.A.M.m.m.m.m.m.m.m.m.m.m.m.m.m.m.m.m.m.m.m.m.m.m.m.m.m.m.m.k.A.",
"0.r.f.d.f.f.d.d.d.d.f.d.d.d.d.f.d.d.d.f.f.f.d.f.d.d.d.f.f.1.{ B.Z.q.9.d.d.d.d.d.d.d.f.d.d.d.d.f.d.d.f.d.f.d.d.f.d.d.f.d.d.f.<.Q ",
"#.,.8.8.8.8.8.8.8.8.8.8.8.8.8.8.8.8.8.8.8.8.8.8.8.8.8.8.8.$.E 3 4 O.:.8.8.8.8.8.8.8.8.8.8.8.8.8.8.8.8.8.8.8.8.8.8.8.8.8.8.8.X.D ",
"#.,.8.8.8.8.8.8.8.8.8.8.8.8.8.8.8.8.8.8.8.8.8.8.8.8.8.8.8.$.W 3 3 O.:.8.8.8.8.8.8.8.8.8.8.8.8.8.8.8.8.8.8.8.8.8.8.8.8.8.8.8. .F ",
"#.,.8.8.8.8.8.8.8.8.8.8.8.8.8.8.8.8.8.8.8.8.8.8.8.8.8.8.8.$.W 3 3 O.:.8.8.8.8.8.8.8.8.8.8.8.8.8.8.8.8.8.8.8.8.8.8.8.8.8.8.8. .F ",
"#.,.8.8.8.8.8.8.8.8.8.8.8.8.8.8.8.8.8.8.8.8.8.8.8.8.8.8.8.$.W 3 3 O.:.8.8.8.8.8.8.8.8.8.8.8.8.8.8.8.8.8.8.8.8.8.8.8.8.8.8.8. .F ",
"#.,.8.8.8.8.8.8.8.8.8.8.8.8.8.8.8.8.8.8.8.8.8.8.8.8.8.8.8.%.W 3 3 #.:.8.8.8.8.8.8.8.8.8.8.8.8.8.8.8.8.8.8.8.8.8.8.8.8.8.8.8.X.F ",
"O.,.8.8.8.8.8.8.8.8.8.8.8.8.8.8.8.8.8.8.8.8.8.8.8.8.8.8.8.%.W 3 3 O.:.8.8.8.8.8.8.8.8.8.8.8.8.8.8.8.8.8.8.8.8.8.8.8.8.8.8.8. .F ",
"O.,.8.8.8.8.8.8.8.8.8.8.8.8.8.8.8.8.8.8.8.8.8.8.8.8.8.8.8.%.W 3 3 O.:.8.8.8.8.8.8.8.8.8.8.8.8.8.8.8.8.8.8.8.8.8.8.8.8.8.8.8.X.F ",
"#.,.8.8.8.8.8.8.8.8.8.8.8.8.8.8.8.8.8.8.8.8.8.8.8.8.8.8.8.%.! 3 3 O.:.8.8.8.8.8.8.8.8.8.8.8.8.8.8.8.8.8.8.8.8.8.8.8.8.8.8.8. .F ",
"#.,.8.8.8.8.8.8.8.8.8.8.8.8.8.8.8.8.8.8.8.8.8.8.8.8.8.8.8.%.! 3 3 O.:.8.8.8.8.8.8.8.8.8.8.8.8.8.8.8.8.8.8.8.8.8.8.8.8.8.8.8.X.F ",
"O.,.8.8.8.8.8.8.8.8.8.8.8.8.8.8.8.8.8.8.8.8.8.8.8.8.8.8.8.%.! 3 3 O.:.8.8.8.8.8.8.8.8.8.8.8.8.8.8.8.8.8.8.8.8.8.8.8.8.8.8.8.X.F ",
"#.,.8.8.8.8.8.8.8.8.8.8.8.8.8.8.8.8.8.8.8.8.8.8.8.8.8.8.8.%.! 3 3 O.:.8.8.8.8.8.8.8.8.8.8.8.8.8.8.8.8.8.8.8.8.8.8.8.8.8.8.8. .F ",
"#.,.8.8.8.8.8.8.8.8.8.8.8.8.8.8.8.8.8.8.8.8.8.8.8.8.8.8.8.%.~ 3 3 O.:.8.8.8.8.8.8.8.8.8.8.8.8.8.8.8.8.8.8.8.8.8.8.8.8.8.8.8.X.F ",
"O.,.8.8.8.8.8.8.8.8.8.8.8.8.8.8.8.8.8.8.8.8.8.8.8.8.8.8.8.%.^ 3 3 O.:.8.8.8.8.8.8.8.8.8.8.8.8.8.8.8.8.8.8.8.8.8.8.8.8.8.8.8.X.F ",
"#.,.8.8.8.8.8.8.8.8.8.8.8.8.8.8.8.8.8.8.8.8.8.8.8.8.8.8.8.%.^ 3 3 O.:.8.8.8.8.8.8.8.8.8.8.8.8.8.8.8.8.8.8.8.8.8.8.8.8.8.8.8.X.F ",
"#.,.8.8.8.8.8.8.8.8.8.8.8.8.8.8.8.8.8.8.8.8.8.8.8.8.8.8.8.%.^ 3 3 #.:.8.8.8.8.8.8.8.8.8.8.8.8.8.8.8.8.8.8.8.8.8.8.8.8.8.8.8.X.F ",
"O.,.8.8.8.8.8.8.8.8.8.8.8.8.8.8.8.8.8.8.8.8.8.8.8.8.8.8.8.%./ 3 3 O.:.8.8.8.8.8.8.8.8.8.8.8.8.8.8.8.8.8.8.8.8.8.8.8.8.8.8.8.X.F ",
"A k x x c c c c c c c c c c c c c c c c c c c v c b b b b k g 3 3 h k b b b b b b b n m n M M N B B B B B B B B V V V V V V f p ",
"A.r + + + + + + + % % & & & & & & & & & & & & * = = = = = e 3 3 3 3 q - - - ; ; ; ; : > > > > > 8 8 8 8 9 9 0 0 0 w w w w w y A.",
"A.V.3 3 3 3 3 3 3 3 3 3 3 3 3 3 3 3 3 3 3 3 3 3 3 3 3 3 3 3 3 3 3 3 3 3 3 3 3 3 3 3 3 3 3 3 3 3 3 3 3 3 3 3 3 3 3 3 3 3 3 3 K A.",
"A.C.3 3 3 3 3 3 3 3 3 3 3 3 3 3 3 3 3 3 3 3 3 3 3 3 3 3 3 3 3 3 3 3 3 3 3 3 3 3 3 3 3 3 3 3 3 3 3 3 3 3 3 3 3 3 3 3 3 3 3 3 L A.",
"A.n.m.m.m.m.m.m.m.m.m.m.m.s.7 3 3 5 z.m.m.m.m.m.m.m.m.m.m.m.m.m.m.m.m.m.m.m.m.m.m.m.m.m.m.e.5 3 3 6 v.m.m.m.m.m.m.m.m.m.m.m.l.A.",
"w.u.g.g.g.g.g.g.g.g.g.g.g.7.} 3 3 2.t.g.g.g.g.g.g.g.g.g.g.g.g.g.g.g.g.g.g.g.g.g.g.g.g.g.g.:.( 3 3 5.y.g.g.g.g.g.g.g.g.g.g.g.3.) ",
"O.,.8.8.8.8.8.8.8.8.8.8.8.*.] 3 3 O.:.8.8.8.8.8.8.8.8.8.8.8.8.8.8.8.8.8.8.8.8.8.8.8.8.8.8. .I 3 3 O.,.8.8.8.8.8.8.8.8.8.8.8.X.F ",
"#.,.8.8.8.8.8.8.8.8.8.8.8.=.] 3 3 O.:.8.8.8.8.8.8.8.8.8.8.8.8.8.8.8.8.8.8.8.8.8.8.8.8.8.8. .I 3 3 #.,.8.8.8.8.8.8.8.8.8.8.8.X.F ",
"O.,.8.8.8.8.8.8.8.8.8.8.8.*.] 3 3 O.;.8.8.8.8.8.8.8.8.8.8.8.8.8.8.8.8.8.8.8.8.8.8.8.8.8.8...I 3 3 O.,.8.8.8.8.8.8.8.8.8.8.8.X.F ",
"O.,.8.8.8.8.8.8.8.8.8.8.8.=.] 3 3 O.:.8.8.8.8.8.8.8.8.8.8.8.8.8.8.8.8.8.8.8.8.8.8.8.8.8.8.+.I 3 3 O.,.8.8.8.8.8.8.8.8.8.8.8.X.F ",
"#.,.8.8.8.8.8.8.8.8.8.8.8.*.] 3 3 O.;.8.8.8.8.8.8.8.8.8.8.8.8.8.8.8.8.8.8.8.8.8.8.8.8.8.8.@.I 3 3 O.,.8.8.8.8.8.8.8.8.8.8.8.X.F ",
"O.,.8.8.8.8.8.8.8.8.8.8.8.=.] 3 3 O.;.8.8.8.8.8.8.8.8.8.8.8.8.8.8.8.8.8.8.8.8.8.8.8.8.8.8.@.I 3 3 O.,.8.8.8.8.8.8.8.8.8.8.8.X.F ",
"O.,.8.8.8.8.8.8.8.8.8.8.8.=.] 3 3 O.;.8.8.8.8.8.8.8.8.8.8.8.8.8.8.8.8.8.8.8.8.8.8.8.8.8.8.@.U 3 3 O.,.8.8.8.8.8.8.8.8.8.8.8.X.F ",
"#.,.8.8.8.8.8.8.8.8.8.8.8.=.[ 3 4 O.;.8.8.8.8.8.8.8.8.8.8.8.8.8.8.8.8.8.8.8.8.8.8.8.8.8.8.@.U 3 3 O.,.8.8.8.8.8.8.8.8.8.8.8.X.F ",
"O.,.8.8.8.8.8.8.8.8.8.8.8.=.[ 3 3 O.:.8.8.8.8.8.8.8.8.8.8.8.8.8.8.8.8.8.8.8.8.8.8.8.8.8.8.@.Y 3 3 O.,.8.8.8.8.8.8.8.8.8.8.8.X.F ",
"O.,.8.8.8.8.8.8.8.8.8.8.8.=.[ 3 3 O.:.8.8.8.8.8.8.8.8.8.8.8.8.8.8.8.8.8.8.8.8.8.8.8.8.8.8.@.T 3 3 O.,.8.8.8.8.8.8.8.8.8.8.8.X.F ",
"#.,.8.8.8.8.8.8.8.8.8.8.8.=.[ 3 3 O.;.8.8.8.8.8.8.8.8.8.8.8.8.8.8.8.8.8.8.8.8.8.8.8.8.8.8.@.T 3 3 O.,.8.8.8.8.8.8.8.8.8.8.8.X.F ",
"#.,.8.8.8.8.8.8.8.8.8.8.8.=.[ 3 3 O.:.8.8.8.8.8.8.8.8.8.8.8.8.8.8.8.8.8.8.8.8.8.8.8.8.8.8.@.T 3 3 #.,.8.8.8.8.8.8.8.8.8.8.8.X.F ",
"#.,.8.8.8.8.8.8.8.8.8.8.8.=.[ 3 3 O.:.8.8.8.8.8.8.8.8.8.8.8.8.8.8.8.8.8.8.8.8.8.8.8.8.8.8.@.T 3 3 O.>.8.8.8.8.8.8.8.8.8.8.8.X.F ",
"#.,.8.8.8.8.8.8.8.8.8.8.8.-.[ 3 3 O.:.8.8.8.8.8.8.8.8.8.8.8.8.8.8.8.8.8.8.8.8.8.8.8.8.8.8.@.T 3 3 #.,.8.8.8.8.8.8.8.8.8.8.8.X.F ",
"O.,.8.8.8.8.8.8.8.8.8.8.8.-.[ 3 3 #.;.8.8.8.8.8.8.8.8.8.8.8.8.8.8.8.8.8.8.8.8.8.8.8.8.8.8.@.T 3 3 O.,.8.8.8.8.8.8.8.8.8.8.8.X.F ",
"#.,.8.8.8.8.8.8.8.8.8.8.8.-.[ 3 3 O.:.8.8.8.8.8.8.8.8.8.8.8.8.8.8.8.8.8.8.8.8.8.8.8.8.8.8.@.T 3 3 O.,.8.8.8.8.8.8.8.8.8.8.8.X.H ",
"Z x x x x x x x x x x x x z z 3 3 x l x x x x x x x x x x x x x x x x x x x x x x x x x x d a 3 3 x x x x x x x x x x x x x s i ",
"A.1 X X X X X X X X X X X $ 3 3 3 3 @ X X X X X X X X X X X X X X X X X X X X X X X X X X # 3 3 3 3 o X X X X X X X X X X X , A.",
"A.V.3 3 3 3 3 3 3 3 3 3 3 3 3 3 3 3 3 3 3 3 3 3 3 3 3 3 3 3 3 3 3 3 3 3 3 3 3 3 3 3 3 3 3 3 3 3 3 3 3 3 3 3 3 3 3 3 3 3 3 3 K A.",
"A.C.3 3 3 3 3 3 3 3 3 3 3 3 3 3 3 3 3 3 3 3 3 3 3 3 3 3 3 3 3 3 3 3 3 3 3 3 3 3 3 3 3 3 3 3 3 3 3 3 3 3 3 3 3 3 3 3 3 3 3 3 L A.",
"A.N.m.m.m.m.m.m.m.m.m.m.m.m.m.m.m.m.m.m.m.m.m.m.m.m.m.m.m.a.6 3 3 5 c.m.m.m.m.m.m.m.m.m.m.m.m.m.m.m.m.m.m.m.m.m.m.m.m.m.m.m.x.A.",
"i.p.h.h.h.h.h.h.h.h.h.h.h.h.h.h.h.h.h.h.h.h.h.h.h.h.h.h.h.7.| 3 3 6.u.h.h.h.h.h.h.h.h.h.h.h.h.h.h.h.h.h.h.h.h.h.h.h.h.h.h.h.4.' ",
"#.,.8.8.8.8.8.8.8.8.8.8.8.8.8.8.8.8.8.8.8.8.8.8.8.8.8.8.8.&._ 3 3 O.:.8.8.8.8.8.8.8.8.8.8.8.8.8.8.8.8.8.8.8.8.8.8.8.8.8.8.8.@.H ",
"O.,.8.8.8.8.8.8.8.8.8.8.8.8.8.8.8.8.8.8.8.8.8.8.8.8.8.8.8.&._ 3 3 O.:.8.8.8.8.8.8.8.8.8.8.8.8.8.8.8.8.8.8.8.8.8.8.8.8.8.8.8.X.H ",
"#.,.8.8.8.8.8.8.8.8.8.8.8.8.8.8.8.8.8.8.8.8.8.8.8.8.8.8.8.&._ 3 3 O.:.8.8.8.8.8.8.8.8.8.8.8.8.8.8.8.8.8.8.8.8.8.8.8.8.8.8.8.X.H ",
"O.,.8.8.8.8.8.8.8.8.8.8.8.8.8.8.8.8.8.8.8.8.8.8.8.8.8.8.8.&._ 3 3 O.:.8.8.8.8.8.8.8.8.8.8.8.8.8.8.8.8.8.8.8.8.8.8.8.8.8.8.8.X.H ",
"#.,.8.8.8.8.8.8.8.8.8.8.8.8.8.8.8.8.8.8.8.8.8.8.8.8.8.8.8.&._ 3 3 O.:.8.8.8.8.8.8.8.8.8.8.8.8.8.8.8.8.8.8.8.8.8.8.8.8.8.8.8.o.H ",
"#.,.8.8.8.8.8.8.8.8.8.8.8.8.8.8.8.8.8.8.8.8.8.8.8.8.8.8.8.&._ 3 3 O.:.8.8.8.8.8.8.8.8.8.8.8.8.8.8.8.8.8.8.8.8.8.8.8.8.8.8.8.X.H ",
"O.,.8.8.8.8.8.8.8.8.8.8.8.8.8.8.8.8.8.8.8.8.8.8.8.8.8.8.8.&._ 3 3 #.:.8.8.8.8.8.8.8.8.8.8.8.8.8.8.8.8.8.8.8.8.8.8.8.8.8.8.8.+.H ",
"O.,.8.8.8.8.8.8.8.8.8.8.8.8.8.8.8.8.8.8.8.8.8.8.8.8.8.8.8.&._ 3 3 O.:.8.8.8.8.8.8.8.8.8.8.8.8.8.8.8.8.8.8.8.8.8.8.8.8.8.8.8.X.H ",
"O.,.8.8.8.8.8.8.8.8.8.8.8.8.8.8.8.8.8.8.8.8.8.8.8.8.8.8.8.&._ 3 3 O.:.8.8.8.8.8.8.8.8.8.8.8.8.8.8.8.8.8.8.8.8.8.8.8.8.8.8.8.X.H ",
"O.,.8.8.8.8.8.8.8.8.8.8.8.8.8.8.8.8.8.8.8.8.8.8.8.8.8.8.8.&.` 3 3 O.:.8.8.8.8.8.8.8.8.8.8.8.8.8.8.8.8.8.8.8.8.8.8.8.8.8.8.8.X.H ",
"O.,.8.8.8.8.8.8.8.8.8.8.8.8.8.8.8.8.8.8.8.8.8.8.8.8.8.8.8.&.` 3 3 O.:.8.8.8.8.8.8.8.8.8.8.8.8.8.8.8.8.8.8.8.8.8.8.8.8.8.8.8.X.H ",
"#.,.8.8.8.8.8.8.8.8.8.8.8.8.8.8.8.8.8.8.8.8.8.8.8.8.8.8.8.&.` 3 3 O.:.8.8.8.8.8.8.8.8.8.8.8.8.8.8.8.8.8.8.8.8.8.8.8.8.8.8.8.o.H ",
"O.,.8.8.8.8.8.8.8.8.8.8.8.8.8.8.8.8.8.8.8.8.8.8.8.8.8.8.8.&.` 3 3 O.:.8.8.8.8.8.8.8.8.8.8.8.8.8.8.8.8.8.8.8.8.8.8.8.8.8.8.8.X.H ",
"#.,.8.8.8.8.8.8.8.8.8.8.8.8.8.8.8.8.8.8.8.8.8.8.8.8.8.8.8.&.` 3 3 #.:.8.8.8.8.8.8.8.8.8.8.8.8.8.8.8.8.8.8.8.8.8.8.8.8.8.8.8.o.H ",
"#.,.8.8.8.8.8.8.8.8.8.8.8.8.8.8.8.8.8.8.8.8.8.8.8.8.8.8.8.&.` 3 3 O.:.8.8.8.8.8.8.8.8.8.8.8.8.8.8.8.8.8.8.8.8.8.8.8.8.8.8.8.X.H ",
"#.,.8.8.8.8.8.8.8.8.8.8.8.8.8.8.8.8.8.8.8.8.8.8.8.8.8.8.8.&.` 2 2 #.:.8.8.8.8.8.8.8.8.8.8.8.8.8.8.8.8.8.8.8.8.8.8.8.8.8.8.8.X.H ",
"R J S S S S S S S S S S S S S S S S S S S S S S S S S S S c j P P G C S S S S S S S S S S S S S S S S S S S S S S S S S S S a u ",
"A.t X X X X X X X X X X X X X X X X X X X X X X X X X X X O A.A.A.A.< X X X X X X X X X X X X X . X X X X X X X X X X X X X   A."
};
