/* XPM */
static char *result[] = {
/* columns rows colors chars-per-pixel */
"64 64 107 2 ",
"   c #303840",
".  c #323941",
"X  c #3D3F44",
"o  c #333E48",
"O  c #353F49",
"+  c #3F4045",
"@  c #44474D",
"#  c #4A4648",
"$  c #45484E",
"%  c #46484E",
"&  c #504A4A",
"*  c #524B4B",
"=  c #584E4D",
"-  c #535052",
";  c #5B5455",
":  c #5E5656",
">  c #6E584F",
",  c #6F584F",
"<  c #71574F",
"1  c #76574E",
"2  c #7D554E",
"3  c #70584F",
"4  c #6F5950",
"5  c #655958",
"6  c #705950",
"7  c #705A50",
"8  c #715A51",
"9  c #745C52",
"0  c #765E54",
"q  c #755E56",
"w  c #765F57",
"e  c #796055",
"r  c #7C6157",
"t  c #7D6258",
"y  c #7D6359",
"u  c #7E6358",
"i  c #7E6359",
"p  c #7F6459",
"a  c #9E4F4B",
"s  c #87534D",
"d  c #92514C",
"f  c #99504B",
"g  c #A54D4A",
"h  c #AE4B4A",
"j  c #BC4747",
"k  c #BD4747",
"l  c #B54A49",
"z  c #B94948",
"x  c #BB4848",
"c  c #BC4848",
"v  c #BD4848",
"b  c #BE4848",
"n  c #BE4949",
"m  c #BE4A4A",
"M  c #80645A",
"N  c #81655A",
"B  c #82655A",
"V  c #83655A",
"C  c #82665B",
"Z  c #83675B",
"A  c #85655A",
"S  c #84675C",
"D  c #8C645A",
"F  c #85685C",
"G  c #886A5E",
"H  c #97635A",
"J  c #A7615A",
"K  c #B9605A",
"L  c #8A6E63",
"P  c #8C6D60",
"I  c #8F6F62",
"U  c #8C6F64",
"Y  c #937264",
"T  c #947365",
"R  c #947366",
"E  c #957366",
"W  c #957467",
"Q  c #967467",
"!  c #977467",
"~  c #987567",
"^  c #997668",
"/  c #9C796B",
"(  c #C45F59",
")  c #CC5E59",
"_  c #D65D59",
"`  c #E65B59",
"'  c #F25A59",
"]  c #FA5959",
"[  c #FF5858",
"{  c #FE5959",
"}  c #FF5959",
"|  c #FE5A5A",
" . c #FF5A5A",
".. c #B69884",
"X. c #BB9D88",
"o. c #C0A28C",
"O. c #C4A590",
"+. c #C5A690",
"@. c #CBAB95",
"#. c #CBAC95",
"$. c #DAB59D",
"%. c #E1BCA2",
"&. c #E8C2A7",
"*. c #ECC7AB",
"=. c #ECC9AC",
"-. c #F5CFB2",
";. c None",
/* pixels */
";.;.;.;.;.;.;.;.;.;.;.;.;.;.;.;.;.;.;.;.;.;.;.;.;.;.;.;.;.;.;.b } ;.;.;.;.;.;.;.;.;.;.;.;.;.;.;.;.;.;.;.;.;.;.;.;.;.;.;.;.;.;.;.",
";.;.;.;.;.;.;.;.;.;.;.;.;.;.;.;.;.;.;.;.;.;.;.;.;.;.;.;.;.b c c } } } ;.;.;.;.;.;.;.;.;.;.;.;.;.;.;.;.;.;.;.;.;.;.;.;.;.;.;.;.;.",
";.;.;.;.;.;.;.;.;.;.;.;.;.;.;.;.;.;.;.;.;.;.;.;.;.;.;.j c c c c } } } } } ;.;.;.;.;.;.;.;.;.;.;.;.;.;.;.;.;.;.;.;.;.;.;.;.;.;.;.",
";.;.;.;.;.;.;.;.;.;.;.;.;.;.;.;.;.;.;.;.;.;.;.;.;.;.c c c c c c } } } } } } ;.;.;.;.;.;.;.;.;.;.;.;.;.;.;.;.;.;.;.;.;.;.;.;.;.;.",
";.;.;.;.;.;.;.;.;.;.;.;.;.;.;.;.;.;.;.;.;.;.;.;.c c c c c c c c } } } } } } } } ;.;.;.;.;.;.;.;.;.;.;.;.;.;.;.;.;.;.;.;.;.;.;.;.",
";.;.;.;.;.;.;.;.;.;.;.;.;.;.;.;.;.;.;.;.;.;.c c c c c c c c c c } } } } } } } } } } ;.;.;.;.;.;.;.;.;.;.;.;.;.;.;.;.;.;.;.;.;.;.",
";.;.;.;.;.;.;.;.;.;.;.;.;.;.;.;.;.;.;.;.v c c c c c c c c c c f ( } } } } } } } } } } } ;.;.;.;.;.;.;.;.;.;.;.;.;.;.;.;.;.;.;.;.",
";.;.;.;.;.;.;.;.;.;.;.;.;.;.;.;.;.;.v c c c c c c c c c c g , > N B _ } } } } } } } } } } } ;.;.;.;.;.;.;.;.;.;.;.;.;.;.;.;.;.;.",
";.;.;.;.;.;.;.;.;.;.;.;.;.;.;.;.k c c c c c c c c c c h < > > 7 S N N A ` } } } } } } } } } } [ ;.;.;.;.;.;.;.;.;.;.;.;.;.;.;.;.",
";.;.;.;.;.;.;.;.;.;.;.;.;.;.m c c c c c c c c c c l 1 > > 4 u N ^ E C N N D ' } } } } } } } } } }  .;.;.;.;.;.;.;.;.;.;.;.;.;.;.",
";.;.;.;.;.;.;.;.;.;.;.;.;.c c c c c c c c c c z 2 > > > r N N N ^ ^ ^ Y N N N H ] } } } } } } } } } } ;.;.;.;.;.;.;.;.;.;.;.;.;.",
";.;.;.;.;.;.;.;.;.;.;.;.;.c c c c c c c c x s > > > e N N N N N ^ ^ ^ ^ ^ I N N N J { } } } } } } } } ;.;.;.;.;.;.;.;.;.;.;.;.;.",
";.;.;.;.;.;.;.;.;.;.;.;.;.v c c c c c c d > > > 0 N N N N N N N ^ ^ ^ ^ ^ ^ ^ P N N N K } } } } } } } ;.;.;.;.;.;.;.;.;.;.;.;.;.",
";.;.;.;.;.;.;.;.;.;.;.;.;.;.c c c c a > > > 9 N N N N N N N N N ^ ^ ^ ^ ^ ^ ^ ^ ^ G N N N ) } } } } ;.;.;.;.;.;.;.;.;.;.;.;.;.;.",
";.;.;.;.;.;.;.;.;.;.;.;.;.;.n c v 3 > > 8 M N N N N N N N N N y R ^ ^ ^ ^ ^ ^ ^ ^ ^ ~ F N N V | } [ ;.;.;.;.;.;.;.;.;.;.;.;.;.;.",
";.;.;.;.;.;.;.;.;.;.;.;.;.;.;.;.;.> 6 p N N N N N N N N i +     o o $ Q ^ ^ ^ ^ ^ ^ ^ ^ ! Z N ;.;.;.;.;.;.;.;.;.;.;.;.;.;.;.;.;.",
";.;.;.;.;.;.;.;.;.;.;.;.;.;.;.;.;.t N N N N N N N N N w         o o o o U ^ ^ ^ ^ ^ ^ ^ ^ ^ T ;.;.;.;.;.;.;.;.;.;.;.;.;.;.;.;.;.",
";.;.;.;.;.;.;.;.;.;.;.;.;.;.;.;.;.N N N N N N N N N N           o o o o o ^ ^ ^ ^ ^ ^ ^ ^ ^ ^ ;.;.;.;.;.;.;.;.;.;.;.;.;.;.;.;.;.",
";.;.;.;.;.;.;.;.;.;.;.;.;.;.;.;.;.N N N N N N N N N *           o o o o o : ^ ^ ^ ^ ^ ^ ^ ^ ^ ;.;.;.;.;.;.;.;.;.;.;.;.;.;.;.;.;.",
";.;.;.;.;.;.;.;.;.;.;.;.;.;.;.;.;.N N N N N N N N N .           o o o o o O ^ ^ ^ ^ ^ ^ ^ ^ ^ ;.;.;.;.;.;.;.;.;.;.;.;.;.;.;.;.;.",
";.;.;.;.;.;.;.;.;.;.;.;.;.;.;.;.;.N N N N N N N N N             o o o o o o ^ ^ ^ ^ ^ ^ ^ ^ ^ ;.;.;.;.;.;.;.;.;.;.;.;.;.;.;.;.;.",
";.;.;.;.;.;.;.;.;.;.;.;.;.;.;.;.;.N N N N N N N N N             o o o o o o ^ ^ ^ ^ ^ ^ ^ ^ ^ ;.;.;.;.;.;.;.;.;.;.;.;.;.;.;.;.;.",
";.;.;.;.;.;.;.;.;.;.;.;.;.;.;.;.;.N N N N N N N N N X           o o o o o @ ^ ^ ^ ^ ^ ^ ^ ^ ^ ;.;.;.;.;.;.;.;.;.;.;.;.;.;.;.;.;.",
";.;.;.;.;.;.;.;.;.;.;.;.;.;.;.;.;.N N N N N N N N N q           o o o o o L ^ ^ ^ ^ ^ ^ ^ ^ ^ ;.;.;.;.;.;.;.;.;.;.;.;.;.;.;.;.;.",
";.;.;.;.;.;.;.;.;.;.;.;.;.;.;.;.;.N N N N N N N N N N #         o o o o - ^ ^ ^ ^ ^ ^ ^ ^ ^ ^ ;.;.;.;.;.;.;.;.;.;.;.;.;.;.;.;.;.",
";.;.;.;.;.;.;.;.;.;.;.;.;.;.;.;.;.N N N N N N N N N N N &       o o o ; ^ ^ ^ ^ ^ ^ ^ ^ ^ ^ ^ ;.;.;.;.;.;.;.;.;.;.;.;.;.;.;.;.;.",
";.;.;.;.;.;.;.;.;.;.;.;.;.;.;.;.;.N N N N N N N N N N N N i = + % 5 W ^ ^ ^ ^ ^ ^ ^ ^ ^ ^ ^ ^ ;.;.;.;.;.;.;.;.;.;.;.;.;.;.;.;.;.",
";.;.;.;.;.;.;.;.;.;.;.;.;.;.;.;.;.N N N N N N N N N N N N N N N ^ ^ ^ ^ ^ ^ ^ ^ ^ ^ ^ ^ ^ ^ ^ ;.;.;.;.;.;.;.;.;.;.;.;.;.;.;.;.;.",
";.;.;.;.;.;.;.;.;.;.;.;.;.;.;.;.;.N N N N N N N N N N N N N N N ^ ^ ^ ^ ^ ^ ^ ^ ^ ^ ^ ^ ^ ^ ^ ;.;.;.;.;.;.;.;.;.;.;.;.;.;.;.;.;.",
";.;.;.;.;.;.;.;.;.;.;.;.;.;.;.;.;.N N N N N N N N N N N N N S O.*./ ^ ^ ^ ^ ^ ^ ^ ^ ^ ^ ^ ^ ^ ;.;.;.;.;.;.;.;.;.;.;.;.;.;.;.;.;.",
";.;.;.;.;.;.;.;.;.;.;.;.;.;.;.;.;.N N N N N N N N N N N N N o.#.-.&.^ ^ ^ ^ ^ ^ ^ ^ ^ ^ ^ ^ ^ ;.;.;.;.;.;.;.;.;.;.;.;.;.;.;.;.;.",
";.;.;.;.;.;.;.;.;.;.;.;.;.;.;.;.;.N N N N N N N N N N N N N X.#.-.%.^ ^ ^ ^ ^ ^ ^ ^ ^ ^ ^ ^ ^ ;.;.;.;.;.;.;.;.;.;.;.;.;.;.;.;.;.",
";.;.;.;.;.;.;.;.;.;.;.;.;.;.;.;.;.N N N N N N N N N N N N N N ..$.^ ^ ^ ^ ^ ^ ^ ^ ^ ^ ^ ^ ^ ^ ;.;.;.;.;.;.;.;.;.;.;.;.;.;.;.;.;.",
";.;.;.;.;.;.;.;.;.;.;.;.;.;.;.;.;.N N N N N N N N N N N N N N N ^ ^ ^ ^ ^ ^ ^ ^ ^ ^ ^ ^ ^ ^ ^ ;.;.;.;.;.;.;.;.;.;.;.;.;.;.;.;.;.",
";.;.;.;.;.;.;.;.;.;.;.;.;.;.;.;.;.N N N N N N N N N N N N N N N ^ ^ ^ ^ ^ ^ ^ ^ ^ ^ ^ ^ ^ ^ ^ ;.;.;.;.;.;.;.;.;.;.;.;.;.;.;.;.;.",
";.;.;.;.;.;.;.;.;.;.;.;.;.;.;.;.;.N N N N N N N N N N N N N N N ^ ^ ^ ^ ^ ^ ^ ^ ^ ^ ^ ^ ^ ^ ^ ;.;.;.;.;.;.;.;.;.;.;.;.;.;.;.;.;.",
";.;.;.;.;.;.;.;.;.;.;.;.;.@.@.@.@.+.+.+.+.+.+.+.+.+.+.+.+.+.+.+.=.=.=.=.=.=.=.=.=.=.=.=.=.=.=.-.-.-.-.;.;.;.;.;.;.;.;.;.;.;.;.;.",
";.;.;.;.;.;.;.;.;.;.;.;.;.#.#.#.#.#.#.#.#.#.#.#.#.#.#.#.#.#.#.#.-.-.-.-.-.-.-.-.-.-.-.-.-.-.-.-.-.-.-.;.;.;.;.;.;.;.;.;.;.;.;.;.",
";.;.;.;.;.;.;.;.;.;.;.;.;.#.#.#.#.#.#.#.#.#.#.#.#.#.#.#.#.#.#.#.-.-.-.-.-.-.-.-.-.-.-.-.-.-.-.-.-.-.-.;.;.;.;.;.;.;.;.;.;.;.;.;.",
";.;.;.;.;.;.;.;.;.;.;.;.;.#.#.#.#.#.#.#.#.#.#.#.#.#.#.#.#.#.#.#.-.-.-.-.-.-.-.-.-.-.-.-.-.-.-.-.-.-.-.;.;.;.;.;.;.;.;.;.;.;.;.;.",
";.;.;.;.;.;.;.;.;.;.;.;.;.;.;.;.;.;.;.;.;.;.;.;.;.;.;.;.;., > > N N B ;.;.;.;.;.;.;.;.;.;.;.;.;.;.;.;.;.;.;.;.;.;.;.;.;.;.;.;.;.",
";.;.;.;.;.;.;.;.;.;.;.;.;.;.;.;.;.;.;.;.;.;.;.;.;.;.;.;.;., > > N N B ;.;.;.;.;.;.;.;.;.;.;.;.;.;.;.;.;.;.;.;.;.;.;.;.;.;.;.;.;.",
";.;.;.;.;.;.;.;.;.;.;.;.;.;.;.;.;.;.;.;.;.;.;.;.;.;.;.;.;.N N N ^ ^ ^ ;.;.;.;.;.;.;.;.;.;.;.;.;.;.;.;.;.;.;.;.;.;.;.;.;.;.;.;.;.",
";.;.;.;.;.;.;.;.;.;.;.;.;.;.;.;.;.;.;.;.;.;.;.;.;.;.;.;.;.N N N ^ ^ ^ ;.;.;.;.;.;.;.;.;.;.;.;.;.;.;.;.;.;.;.;.;.;.;.;.;.;.;.;.;.",
";.;.;.;.;.;.;.;.;.;.;.;.;.;.;.;.;.;.;.;.;.;.;.;.;.;.;.;.;.N N N ^ ^ ^ ;.;.;.;.;.;.;.;.;.;.;.;.;.;.;.;.;.;.;.;.;.;.;.;.;.;.;.;.;.",
";.;.;.;.;.;.;.;.;.;.;.;.;.;.;.;.;.;.;.;.;.;.;.;.;.;.;.;.;.N N N ^ ^ ^ ;.;.;.;.;.;.;.;.;.;.;.;.;.;.;.;.;.;.;.;.;.;.;.;.;.;.;.;.;.",
";.;.;.;.;.;.;.;.;.;.;.;.;.;.;.;.;.;.;.;.;.;.;.;.;.;.;.;.;.N N N ^ ^ ^ ;.;.;.;.;.;.;.;.;.;.;.;.;.;.;.;.;.;.;.;.;.;.;.;.;.;.;.;.;.",
";.;.;.;.;.;.;.;.;.;.;.;.;.;.;.;.;.;.;.;.;.;.;.;.;.;.;.;.;.N N N ^ ^ ^ ;.;.;.;.;.;.;.;.;.;.;.;.;.;.;.;.;.;.;.;.;.;.;.;.;.;.;.;.;.",
";.;.;.;.;.;.;.;.;.;.;.;.;.;.;.;.;.;.;.;.;.;.;.;.;.;.;.;.;.N N N ^ ^ ^ ;.;.;.;.;.;.;.;.;.;.;.;.;.;.;.;.;.;.;.;.;.;.;.;.;.;.;.;.;.",
";.;.;.;.;.;.;.;.;.;.;.;.;.;.;.;.;.;.;.;.;.;.;.;.;.;.;.;.;.N N N ^ ^ ^ ;.;.;.;.;.;.;.;.;.;.;.;.;.;.;.;.;.;.;.;.;.;.;.;.;.;.;.;.;.",
";.;.;.;.;.;.;.;.;.;.;.;.;.;.;.;.;.;.;.;.;.;.;.;.;.;.;.;.;.N N N ^ ^ ^ ;.;.;.;.;.;.;.;.;.;.;.;.;.;.;.;.;.;.;.;.;.;.;.;.;.;.;.;.;.",
";.;.;.;.;.;.;.;.;.;.;.;.;.;.;.;.;.;.;.;.;.;.;.;.;.;.;.;.;.N N N ^ ^ ^ ;.;.;.;.;.;.;.;.;.;.;.;.;.;.;.;.;.;.;.;.;.;.;.;.;.;.;.;.;.",
";.;.;.;.;.;.;.;.;.;.;.;.;.;.;.;.;.;.;.;.;.;.;.;.;.;.;.;.;.N N N ^ ^ ^ ;.;.;.;.;.;.;.;.;.;.;.;.;.;.;.;.;.;.;.;.;.;.;.;.;.;.;.;.;.",
";.;.;.;.;.;.;.;.;.;.;.;.;.;.;.;.;.;.;.;.;.;.;.;.;.;.;.;.;.N N N ^ ^ ^ ;.;.;.;.;.;.;.;.;.;.;.;.;.;.;.;.;.;.;.;.;.;.;.;.;.;.;.;.;.",
";.;.;.;.;.;.;.;.;.;.;.;.;.;.;.;.;.;.;.;.;.;.;.;.;.;.;.;.;.N N N ^ ^ ^ ;.;.;.;.;.;.;.;.;.;.;.;.;.;.;.;.;.;.;.;.;.;.;.;.;.;.;.;.;.",
";.;.;.;.;.;.;.;.;.;.;.;.;.;.;.;.;.;.;.;.;.;.;.;.;.;.;.;.;.N N N ^ ^ ^ ;.;.;.;.;.;.;.;.;.;.;.;.;.;.;.;.;.;.;.;.;.;.;.;.;.;.;.;.;.",
";.;.;.;.;.;.;.;.;.;.;.;.;.;.;.;.;.;.;.;.;.;.;.;.;.;.;.;.;.N N N ^ ^ ^ ;.;.;.;.;.;.;.;.;.;.;.;.;.;.;.;.;.;.;.;.;.;.;.;.;.;.;.;.;.",
";.;.;.;.;.;.;.;.;.;.;.;.;.;.;.;.;.;.;.;.;.;.;.;.;.;.;.;.;.N N N ^ ^ ^ ;.;.;.;.;.;.;.;.;.;.;.;.;.;.;.;.;.;.;.;.;.;.;.;.;.;.;.;.;.",
";.;.;.;.;.;.;.;.;.;.;.;.;.;.;.;.;.;.;.;.;.;.;.;.;.;.;.;.;.N N N ^ ^ ^ ;.;.;.;.;.;.;.;.;.;.;.;.;.;.;.;.;.;.;.;.;.;.;.;.;.;.;.;.;.",
";.;.;.;.;.;.;.;.;.;.;.;.;.;.;.;.;.;.;.;.;.;.;.;.;.;.;.;.;.N N N ^ ^ ^ ;.;.;.;.;.;.;.;.;.;.;.;.;.;.;.;.;.;.;.;.;.;.;.;.;.;.;.;.;.",
";.;.;.;.;.;.;.;.;.;.;.;.;.;.;.;.;.;.;.;.;.;.;.;.;.;.;.;.;.N N N ^ ^ ^ ;.;.;.;.;.;.;.;.;.;.;.;.;.;.;.;.;.;.;.;.;.;.;.;.;.;.;.;.;.",
";.;.;.;.;.;.;.;.;.;.;.;.;.;.;.;.;.;.;.;.;.;.;.;.;.;.;.;.;.N N N ^ ^ ^ ;.;.;.;.;.;.;.;.;.;.;.;.;.;.;.;.;.;.;.;.;.;.;.;.;.;.;.;.;.",
";.;.;.;.;.;.;.;.;.;.;.;.;.;.;.;.;.;.;.;.;.;.;.;.;.;.;.;.;.N N N ^ ^ ^ ;.;.;.;.;.;.;.;.;.;.;.;.;.;.;.;.;.;.;.;.;.;.;.;.;.;.;.;.;.",
";.;.;.;.;.;.;.;.;.;.;.;.;.;.;.;.;.;.;.;.;.;.;.;.;.;.;.;.;.N N N ^ ^ ^ ;.;.;.;.;.;.;.;.;.;.;.;.;.;.;.;.;.;.;.;.;.;.;.;.;.;.;.;.;."
};
