/* XPM */
static char *result[] = {
/* columns rows colors chars-per-pixel */
"64 64 173 2 ",
"   c #AC7C00",
".  c #AD7C00",
"X  c #AC7C01",
"o  c #AD7D01",
"O  c #AE7D00",
"+  c #AF7F00",
"@  c #AD7D02",
"#  c #AD7D03",
"$  c #AE7F04",
"%  c #AE7F05",
"&  c #AE7F06",
"*  c #B18000",
"=  c #B18208",
"-  c #B0820B",
";  c #B0830D",
":  c #B1830E",
">  c #B6880F",
",  c #B18410",
"<  c #B38715",
"1  c #B88A12",
"2  c #BA8D16",
"3  c #BC8F19",
"4  c #B68D20",
"5  c #B78D21",
"6  c #BA922B",
"7  c #BB942F",
"8  c #BC9530",
"9  c #BC9531",
"0  c #C89200",
"q  c #C99300",
"w  c #D19900",
"e  c #D39B00",
"r  c #E2A700",
"t  c #EAAD00",
"y  c #EDB000",
"u  c #EEB000",
"i  c #EFB100",
"p  c #F6B600",
"a  c #F7B700",
"s  c #F7B800",
"d  c #F8B800",
"f  c #F8B801",
"g  c #F8B902",
"h  c #F8B903",
"j  c #F8BA06",
"k  c #F8BA07",
"l  c #F8BA08",
"z  c #F8BA09",
"x  c #F8BB0C",
"c  c #F8BC0E",
"v  c #F8BE15",
"b  c #F8BE16",
"n  c #F8BE17",
"m  c #F8BE18",
"M  c #F8BF1A",
"N  c #C29622",
"B  c #C29723",
"V  c #C39824",
"C  c #C59E3A",
"Z  c #CCA332",
"A  c #D1A93B",
"S  c #F8C01D",
"D  c #F8C020",
"F  c #F8C120",
"G  c #F9C120",
"H  c #F8C122",
"J  c #F8C124",
"K  c #F8C42C",
"L  c #F8C42E",
"P  c #F9C52F",
"I  c #F6C430",
"U  c #F7C73C",
"Y  c #F8C73A",
"T  c #F7C83D",
"R  c #F9C83A",
"E  c #F8C83B",
"W  c #F8C83C",
"Q  c #F8C83D",
"!  c #C19D40",
"~  c #C4A149",
"^  c #C4A249",
"/  c #C4A24B",
"(  c #C5A44D",
")  c #CDAA4E",
"_  c #DBB54A",
"`  c #C7A753",
"'  c #CAAC5D",
"]  c #E2BE56",
"[  c #CCAE62",
"{  c #CFB36B",
"}  c #CFB46D",
"|  c #D5BC7D",
" . c #F8CA42",
".. c #F8CB46",
"X. c #F8CB48",
"o. c #F8CC4A",
"O. c #F8CC4C",
"+. c #F7CD52",
"@. c #F8CE54",
"#. c #F8CF55",
"$. c #F8CF56",
"%. c #F8CF58",
"&. c #FAD25D",
"*. c #FBD25D",
"=. c #EAC762",
"-. c #EBC864",
";. c #F8D260",
":. c #F8D262",
">. c #F8D365",
",. c #F1D06D",
"<. c #F8D469",
"1. c #F8D46A",
"2. c #F8D56E",
"3. c #F3D270",
"4. c #F6D574",
"5. c #F6D675",
"6. c #F6D676",
"7. c #F7D777",
"8. c #F8D671",
"9. c #F8D775",
"0. c #F8D877",
"q. c #F8D878",
"w. c #F8D879",
"e. c #F8D97A",
"r. c #F8D97B",
"t. c #F8D97C",
"y. c #D6BE80",
"u. c #D6BF82",
"i. c #D9C289",
"p. c #DCC488",
"a. c #DFCB9A",
"s. c #DFCC9B",
"d. c #DFCD9D",
"f. c #F8DA80",
"g. c #F8DB81",
"h. c #F9DC86",
"j. c #F9DC87",
"k. c #E0CD9E",
"l. c #F9E094",
"z. c #FAE29C",
"x. c #FAE39E",
"c. c #FAE39F",
"v. c #E0CEA0",
"b. c #E1CFA2",
"n. c #E6D7B2",
"m. c #E7D9B6",
"M. c #EADEBF",
"N. c #FAE4A1",
"B. c #FBE7AC",
"V. c #FBE8AE",
"C. c #EBE0C2",
"Z. c #EFE6CE",
"A. c #F0E5C6",
"S. c #FCEFC9",
"D. c #FCF0CB",
"F. c #F0E7D0",
"G. c #F0E7D1",
"H. c #F1E9D4",
"J. c #F3EDDB",
"K. c #F5EFDF",
"L. c #CAEAF4",
"P. c #FEF7E4",
"I. c #FAF7EF",
"U. c #FEFBF0",
"Y. c #FEFCF4",
"T. c #FDFCF9",
"R. c #FDFCFA",
"E. c #FDFDFA",
"W. c #FFFEFB",
"Q. c #FEFEFC",
"!. c #FFFEFC",
"~. c #FEFEFD",
"^. c white",
/* pixels */
"L.L.L.L.L.L.L.L.L.L.L.L.L.L.L.L.L.L.L.L.L.L.L.L.L.L.L.L.L.L.L.L.L.L.L.L.L.L.L.L.L.L.L.L.L.L.L.L.L.L.L.L.L.L.L.L.L.L.L.L.L.L.L.L.",
"L.L.L.L.L.L.L.L.L.L.L.L.L.L.L.L.L.L.L.L.L.L.L.L.L.L.L.L.L.L.L.L.L.L.L.L.L.L.L.L.L.L.L.L.L.L.L.L.L.L.L.L.L.L.L.L.L.L.L.L.L.L.L.L.",
"L.L.L.L.L.L.L.L.L.L.L.L.L.L.L.L.L.L.L.L.L.L.L.L.L.L.L.L.L.L.L.L.L.L.L.L.L.L.L.L.L.L.L.L.L.L.L.L.L.L.L.L.L.L.L.L.L.L.L.L.L.L.L.L.",
"L.L.L.L.L.L.L.L.L.L.L.L.L.L.L.L.L.L.L.L.L.L.L.L.L.L.L.L.L.L.L.L.L.L.L.L.L.L.L.L.L.L.L.L.L.L.L.L.L.L.L.L.L.L.L.L.L.L.L.L.L.L.L.L.",
"L.L.L.L.L.L.L.L.L.L.L.L.L.L.L.L.L.L.L.L.L.L.L.L.L.L.L.L.L.L.L.L.L.L.L.L.L.L.L.L.L.L.L.L.L.L.L.L.L.L.L.L.L.L.L.L.L.L.L.L.L.L.L.L.",
"L.L.L.L.L.L.L.L.L.L.L.L.L.L.L.L.L.L.L.L.L.L.L.L.L.L.L.L.L.L.L.L.L.L.L.L.L.L.L.L.L.L.L.L.L.L.L.L.L.L.L.L.L.L.L.L.L.L.L.L.L.L.L.L.",
"L.L.L.L.L.L.L.L.L.L.L.L.L.L.L.L.L.L.L.L.L.L.L.L.L.L.L.L.L.L.L.L.L.L.L.L.L.L.L.L.L.L.L.L.L.L.L.L.L.L.L.L.L.L.L.L.L.L.L.L.L.L.L.L.",
"L.L.L.L.L.L.L.L.L.L.L.L.L.L.L.L.L.L.L.L.L.L.L.L.L.&                               L.L.L.L.L.L.L.L.L.L.L.L.L.L.L.L.L.L.L.L.L.L.L.",
"L.L.L.L.L.L.L.L.L.L.L.L.L.L.L.L.L.L.L.L.L.L.L.L.F.&                               F.F.L.L.L.L.L.L.L.L.L.L.L.L.L.L.L.L.L.L.L.L.L.",
"L.L.L.L.L.L.L.L.L.L.L.L.L.L.L.L.L.L.L.L.L.@ @ @ @ 4.7.7.7.7.7.7.7.7.7.7.7.7.4.    @ @ @ @ 9 L.L.L.L.L.L.L.L.L.L.L.L.L.L.L.L.L.L.",
"L.L.L.L.L.L.L.L.L.L.L.L.L.L.L.L.L.L.L.L.m.        5.q.q.q.q.q.q.q.q.q.q.q.q.5.            7 L.L.L.L.L.L.L.L.L.L.L.L.L.L.L.L.L.L.",
"L.L.L.L.L.L.L.L.L.L.L.L.L.L.L.L.L.L.{ ^ ) ] ] ] ] J H H H H H H H H H H H H J ] ] ] ] 3   ; ^ ^ L.L.L.L.L.L.L.L.L.L.L.L.L.L.L.L.",
"L.L.L.L.L.L.L.L.L.L.L.L.L.L.L.L.L.L.7   N q.q.q.q.h d d d d d d d d d d d d h q.q.q.q.N         L.L.L.L.L.L.L.L.L.L.L.L.L.L.L.L.",
"L.L.L.L.L.L.L.L.L.L.L.L.L.L.L.L.L.F.C 2 Z q.q.:.:.h d i t t t t t t t t i d h :.:.q.q.Z 2 1     F.L.L.L.L.L.L.L.L.L.L.L.L.L.L.L.",
"L.L.L.L.L.L.L.L.L.L.L.L.L.L.L.L.    =.q.q.q.0.d d d d q                 q d d d d 0.q.q.q.=.        L.L.L.L.L.L.L.L.L.L.L.L.L.L.",
"L.L.L.L.L.L.L.L.L.L.L.L.L.L.L.L.    =.q.q.q.0.d d d d q                 q d d d d 0.q.q.q.=.        F.L.L.L.L.L.L.L.L.L.L.L.L.L.",
"L.L.L.L.L.L.L.L.L.L.L.L.L.L.    q.q.q.q.$.d d d d O   _ q.q.q.q.q.q.q.q._   O d d d d $.q.q.q.q.        | L.L.L.L.L.L.L.L.L.L.L.",
"L.L.L.L.L.L.L.L.L.L.L.L.L.L.    q.q.q.q.$.d d d d O   _ q.q.q.q.q.q.q.q._   O d d d d $.q.q.q.q.        | L.L.L.L.L.L.L.L.L.L.L.",
"L.L.L.L.L.L.L.L.L.L.L.L.L.L.    q.q.S l j d s * * ,.3.I l v q.q.q.q.v l I 3.,.* * s d j l S q.q.        | L.L.L.L.L.L.L.L.L.L.L.",
"L.L.L.L.L.L.L.L.L.L.L.L.L.F.    q.q.b d d d s     5.q.L d c q.q.q.q.c d L q.5.    s d d d b q.q.        | L.L.L.L.L.L.L.L.L.L.L.",
"L.L.L.L.L.L.L.L.L.L.L.M.u.u.| | q.q.b d y e e A A T Q m d k Q Q q.q. .E W Q U w w e e y d b q.q.A A $   ! u.i.L.L.L.L.L.L.L.L.L.",
"L.L.L.L.L.L.L.L.L.L.L.|   , ^.^.q.q.b d r   o q.q.h d d d d d d q.q.q.q.o.d d d d .   r d b q.q.q.q.=       : L.L.L.L.L.L.L.L.L.",
"L.L.L.L.L.L.L.L.L.L.L.|   , ^.^.f.f.n d r   o q.q.h d d d d d d 8.8.q.q.O.k k d d .   r d b q.q.q.q.=       : L.L.L.L.L.L.L.L.L.",
"L.L.L.L.L.L.L.L.L.L.L.|   , ^.^.^.^.P d r   o q.q.h d d d d d d d d 1.q.q.q.9.d d .   r d b q.q.q.q.=       : L.L.L.L.L.L.L.L.L.",
"L.L.L.L.L.L.L.L.L.L.L.|   , ^.^.^.^.P d r   o q.q.h d d d d d d d d 1.q.q.q.9.d d .   r d b q.q.q.q.=       : L.L.L.L.L.L.L.L.L.",
"L.L.L.L.L.L.L.L.L.L.L.|   , ^.^.^.^.P d r   o q.q.q.q.L d d d d d d d d L q.q.q.q.o   r d b q.q.q.q.=       : L.L.L.L.L.L.L.L.L.",
"L.L.L.L.L.L.L.L.L.L.L.|   , ^.^.^.^.P d r   o q.q.q.q.L d d d d d d d d L q.q.q.q.o   r d b q.q.q.q.=       : L.L.L.L.L.L.L.L.L.",
"L.L.L.L.L.L.L.L.L.L.L.|   , ^.^.^.^.P d r   @ P.P.r.q.<.;.#.d d d d d d z m M q.q.o   r d b q.q.q.q.=       : L.L.L.L.L.L.L.L.L.",
"L.L.L.L.L.L.L.L.L.L.L.|   , ^.^.^.^.P d r   @ ^.^.r.q.q.q.1.d d d d d d d d h q.q.o   r d b q.q.q.q.=       : L.L.L.L.L.L.L.L.L.",
"L.L.L.L.L.L.L.L.L.L.L.|   , ^.^.^.^.P d r   @ ^.^.c.z.h.q.2.F F d d d d d d g %.%.o   r d b q.q.q.q.=       : L.L.L.L.L.L.L.L.L.",
"L.L.L.L.L.L.L.L.L.L.L.|   , ^.^.^.^.P d r   @ ^.^.^.^.B.q.q.q.q.d d d d d d d d d .   r d b q.q.q.q.=       : L.L.L.L.L.L.L.L.L.",
"L.L.L.L.L.L.L.L.L.L.L.|   , ^.^.^.^.P d r   @ ^.^.^.^.B.w.w.q.q.f f d d d d d d d .   r d b q.q.q.q.=       : L.L.L.L.L.L.L.L.L.",
"L.L.L.L.L.L.L.L.L.L.L.|   , ^.^.^.^.P d r   @ ^.^.^.^.^.^.U.q.q.q.q.c d d d d d d .   r d b q.q.q.q.=       : L.L.L.L.L.L.L.L.L.",
"L.L.L.L.L.L.L.L.L.L.L.|   , ^.^.^.^.P d r   @ ^.^.^.^.^.^.U.q.q.q.q.c d d d d d d .   r d b q.q.q.q.=       : L.L.L.L.L.L.L.L.L.",
"L.L.L.L.L.L.L.L.L.L.L.|   = t.t.^.^.P d r   @ ^.^.^.^.^.^.^.W.W.q.q.9.9.X.d d d d .   r d b q.q.q.q.=       : L.L.L.L.L.L.L.L.L.",
"L.L.L.L.L.L.L.L.L.L.L.|   = q.q.^.^.P d r   @ ^.^.^.^.^.^.^.^.^.q.q.q.q.o.d d d d .   r d b q.q.q.q.=       : L.L.L.L.L.L.L.L.L.",
"L.L.L.L.L.L.L.L.L.L.L.|   = q.q.V.V.G d r   @ ^.^.^.^.^.^.^.^.^.S.S.g.q.>.X...d d .   r d b q.q.q.q.=       : L.L.L.L.L.L.L.L.L.",
"L.L.L.L.L.L.L.L.L.L.L.|   = q.q.q.q.b d r   @ ^.^.^.^.^.^.^.^.^.^.^.j.q.q.q.9.d d .   r d b q.q.q.q.=       : L.L.L.L.L.L.L.L.L.",
"L.L.L.L.L.L.L.L.L.L.L.|   = q.q.q.q.b d r   @ ^.^.^.^.^.^.^.^.^.^.^.l.h.g.q.9.x x .   r d b q.q.q.q.=       : L.L.L.L.L.L.L.L.L.",
"L.L.L.L.L.L.L.L.L.L.L.|   = q.q.q.q.b d r   @ ^.^.^.^.^.^.^.^.^.^.^.^.^.D.q.q.q.q.o   r d b q.q.q.q.=       : L.L.L.L.L.L.L.L.L.",
"L.L.L.L.L.L.L.L.L.L.L.|   = q.q.q.q.b d r   @ ^.^.^.^.^.^.^.^.^.^.^.^.^.D.q.q.q.q.o   r d b q.q.q.q.=       : L.L.L.L.L.L.L.L.L.",
"L.L.L.L.L.L.L.L.L.L.L.|   = q.q.q.q.b d r   @ ^.^.^.^.^.^.^.^.^.^.^.^.^.^.^.!.q.q.o   r d b q.q.q.q.=       : L.L.L.L.L.L.L.L.L.",
"L.L.L.L.L.L.L.L.L.L.L.|   = q.q.q.q.b d r   @ ^.^.^.^.^.^.^.^.^.^.^.^.^.^.^.!.q.q.o   r d b q.q.q.q.=       : L.L.L.L.L.L.L.L.L.",
"L.L.L.L.L.L.L.L.L.L.L.L.K.G.> > q.q.b d p u u 4 4 T.^.^.^.^.^.^.^.^.^.^.^.^.T.> > u u p d b q.q.> > X   } K.L.L.L.L.L.L.L.L.L.L.",
"L.L.L.L.L.L.L.L.L.L.L.L.L.I.    q.q.b d d d s     T.^.^.^.^.^.^.^.^.^.^.^.^.T.    s d d d b q.q.        | F.L.L.L.L.L.L.L.L.L.L.",
"L.L.L.L.L.L.L.L.L.L.L.L.L.L.    q.q.Y K D d d 0 0 k.b.J.^.^.^.^.^.^.^.^.J.b.v.' ' &.*.R K Y q.q.        | L.L.L.L.L.L.L.L.L.L.L.",
"L.L.L.L.L.L.L.L.L.L.L.L.L.L.    q.q.q.q.$.d d d d O   d.^.^.^.^.^.^.^.^.d.  & ^.^.^.^.x.q.q.q.q.        | L.L.L.L.L.L.L.L.L.L.L.",
"L.L.L.L.L.L.L.L.L.L.L.L.L.L.% % 6.6.q.q.$.g g d d + O a.R.R.R.R.R.R.R.R.s.% - ^.^.^.^.N.r.e.6.6.    % % y.L.L.L.L.L.L.L.L.L.L.L.",
"L.L.L.L.L.L.L.L.L.L.L.L.L.L.L.L.    =.q.q.q.0.d d d d q                 [ ^.^.^.^.^.^.^.^.F.        F.L.L.L.L.L.L.L.L.L.L.L.L.L.",
"L.L.L.L.L.L.L.L.L.L.L.L.L.L.L.L.    =.q.q.q.0.d d d d q                 [ ^.^.^.^.^.^.^.^.F.        L.L.L.L.L.L.L.L.L.L.L.L.L.L.",
"L.L.L.L.L.L.L.L.L.L.L.L.L.L.L.L.L.L.8 o B q.q.0.0.h d s a a a a Q.Q.Q.Q.~.^.^.^.^.^.^./ # @     F.L.L.L.L.L.L.L.L.L.L.L.L.L.L.L.",
"L.L.L.L.L.L.L.L.L.L.L.L.L.L.L.L.L.L.7   N q.q.q.q.h d d d d d d ^.^.^.^.^.^.^.^.^.^.^.~         L.L.L.L.L.L.L.L.L.L.L.L.L.L.L.L.",
"L.L.L.L.L.L.L.L.L.L.L.L.L.L.L.L.L.L.M.n.p.V V V V +.@.@.@.@.@.@.N.N.Y.^.^.^.E.( ( ( ( <   5 n.n.L.L.L.L.L.L.L.L.L.L.L.L.L.L.L.L.",
"L.L.L.L.L.L.L.L.L.L.L.L.L.L.L.L.L.L.L.L.m.        5.q.q.q.q.q.q.q.q.U.^.^.^.T.            7 L.L.L.L.L.L.L.L.L.L.L.L.L.L.L.L.L.L.",
"L.L.L.L.L.L.L.L.L.L.L.L.L.L.L.L.L.L.L.L.C.6 6 6 6 =.-.-.-.-.-.-.-.-.A.H.H.H.Z.    6 6 6 6 ` L.L.L.L.L.L.L.L.L.L.L.L.L.L.L.L.L.L.",
"L.L.L.L.L.L.L.L.L.L.L.L.L.L.L.L.L.L.L.L.L.L.L.L.F.&                               F.L.L.L.L.L.L.L.L.L.L.L.L.L.L.L.L.L.L.L.L.L.L.",
"L.L.L.L.L.L.L.L.L.L.L.L.L.L.L.L.L.L.L.L.L.L.L.L.L.&                               L.L.L.L.L.L.L.L.L.L.L.L.L.L.L.L.L.L.L.L.L.L.L.",
"L.L.L.L.L.L.L.L.L.L.L.L.L.L.L.L.L.L.L.L.L.L.L.L.L.L.L.L.L.L.L.L.L.L.L.L.L.L.L.L.L.L.L.L.L.L.L.L.L.L.L.L.L.L.L.L.L.L.L.L.L.L.L.L.",
"L.L.L.L.L.L.L.L.L.L.L.L.L.L.L.L.L.L.L.L.L.L.L.L.L.L.L.L.L.L.L.L.L.L.L.L.L.L.L.L.L.L.L.L.L.L.L.L.L.L.L.L.L.L.L.L.L.L.L.L.L.L.L.L.",
"L.L.L.L.L.L.L.L.L.L.L.L.L.L.L.L.L.L.L.L.L.L.L.L.L.L.L.L.L.L.L.L.L.L.L.L.L.L.L.L.L.L.L.L.L.L.L.L.L.L.L.L.L.L.L.L.L.L.L.L.L.L.L.L.",
"L.L.L.L.L.L.L.L.L.L.L.L.L.L.L.L.L.L.L.L.L.L.L.L.L.L.L.L.L.L.L.L.L.L.L.L.L.L.L.L.L.L.L.L.L.L.L.L.L.L.L.L.L.L.L.L.L.L.L.L.L.L.L.L.",
"L.L.L.L.L.L.L.L.L.L.L.L.L.L.L.L.L.L.L.L.L.L.L.L.L.L.L.L.L.L.L.L.L.L.L.L.L.L.L.L.L.L.L.L.L.L.L.L.L.L.L.L.L.L.L.L.L.L.L.L.L.L.L.L.",
"L.L.L.L.L.L.L.L.L.L.L.L.L.L.L.L.L.L.L.L.L.L.L.L.L.L.L.L.L.L.L.L.L.L.L.L.L.L.L.L.L.L.L.L.L.L.L.L.L.L.L.L.L.L.L.L.L.L.L.L.L.L.L.L.",
"L.L.L.L.L.L.L.L.L.L.L.L.L.L.L.L.L.L.L.L.L.L.L.L.L.L.L.L.L.L.L.L.L.L.L.L.L.L.L.L.L.L.L.L.L.L.L.L.L.L.L.L.L.L.L.L.L.L.L.L.L.L.L.L."
};
