/* XPM */
static char *result[] = {
/* columns rows colors chars-per-pixel */
"64 64 155 2 ",
"   c #AB7C00",
".  c #AC7C00",
"X  c #AD7C00",
"o  c #AC7D00",
"O  c #AC7C01",
"+  c #AD7D01",
"@  c #AE7D00",
"#  c #AF7F00",
"$  c #AD7D02",
"%  c #AD7D03",
"&  c #AE7F04",
"*  c #AE7F05",
"=  c #AE7F06",
"-  c #B18000",
";  c #B18208",
":  c #B0820B",
">  c #B0840F",
",  c #B6880F",
"<  c #B18410",
"1  c #B38715",
"2  c #B88A12",
"3  c #BA8A14",
"4  c #BB8C16",
"5  c #BA8D16",
"6  c #BC8F19",
"7  c #B68D20",
"8  c #C89200",
"9  c #C99300",
"0  c #D19900",
"q  c #D39B00",
"w  c #E2A700",
"e  c #EAAD00",
"r  c #EDB000",
"t  c #EEB000",
"y  c #EFB100",
"u  c #F6B600",
"i  c #F7B700",
"p  c #F7B800",
"a  c #F8B800",
"s  c #F8B801",
"d  c #F8B902",
"f  c #F8B903",
"g  c #F8BA06",
"h  c #F8BA07",
"j  c #F8BA08",
"k  c #F8BA09",
"l  c #F8BB0C",
"z  c #F8BC0E",
"x  c #F8BE15",
"c  c #F8BE16",
"v  c #F8BE17",
"b  c #F8BE18",
"n  c #F8BF1A",
"m  c #C09420",
"M  c #C29622",
"N  c #C29723",
"B  c #C39824",
"V  c #CCA332",
"C  c #D1A93B",
"Z  c #F8C01D",
"A  c #F8C020",
"S  c #F8C120",
"D  c #F9C120",
"F  c #F8C122",
"G  c #F8C124",
"H  c #F8C42C",
"J  c #F8C42E",
"K  c #F9C52F",
"L  c #F6C430",
"P  c #F7C73C",
"I  c #F8C73A",
"U  c #F7C83D",
"Y  c #F9C83A",
"T  c #F8C83B",
"R  c #F8C83C",
"E  c #F8C83D",
"W  c #C4A149",
"Q  c #C4A24B",
"!  c #C5A44D",
"~  c #DBB54A",
"^  c #CAAC5D",
"/  c #E2BE56",
"(  c #CCAE62",
")  c #D5BC7D",
"_  c #F8CA42",
"`  c #F8CB46",
"'  c #F8CB48",
"]  c #F8CC4A",
"[  c #F8CC4C",
"{  c #F7CD52",
"}  c #F8CE54",
"|  c #F8CF55",
" . c #F8CF56",
".. c #F8CF58",
"X. c #FAD25D",
"o. c #FBD25D",
"O. c #EAC761",
"+. c #EAC762",
"@. c #EBC864",
"#. c #F8D260",
"$. c #F8D262",
"%. c #F8D365",
"&. c #F1D06D",
"*. c #F8D469",
"=. c #F8D46A",
"-. c #F8D56E",
";. c #F3D270",
":. c #F6D574",
">. c #F6D675",
",. c #F6D676",
"<. c #F7D777",
"1. c #F8D671",
"2. c #F8D775",
"3. c #F8D877",
"4. c #F8D878",
"5. c #F8D879",
"6. c #F8D97A",
"7. c #F8D97B",
"8. c #F8D97C",
"9. c #DFCB9A",
"0. c #DFCC9B",
"q. c #DFCD9D",
"w. c #F8DA80",
"e. c #F8DB81",
"r. c #F9DC86",
"t. c #F9DC87",
"y. c #E0CD9E",
"u. c #F9E094",
"i. c #FAE29C",
"p. c #FAE39E",
"a. c #FAE39F",
"s. c #E0CEA0",
"d. c #E1CFA2",
"f. c #FAE4A1",
"g. c #FBE7AC",
"h. c #FBE8AE",
"j. c #EFE6CE",
"k. c #F0E5C6",
"l. c #FCEFC9",
"z. c #FCF0CB",
"x. c #F0E7D0",
"c. c #F1E9D4",
"v. c #F3EDDB",
"b. c #FEF7E4",
"n. c #FEFBF0",
"m. c #FEFCF4",
"M. c #FDFCF9",
"N. c #FDFCFA",
"B. c #FDFDFA",
"V. c #FFFEFB",
"C. c #FEFEFC",
"Z. c #FFFEFC",
"A. c #FEFEFD",
"S. c white",
"D. c None",
/* pixels */
"D.D.D.D.D.D.D.D.D.D.D.D.D.D.D.D.D.D.D.D.D.D.D.D.D.D.D.D.D.D.D.D.D.D.D.D.D.D.D.D.D.D.D.D.D.D.D.D.D.D.D.D.D.D.D.D.D.D.D.D.D.D.D.D.",
"D.D.D.D.D.D.D.D.D.D.D.D.D.D.D.D.D.D.D.D.D.D.D.D.D.D.D.D.D.D.D.D.D.D.D.D.D.D.D.D.D.D.D.D.D.D.D.D.D.D.D.D.D.D.D.D.D.D.D.D.D.D.D.D.",
"D.D.D.D.D.D.D.D.D.D.D.D.D.D.D.D.D.D.D.D.D.D.D.D.D.D.D.D.D.D.D.D.D.D.D.D.D.D.D.D.D.D.D.D.D.D.D.D.D.D.D.D.D.D.D.D.D.D.D.D.D.D.D.D.",
"D.D.D.D.D.D.D.D.D.D.D.D.D.D.D.D.D.D.D.D.D.D.D.D.D.D.D.D.D.D.D.D.D.D.D.D.D.D.D.D.D.D.D.D.D.D.D.D.D.D.D.D.D.D.D.D.D.D.D.D.D.D.D.D.",
"D.D.D.D.D.D.D.D.D.D.D.D.D.D.D.D.D.D.D.D.D.D.D.D.D.D.D.D.D.D.D.D.D.D.D.D.D.D.D.D.D.D.D.D.D.D.D.D.D.D.D.D.D.D.D.D.D.D.D.D.D.D.D.D.",
"D.D.D.D.D.D.D.D.D.D.D.D.D.D.D.D.D.D.D.D.D.D.D.D.D.D.D.D.D.D.D.D.D.D.D.D.D.D.D.D.D.D.D.D.D.D.D.D.D.D.D.D.D.D.D.D.D.D.D.D.D.D.D.D.",
"D.D.D.D.D.D.D.D.D.D.D.D.D.D.D.D.D.D.D.D.D.D.D.D.D.D.D.D.D.D.D.D.D.D.D.D.D.D.D.D.D.D.D.D.D.D.D.D.D.D.D.D.D.D.D.D.D.D.D.D.D.D.D.D.",
"D.D.D.D.D.D.D.D.D.D.D.D.D.D.D.D.D.D.D.D.D.D.D.D.D.. . . . . . . . . . . . . . . . D.D.D.D.D.D.D.D.D.D.D.D.D.D.D.D.D.D.D.D.D.D.D.",
"D.D.D.D.D.D.D.D.D.D.D.D.D.D.D.D.D.D.D.D.D.D.D.D.D.. . . . . . . . . . . . . . . . D.D.D.D.D.D.D.D.D.D.D.D.D.D.D.D.D.D.D.D.D.D.D.",
"D.D.D.D.D.D.D.D.D.D.D.D.D.D.D.D.D.D.D.D.D.. . . . :.<.<.<.<.<.<.<.<.<.<.<.<.:.. . . . . . . D.D.D.D.D.D.D.D.D.D.D.D.D.D.D.D.D.D.",
"D.D.D.D.D.D.D.D.D.D.D.D.D.D.D.D.D.D.D.D.D.. . . . >.4.4.4.4.4.4.4.4.4.4.4.4.>.. . . . . . . D.D.D.D.D.D.D.D.D.D.D.D.D.D.D.D.D.D.",
"D.D.D.D.D.D.D.D.D.D.D.D.D.D.D.D.D.D.. o m / / / / G F F F F F F F F F F F F G / / / / 6 . . o o D.D.D.D.D.D.D.D.D.D.D.D.D.D.D.D.",
"D.D.D.D.D.D.D.D.D.D.D.D.D.D.D.D.D.D.. . M 4.4.4.4.f a a a a a a a a a a a a f 4.4.4.4.M . . . . D.D.D.D.D.D.D.D.D.D.D.D.D.D.D.D.",
"D.D.D.D.D.D.D.D.D.D.D.D.D.D.D.D.D.D.4 5 V 4.4.$.$.f a y e e e e e e e e y a f $.$.4.4.V 5 2 . . D.D.D.D.D.D.D.D.D.D.D.D.D.D.D.D.",
"D.D.D.D.D.D.D.D.D.D.D.D.D.D.D.D.. . +.4.4.4.3.a a a a 9 . . . . . . . . 9 a a a a 3.4.4.4.+.. . . . D.D.D.D.D.D.D.D.D.D.D.D.D.D.",
"D.D.D.D.D.D.D.D.D.D.D.D.D.D.D.D.. . +.4.4.4.3.a a a a 9 . . . . . . . . 9 a a a a 3.4.4.4.+.. . . . D.D.D.D.D.D.D.D.D.D.D.D.D.D.",
"D.D.D.D.D.D.D.D.D.D.D.D.D.D.. . 4.4.4.4. .a a a a @ . ~ 4.4.4.4.4.4.4.4.~ . @ a a a a  .4.4.4.4.. . . . X D.D.D.D.D.D.D.D.D.D.D.",
"D.D.D.D.D.D.D.D.D.D.D.D.D.D.. . 4.4.4.4. .a a a a @ . ~ 4.4.4.4.4.4.4.4.~ . @ a a a a  .4.4.4.4.. . . . X D.D.D.D.D.D.D.D.D.D.D.",
"D.D.D.D.D.D.D.D.D.D.D.D.D.D.. . 4.4.Z j g a p - - &.;.L j x 4.4.4.4.x j L ;.&.- - p a g j Z 4.4.. . . . X D.D.D.D.D.D.D.D.D.D.D.",
"D.D.D.D.D.D.D.D.D.D.D.D.D.D.. . 4.4.c a a a p . . >.4.J a z 4.4.4.4.z a J 4.>.. . p a a a c 4.4.. . . . X D.D.D.D.D.D.D.D.D.D.D.",
"D.D.D.D.D.D.D.D.D.D.D.D.D.> ) ) 4.4.c a r q q C C U E b a h E E 4.4._ T R E P 0 0 q q r a c 4.4.C C & . . D.D.D.D.D.D.D.D.D.D.D.",
"D.D.D.D.D.D.D.D.D.D.D.X . < S.S.4.4.c a w . + 4.4.f a a a a a a 4.4.4.4.] a a a a X . w a c 4.4.4.4.; . . . . D.D.D.D.D.D.D.D.D.",
"D.D.D.D.D.D.D.D.D.D.D.X . < S.S.w.w.v a w . + 4.4.f a a a a a a 1.1.4.4.[ h h a a X . w a c 4.4.4.4.; . . . . D.D.D.D.D.D.D.D.D.",
"D.D.D.D.D.D.D.D.D.D.D.X . < S.S.S.S.K a w . + 4.4.f a a a a a a a a =.4.4.4.2.a a X . w a c 4.4.4.4.; . . . . D.D.D.D.D.D.D.D.D.",
"D.D.D.D.D.D.D.D.D.D.D.X . < S.S.S.S.K a w . + 4.4.f a a a a a a a a =.4.4.4.2.a a X . w a c 4.4.4.4.; . . . . D.D.D.D.D.D.D.D.D.",
"D.D.D.D.D.D.D.D.D.D.D.X . < S.S.S.S.K a w . + 4.4.4.4.J a a a a a a a a J 4.4.4.4.+ . w a c 4.4.4.4.; . . . . D.D.D.D.D.D.D.D.D.",
"D.D.D.D.D.D.D.D.D.D.D.X . < S.S.S.S.K a w . + 4.4.4.4.J a a a a a a a a J 4.4.4.4.+ . w a c 4.4.4.4.; . . . . D.D.D.D.D.D.D.D.D.",
"D.D.D.D.D.D.D.D.D.D.D.X . < S.S.S.S.K a w . $ b.b.7.4.*.#.| a a a a a a k b n 4.4.+ . w a c 4.4.4.4.; . . . . D.D.D.D.D.D.D.D.D.",
"D.D.D.D.D.D.D.D.D.D.D.X . < S.S.S.S.K a w . $ S.S.7.4.4.4.=.a a a a a a a a f 4.4.+ . w a c 4.4.4.4.; . . . . D.D.D.D.D.D.D.D.D.",
"D.D.D.D.D.D.D.D.D.D.D.X . < S.S.S.S.K a w . $ S.S.a.i.r.4.-.S S a a a a a a d ....+ . w a c 4.4.4.4.; . . . . D.D.D.D.D.D.D.D.D.",
"D.D.D.D.D.D.D.D.D.D.D.X . < S.S.S.S.K a w . $ S.S.S.S.g.4.4.4.4.a a a a a a a a a X . w a c 4.4.4.4.; . . . . D.D.D.D.D.D.D.D.D.",
"D.D.D.D.D.D.D.D.D.D.D.X . < S.S.S.S.K a w . $ S.S.S.S.g.5.5.4.4.s s a a a a a a a X . w a c 4.4.4.4.; . . . . D.D.D.D.D.D.D.D.D.",
"D.D.D.D.D.D.D.D.D.D.D.X . < S.S.S.S.K a w . $ S.S.S.S.S.S.n.4.4.4.4.z a a a a a a X . w a c 4.4.4.4.; . . . . D.D.D.D.D.D.D.D.D.",
"D.D.D.D.D.D.D.D.D.D.D.X . < S.S.S.S.K a w . $ S.S.S.S.S.S.n.4.4.4.4.z a a a a a a X . w a c 4.4.4.4.; . . . . D.D.D.D.D.D.D.D.D.",
"D.D.D.D.D.D.D.D.D.D.D.X . ; 8.8.S.S.K a w . $ S.S.S.S.S.S.S.V.V.4.4.2.2.' a a a a X . w a c 4.4.4.4.; . . . . D.D.D.D.D.D.D.D.D.",
"D.D.D.D.D.D.D.D.D.D.D.X . ; 4.4.S.S.K a w . $ S.S.S.S.S.S.S.S.S.4.4.4.4.] a a a a X . w a c 4.4.4.4.; . . . . D.D.D.D.D.D.D.D.D.",
"D.D.D.D.D.D.D.D.D.D.D.X . ; 4.4.h.h.D a w . $ S.S.S.S.S.S.S.S.S.l.l.e.4.%.' ` a a X . w a c 4.4.4.4.; . . . . D.D.D.D.D.D.D.D.D.",
"D.D.D.D.D.D.D.D.D.D.D.X . ; 4.4.4.4.c a w . $ S.S.S.S.S.S.S.S.S.S.S.t.4.4.4.2.a a X . w a c 4.4.4.4.; . . . . D.D.D.D.D.D.D.D.D.",
"D.D.D.D.D.D.D.D.D.D.D.X . ; 4.4.4.4.c a w . $ S.S.S.S.S.S.S.S.S.S.S.u.r.e.4.2.l l X . w a c 4.4.4.4.; . . . . D.D.D.D.D.D.D.D.D.",
"D.D.D.D.D.D.D.D.D.D.D.X . ; 4.4.4.4.c a w . $ S.S.S.S.S.S.S.S.S.S.S.S.S.z.4.4.4.4.+ . w a c 4.4.4.4.; . . . . D.D.D.D.D.D.D.D.D.",
"D.D.D.D.D.D.D.D.D.D.D.X . ; 4.4.4.4.c a w . $ S.S.S.S.S.S.S.S.S.S.S.S.S.z.4.4.4.4.+ . w a c 4.4.4.4.; . . . . D.D.D.D.D.D.D.D.D.",
"D.D.D.D.D.D.D.D.D.D.D.X . ; 4.4.4.4.c a w . $ S.S.S.S.S.S.S.S.S.S.S.S.S.S.S.Z.4.4.+ . w a c 4.4.4.4.; . . . . D.D.D.D.D.D.D.D.D.",
"D.D.D.D.D.D.D.D.D.D.D.X . ; 4.4.4.4.c a w . $ S.S.S.S.S.S.S.S.S.S.S.S.S.S.S.Z.4.4.+ . w a c 4.4.4.4.; . . . . D.D.D.D.D.D.D.D.D.",
"D.D.D.D.D.D.D.D.D.D.D.D.D.D., , 4.4.c a u t t 7 7 M.S.S.S.S.S.S.S.S.S.S.S.S.M., , t t u a c 4.4., , O .   D.D.D.D.D.D.D.D.D.D.D.",
"D.D.D.D.D.D.D.D.D.D.D.D.D.D.. . 4.4.c a a a p . . M.S.S.S.S.S.S.S.S.S.S.S.S.M.. . p a a a c 4.4.. . . . X D.D.D.D.D.D.D.D.D.D.D.",
"D.D.D.D.D.D.D.D.D.D.D.D.D.D.. . 4.4.I H A a a 8 8 y.d.v.S.S.S.S.S.S.S.S.v.d.s.^ ^ X.o.Y H I 4.4.. . . . X D.D.D.D.D.D.D.D.D.D.D.",
"D.D.D.D.D.D.D.D.D.D.D.D.D.D.. . 4.4.4.4. .a a a a @ . q.S.S.S.S.S.S.S.S.q.. = S.S.S.S.p.4.4.4.4.. . . . X D.D.D.D.D.D.D.D.D.D.D.",
"D.D.D.D.D.D.D.D.D.D.D.D.D.D.. . ,.,.4.4. .d d a a # @ 9.N.N.N.N.N.N.N.N.0.* : S.S.S.S.f.7.6.,.,.. . . . D.D.D.D.D.D.D.D.D.D.D.D.",
"D.D.D.D.D.D.D.D.D.D.D.D.D.D.D.D.. . +.4.4.4.3.a a a a 9 . . . . . . . . ( S.S.S.S.S.S.S.S.x.. . . . D.D.D.D.D.D.D.D.D.D.D.D.D.D.",
"D.D.D.D.D.D.D.D.D.D.D.D.D.D.D.D.. . +.4.4.4.3.a a a a 9 . . . . . . . . ( S.S.S.S.S.S.S.S.x.. . . . D.D.D.D.D.D.D.D.D.D.D.D.D.D.",
"D.D.D.D.D.D.D.D.D.D.D.D.D.D.D.D.D.D.+ + N 4.4.3.3.f a p i i i i C.C.C.C.A.S.S.S.S.S.S.Q % $ . . D.D.D.D.D.D.D.D.D.D.D.D.D.D.D.D.",
"D.D.D.D.D.D.D.D.D.D.D.D.D.D.D.D.D.D.. . M 4.4.4.4.f a a a a a a S.S.S.S.S.S.S.S.S.S.S.W . . . . D.D.D.D.D.D.D.D.D.D.D.D.D.D.D.D.",
"D.D.D.D.D.D.D.D.D.D.D.D.D.D.D.D.D.D.D.D.3 B B B B { } } } } } } f.f.m.S.S.S.B.! ! ! ! 1 . . D.D.D.D.D.D.D.D.D.D.D.D.D.D.D.D.D.D.",
"D.D.D.D.D.D.D.D.D.D.D.D.D.D.D.D.D.D.D.D.D.. . . . >.4.4.4.4.4.4.4.4.n.S.S.S.M.. . . . . . . D.D.D.D.D.D.D.D.D.D.D.D.D.D.D.D.D.D.",
"D.D.D.D.D.D.D.D.D.D.D.D.D.D.D.D.D.D.D.D.D.. . . . O.@.@.@.@.@.@.@.@.k.c.c.c.j.. . . . . . o D.D.D.D.D.D.D.D.D.D.D.D.D.D.D.D.D.D.",
"D.D.D.D.D.D.D.D.D.D.D.D.D.D.D.D.D.D.D.D.D.D.D.D.D.. . . . . . . . . . . . . . . . D.D.D.D.D.D.D.D.D.D.D.D.D.D.D.D.D.D.D.D.D.D.D.",
"D.D.D.D.D.D.D.D.D.D.D.D.D.D.D.D.D.D.D.D.D.D.D.D.D.. . . . . . . . . . . . . . . . D.D.D.D.D.D.D.D.D.D.D.D.D.D.D.D.D.D.D.D.D.D.D.",
"D.D.D.D.D.D.D.D.D.D.D.D.D.D.D.D.D.D.D.D.D.D.D.D.D.D.D.D.D.D.D.D.D.D.D.D.D.D.D.D.D.D.D.D.D.D.D.D.D.D.D.D.D.D.D.D.D.D.D.D.D.D.D.D.",
"D.D.D.D.D.D.D.D.D.D.D.D.D.D.D.D.D.D.D.D.D.D.D.D.D.D.D.D.D.D.D.D.D.D.D.D.D.D.D.D.D.D.D.D.D.D.D.D.D.D.D.D.D.D.D.D.D.D.D.D.D.D.D.D.",
"D.D.D.D.D.D.D.D.D.D.D.D.D.D.D.D.D.D.D.D.D.D.D.D.D.D.D.D.D.D.D.D.D.D.D.D.D.D.D.D.D.D.D.D.D.D.D.D.D.D.D.D.D.D.D.D.D.D.D.D.D.D.D.D.",
"D.D.D.D.D.D.D.D.D.D.D.D.D.D.D.D.D.D.D.D.D.D.D.D.D.D.D.D.D.D.D.D.D.D.D.D.D.D.D.D.D.D.D.D.D.D.D.D.D.D.D.D.D.D.D.D.D.D.D.D.D.D.D.D.",
"D.D.D.D.D.D.D.D.D.D.D.D.D.D.D.D.D.D.D.D.D.D.D.D.D.D.D.D.D.D.D.D.D.D.D.D.D.D.D.D.D.D.D.D.D.D.D.D.D.D.D.D.D.D.D.D.D.D.D.D.D.D.D.D.",
"D.D.D.D.D.D.D.D.D.D.D.D.D.D.D.D.D.D.D.D.D.D.D.D.D.D.D.D.D.D.D.D.D.D.D.D.D.D.D.D.D.D.D.D.D.D.D.D.D.D.D.D.D.D.D.D.D.D.D.D.D.D.D.D.",
"D.D.D.D.D.D.D.D.D.D.D.D.D.D.D.D.D.D.D.D.D.D.D.D.D.D.D.D.D.D.D.D.D.D.D.D.D.D.D.D.D.D.D.D.D.D.D.D.D.D.D.D.D.D.D.D.D.D.D.D.D.D.D.D."
};
