/* XPM */
static char *result[] = {
/* columns rows colors chars-per-pixel */
"64 64 204 2 ",
"   c #7B6539",
".  c #625E56",
"X  c #7D6D4D",
"o  c #736242",
"O  c #7E6F51",
"+  c #796F5B",
"@  c #776D59",
"#  c #7F7155",
"$  c #7D725C",
"%  c #726F69",
"&  c #7D7463",
"*  c #7B766B",
"=  c #7E786C",
"-  c #71706E",
";  c #7D7A74",
":  c #7D7C7A",
">  c #846935",
",  c #8A6E36",
"<  c #826A3A",
"1  c #846A37",
"2  c #8D7137",
"3  c #8D723B",
"4  c #94763B",
"5  c #97783D",
"6  c #9B7C3E",
"7  c #816C43",
"8  c #867146",
"9  c #8C7444",
"0  c #867149",
"q  c #8B764B",
"w  c #967942",
"e  c #957B48",
"r  c #827253",
"t  c #81745B",
"y  c #8D7C5C",
"u  c #897856",
"i  c #937E54",
"p  c #927E58",
"a  c #817762",
"s  c #817B6D",
"d  c #877D6A",
"f  c #807E79",
"g  c #827E75",
"h  c #A1813F",
"j  c #9E8249",
"k  c #94815C",
"l  c #9C8656",
"z  c #A58541",
"x  c #A88742",
"c  c #AC8A44",
"v  c #A1864C",
"b  c #A5894C",
"n  c #AD8D4B",
"m  c #B18E46",
"M  c #B08D48",
"N  c #B5924C",
"B  c #B9944A",
"V  c #A18752",
"C  c #A28954",
"Z  c #A38B5B",
"A  c #B39354",
"S  c #BE9B56",
"D  c #B3965D",
"F  c #9D8B65",
"G  c #968668",
"H  c #8D8473",
"J  c #83817D",
"K  c #8A867D",
"L  c #958D7B",
"P  c #AA9468",
"I  c #A99978",
"U  c #B19865",
"Y  c #BAA16E",
"T  c #BAA274",
"R  c #C39C4E",
"E  c #C79F52",
"W  c #CCA252",
"Q  c #CCA559",
"!  c #D1A754",
"~  c #D6AA55",
"^  c #DAAE57",
"/  c #D3AA58",
"(  c #D8AE5C",
")  c #DDB158",
"_  c #E2B55A",
"`  c #E7B95D",
"'  c #EABA5F",
"]  c #CFAA61",
"[  c #C1A56F",
"{  c #D3AF67",
"}  c #D5B26C",
"|  c #C5AA74",
" . c #CAAD74",
".. c #C0A675",
"X. c #DFBC78",
"o. c #E5B963",
"O. c #E3BD73",
"+. c #EFC168",
"@. c #F4C463",
"#. c #FCCB69",
"$. c #FACD72",
"%. c #F6CE7D",
"&. c #FDD176",
"*. c #848484",
"=. c #8B8986",
"-. c #8C8C8B",
";. c #8B8780",
":. c #918F8B",
">. c #9E9582",
",. c #93908C",
"<. c #979289",
"1. c #959494",
"2. c #999793",
"3. c #9C9C9C",
"4. c #9A9996",
"5. c #A29987",
"6. c #AE9F83",
"7. c #A69D8A",
"8. c #A19D96",
"9. c #A19E9B",
"0. c #ABA18D",
"q. c #AFA083",
"w. c #B5A585",
"e. c #A8A299",
"r. c #BEB094",
"t. c #B6AA92",
"y. c #A3A3A3",
"u. c #A8A7A7",
"i. c #ABA9A6",
"p. c #ACABAB",
"a. c #A8A7A8",
"s. c #BBB6AD",
"d. c #B6B2AB",
"f. c #B4B3B3",
"g. c #BCBAB5",
"h. c #BBBBBB",
"j. c #CCB485",
"k. c #D7BB84",
"l. c #C7B99D",
"z. c #D4BE91",
"x. c #C2BAAC",
"c. c #C0BFBF",
"v. c #DFC38D",
"b. c #D6C39C",
"n. c #ECCA84",
"m. c #E2C68F",
"M. c #FDD585",
"N. c #FBD68B",
"B. c #FED88D",
"V. c #EED195",
"C. c #F2D496",
"Z. c #FDDA94",
"A. c #F3D69B",
"S. c #FDDD9C",
"D. c #E3CA99",
"F. c #D7C9AC",
"G. c #CFC9BD",
"H. c #C8C3BA",
"J. c #DED2BC",
"K. c #D2CABA",
"L. c #EAD4AA",
"P. c #FCDFA2",
"I. c #F4DDAD",
"U. c #F4DAA4",
"Y. c #E8D8B7",
"T. c #E4D3B1",
"R. c #F3DFB8",
"E. c #FEE0A4",
"W. c #FDE2AB",
"Q. c #F8E3B7",
"!. c #F5E2BD",
"~. c #C4C4C4",
"^. c #CBC9C6",
"/. c #CCCBCB",
"(. c #C8C7C7",
"). c #DED6C6",
"_. c #DAD5CB",
"`. c #CFD0D0",
"'. c #D3D3D3",
"]. c #DBD9D6",
"[. c #DCDCDB",
"{. c #D8D7D7",
"}. c #ECDEC2",
"|. c #E0DCD4",
" X c #DFE0DF",
".X c #EDE3CE",
"XX c #F1E4CB",
"oX c #EDE5D3",
"OX c #E9E4DB",
"+X c #E2E0DE",
"@X c #F6EAD4",
"#X c #F3ECDD",
"$X c #E4E4E3",
"%X c #E8E6E4",
"&X c #EBEBEB",
"*X c #EFECE5",
"=X c #F0EFEF",
"-X c #F8F5ED",
";X c #F5F1E8",
":X c #F3F3F3",
">X c #F9F6F2",
",X c #FDFDFD",
"<X c #F9F8F7",
"1X c None",
/* pixels */
"1X1X1X1X1X1X1X1X1X1X1X1X1X1X1X1X1X1X1X1X1X1X1X1X1X1X1X1X1X1X1X1X1X1X1X1X1X1X1X1X1X1X1X1X1X1X1X1X1X1X1X1X1X1X1X1X1X1X1X1X1X1X1X1X",
"1X1X1X1X1X1X1X1X1X1X1X1X1X1X1X1X1X1X1X1X1X1X1X1X1X1X1X1X1X1X1X1X1X1X1X1X1X1X1X1X1X1X1X1X1X1X1X1X1X1X1X1X1X1X1X1X1X1X1X1X1X1X1X1X",
"1X1X1X1X1X1X1X1X1X1X1X1X1X1X1X1X1X1X1X1X1X1X1X1X1X1X1X1X1X1X1X1X1X1X1X1X1X1X1X1X1X1X1X1X1X1X1X1X1X1X1X1X1X1X1X1X1X1X1X1X1X1X1X1X",
"1X1X1X1X1X1X1X1X1X1X1X1X1X1X1X1X1X1X1X1X1X1X1X1X1X1X1X1X1X1X1X1X1X1X1X1X1X1X1X1X1X1X1X1X1X1X1X1X1X1X1X1X1X1X1X1X1X1X1X1X1X1X1X1X",
"1X1X1X1X1X1X1X1X1X1X1X1X1X1X1X1X1X1X1X1X1X1X1X1X1X1X1X1X1X1X1X1X1X1X1X1X1X1X1X1X1X1X1X1X1X1X1X1X1X1X1X1X1X1X1X1X1X1X1X1X1X1X1X1X",
"1X1X1X1X1X1X1X1X1X1X1X1X1X1X1X1X1X1X1X1X1X1X1X1X1X1X1X1X1X1X1X1X1X1X1X1X1X1X1X1X1X1X1X1X1X1X1X1X1X1X1X1X1X1X1X1X1X1X1X1X1X1X1X1X",
"1X1X1X1X1X1X1X1X1X1X1X1X1X1X1X1X1X1X1X1X1X1X1X1X1X1X1X1X1X1X1X1X1X1X1X1X1X1X1X1X1X1X1X1X1X1X1X1X1X1X1X1X1X1X1X1X1X1X1X1X1X1X1X1X",
"1X1X1X1X1X1X1X1X1X1X1X1X1X1X1X1X1X1X1X1X1X1X1X1X1X1X1X1X1X1X1.2.1X1X1X1X1X1X1X1X1X1X1X1X1X1X1X1X1X1X1X1X1X1X1X1X1X1X1X1X1X1X1X1X",
"1X1X1X1X1X1X1X1X1X1X1X1X1X1X1X1X1X1X1X1X1X1X1X1X1X1Xr d l 0.f.n I A I 1X1X1X1X1X1X1X1X1X1X1X1X1X1X1X1X1X1X1X1X1X1X1X1X1X1X1X1X1X",
"1X1X1X1X1X1X1X1X1X1X1X1X1X1X1X1X1X1X1X1X1X1X1X1Xy t K Z f.h.(.P w.[ ..8.i.1X1X1X1X1X1X1X1X1X1X1X1X1X1X1X1X1X1X1X1X1X1X1X1X1X1X1X",
"1X1X1X1X1X1X1X1X1X1X1X1X1X1X1X1X1X1X1X1X1X1X1X0 :.y.7.f.c.(.`.(.Q  Xj. .H.~.p.1X1X1X1X1X1X1X1X1X1X1X1X1X1X1X1X1X1X1X1X1X1X1X1X1X",
"1X1X1X1X1X1X1X1X1X1X1X1X1X1X1X1X1X1X1X1X1XO 0 1.3.a.f.h.(.'.[. X$X%X&XO.z.b./.0.1X1X1X1X1X1X1X1X1X1X1X1X1X1X1X1X1X1X1X1X1X1X1X1X",
"1X1X1X1X1X1X1X1X1X1X1X1X1X1X1X1X1X1X1X1X@ 0 ,.<.a.f.h.~.`.{.$X&X=X:X:X&Xo.F.j.(.I 1X1X1X1X1X1X1X1X1X1X1X1X1X1X1X1X1X1X1X1X1X1X1X",
"1X1X1X1X1X1X1X1X1X1X1X1X1X1X1X1X1X1X1X1Xt = 4.j a.f.h.(.'.[.%X:X<X.XOX<XO.L.J.{ /.y.1X1X1X1X1X1X1X1X1X1X1X1X1X1X1X1X1X1X1X1X1X1X",
"1X1X1X1X1X1X1X1X1X1X1X1X1X1X1X1X1X1X1X*., 1.3.C a.h.~./.[.$X=X,XI.A.,X,XL.+.&X}.^ x.y.1X1X1X1X1X1X1X1X1X1X1X1X1X1X1X1X1X1X1X1X1X",
"1X1X1X1X1X1X1X1X1X1X1X1X1X1X1X1X1X1X*.d   4.e.l f.h.(.'.[.&X<X>XN.<X,X,XI.#.:X&X|./ S 1X1X1X1X1X1X1X1X1X1X1X1X1X1X1X1X1X1X1X1X1X",
"1X1X1X1X1X1X1X1X1X1X1X1X1X1X1X1X1X*.*.8 4 3.u.V f.H.(.'.$X=X,XA.#X,X,X,XN.&.<X:X&X[.| B 1X1X1X1X1X1X1X1X1X1X1X1X1X1X1X1X1X1X1X1X",
"1X1X1X1X1X1X1X1X1X1X1X1X1X1X1X1X1X*.=.8 5 k u.C f.h.s.[. X<X-XZ.,X,X,X!.Z.Z.,X:X&X X{.H.i.1X1X1X1X1X1X1X1X1X1X1X1X1X1X1X1X1X1X1X",
"1X1X1X1X1X1X1X1X1X1X1X1X1X1X1X1X*.*.-.H 5 h z m B Y /.[.k.n.A.oX>X@XE.E.Z.#X,X,X:X%X[.'.h.1X1X1X1X1X1X1X1X1X1X1X1X1X1X1X1X1X1X1X",
"1X1X1X1X1X1X1X1X1X1X1X1X1X1X1X1X*.*.-.1.i z z m D ~.`.[.&X#.B.S.E.W.W.P.XX,X,X,X:X&X%X'.^.p.1X1X1X1X1X1X1X1X1X1X1X1X1X1X1X1X1X1X",
"1X1X1X1X1X1X1X1X1X1X1X1X1X1X1X*.= s -.1.3.e.>.n h.~.`.[.&XC.B.S.W.W.Q.=X,X,X,X,X,X&X%X[.Y T 1X1X1X1X1X1X1X1X1X1X1X1X1X1X1X1X1X1X",
"1X1X1X1X1X1X1X1X1X1X1X1X1X1X1X$ 1 3 -.1.3.a.p.M h.(.'.[.=XA.XX,X,X,X,X,X,X,X,X,X,X:X&X X! S 3.1X1X1X1X1X1X1X1X1X1X1X1X1X1X1X1X1X",
"1X1X1X1X1X1X1X1X1X1X1X1X1X1X; > , , ;.4.3.u.a.n h.(.`. X=XM.-X,X,X,X,X,X,XOXL.!.<X:X&X X^ W P 1X1X1X1X1X1X1X1X1X1X1X1X1X1X1X1X1X",
"1X1X1X1X1X1X1X1X1X1X1X1X1X1X$ % , , :.4.y.u.0.C h.(.'.[.&X$.>X,X,X,X,X,XXXE.Z.N.&._.&X X^ l.B 1X1X1X1X1X1X1X1X1X1X1X1X1X1X1X1X1X",
"1X1X1X1X1X1X1X1X1X1X1X1X1X1X& . , q 1.4.y.a.b >.h.(.`.[.=X$.-X,X,X,X,X,XW.E.S.N.&.@.%X$X} /.S e.1X1X1X1X1X1X1X1X1X1X1X1X1X1X1X1X",
"1X1X1X1X1X1X1X1X1X1X1X1X1XJ *.o , =.1.4.3.e.c f.h.(.`.[.&X$.XX,X,X,X,X,XW.E.Z.A.oX@.b.%XF./.r.I 1X1X1X1X1X1X1X1X1X1X1X1X1X1X1X1X",
"1X1X1X1X1X1X1X1X1X1X1X1X1X: *.< r -.1.4.3.j l f.h.~.`.[.%Xn.C.,X,X,X,X,XW.E.Z.U.,X*Xo.$X].G.(.N 1X1X1X1X1X1X1X1X1X1X1X1X1X1X1X1X",
"1X1X1X1X1X1X1X1X1X1X1X1X1X*.*.> r -.1.3.F z a.f.h.~./.{.+X.XM.<X,X,X,X,X<XS.Z.C.,X<Xv.$X[.x.(.I 1X1X1X1X1X1X1X1X1X1X1X1X1X1X1X1X",
"1X1X1X1X1X1X1X1X1X1X1X1X1X*.*.< , -.1.i h 5.p.f.h.c./.{. X:X$.V.,X,X,X,X,XP.Z.V.,X:X%X$X Xh.(.h.3.1X1X1X1X1X1X1X1X1X1X1X1X1X1X1X",
"1X1X1X1X1X1X1X1X1X1X1X1X1X*.*.$ , 2 4 5 L u.a.f.f.c.(.'.[.&X.XN.U.,X,X,X<XZ.N.Y.,X:X&X[.[.'./.h.F 1X1X1X1X1X1X1X1X1X1X1X1X1X1X1X",
"1X1X1X1X1X1X1X1X1X1X1X1X*.*.*.*.O 3 u 1.e.u.a.f.f.c.(.`.[.$X<XY.N.Z.Q.Q.Z.B.M.<X<X:X%X$X[.'.(.h.V 1X1X1X1X1X1X1X1X1X1X1X1X1X1X1X",
"1X1X1X1X1X1X1X1X1X1X1X1Xf *.*.s s -.4.4.3.y.a.p.f.h.~.`.{.$X=X,XOXn.N.Z.B.M.*X,X<X&X%X[.[.`.(.h.b 1X1X1X1X1X1X1X1X1X1X1X1X1X1X1X",
"1X1X1X1X1X1X1X1X1X1X1X1X* *.O > 2 < ,.1.3.y.u.p.f.h.c./.'. X%X:X,X,X=XoX;X,X,X<X=X&X$X[.'.`.~.h.v 1X1X1X1X1X1X1X1X1X1X1X1X1X1X1X",
"1X1X1X1X1X1X1X1X1X1X1X1X* *.> > X 2 9 1.3.y.u.p.f.f.c.~.`.{. X&X:X,X-XQ.S.D.OX:X&X%X X'.'.`.d.h.z 1X1X1X1X1X1X1X1X1X1X1X1X1X1X1X",
"1X1X1X1X1X1X1X1X1X1X1X1Xt : > * =.;.2 k 3.y.u.u.p.f.h.c.(.'.].+XOXO.@.@.@.@.+.L.%X$X[.K.'./.w.h.z 1X1X1X1X1X1X1X1X1X1X1X1X1X1X1X",
"1X1X1X1X1X1X1X1X1X1X1X1X# % > g =.-.J 4 <.3.y.u.p.f.h.c.(./.'.K._ ` m.J.T.` ` _ ].[.[.l./.(.A f.z 1X1X1X1X1X1X1X1X1X1X1X1X1X1X1X",
"1X1X1X1X1X1X1X1X1X1X1X1X$ @ > r *.-.-.q w 3.y.u.p.f.f.c.~.(.g.~ ( ].%X%X%X|.` ) j.[.'. .^.~.N e.z 1X1X1X1X1X1X1X1X1X1X1X1X1X1X1X",
"1X1X1X1X1X1X1X1X1X1X1X1Xf > > < *.-.-.:.4 2.y.y.a.p.f.h.h.~.S W '.{.[.[. X_.) ^ ] '.'.W ~.~.A c e 1X1X1X1X1X1X1X1X1X1X1X1X1X1X1X",
"1X1X1X1X1X1X1X1X1X1X1X1X1X> > > *.-.-.:.4 G 3.y.a.a.p.f.h.G E s./.'.'.[.'.] ^ ~ Q `.| R H.h.I c p 1X1X1X1X1X1X1X1X1X1X1X1X1X1X1X",
"1X1X1X1X1X1X1X1X1X1X1X1X1X$ >   *.*.-.-.H w 3.y.a.a.p.f.f.c S (.(././.'./.! ! ! Q E W Z h.h.p.j 1X1X1X1X1X1X1X1X1X1X1X1X1X1X1X1X",
"1X1X1X1X1X1X1X1X1X1X1X1X1X*.& : *.*.-.-.=.4 3.3.y.a.a.p.p.N t.c.~.(.(.(.H.W W W W E R g.h.f.a.9.1X1X1X1X1X1X1X1X1X1X1X1X1X1X1X1X",
"1X1X1X1X1X1X1X1X1X1X1X1X1X*.*.*.*.*.-.*.-.4 1.3.3.y.a.a.4.n d.h.h.~.c.(.(.S E R R B d.g.f.p.u.1.1X1X1X1X1X1X1X1X1X1X1X1X1X1X1X1X",
"1X1X1X1X1X1X1X1X1X1X1X1X1X1X*.*.*.*.*.-.-.3 :.1.3.y.y.a.<.c f.f.h.h.h.c.h.c.q.U q.h.g.f.f.u.9.a 1X1X1X1X1X1X1X1X1X1X1X1X1X1X1X1X",
"1X1X1X1X1X1X1X1X1X1X1X1X1X1X*.J & & ; J -.2 -.1.4.y.3.a.e.h p.f.f.f.h.h.h.h.h.h.h.f.f.p.a.3.,.1X1X1X1X1X1X1X1X1X1X1X1X1X1X1X1X1X",
"1X1X1X1X1X1X1X1X1X1X1X1X1X1X1X1 > > > > , , =.1.1.4.3.3.y.z 8.a.p.p.f.f.f.f.f.f.f.p.p.a.y.3.8 1X1X1X1X1X1X1X1X1X1X1X1X1X1X1X1X1X",
"1X1X1X1X1X1X1X1X1X1X1X1X1X1X1X< > 8   1 > , 0 -.1.1.4.3.3.z z z x x c c b F 9.p.a.u.a.3.4.u 1X1X1X1X1X1X1X1X1X1X1X1X1X1X1X1X1X1X",
"1X1X1X1X1X1X1X1X1X1X1X1X1X1X1X1X& *.*.*.$   < u :.1.1.4.e w h z z x x x z z x z 3.e.3.4.H 1X1X1X1X1X1X1X1X1X1X1X1X1X1X1X1X1X1X1X",
"1X1X1X1X1X1X1X1X1X1X1X1X1X1X1X1X1X*.*.*.> = *.J * -.:.q d L e i 3.3.3.9.>.l z 6 6 2.1.=.$ 1X1X1X1X1X1X1X1X1X1X1X1X1X1X1X1X1X1X1X",
"1X1X1X1X1X1X1X1X1X1X1X1X1X1X1X1X1X1X*.X > *.*.*.*.-.-.-.1.1.1.w G 4.4.4.4.4.1.w 4 H -.r 1X1X1X1X1X1X1X1X1X1X1X1X1X1X1X1X1X1X1X1X",
"1X1X1X1X1X1X1X1X1X1X1X1X1X1X1X1X1X1X1X& : *.*.*.*.*.=.-.-.-.-.-.3 9 ,.,.4.1.1.d 2 J r 1X1X1X1X1X1X1X1X1X1X1X1X1X1X1X1X1X1X1X1X1X",
"1X1X1X1X1X1X1X1X1X1X1X1X1X1X1X1X1X1X1X1X*.*.*.*.*.*.*.*.*.-.-.-.-.&   X ; -.-.r X O 1X1X1X1X1X1X1X1X1X1X1X1X1X1X1X1X1X1X1X1X1X1X",
"1X1X1X1X1X1X1X1X1X1X1X1X1X1X1X1X1X1X1X1X1X* J *.*.*.*.*.*.*.*.*.*.=.-.*.-.*.s   1X1X1X1X1X1X1X1X1X1X1X1X1X1X1X1X1X1X1X1X1X1X1X1X",
"1X1X1X1X1X1X1X1X1X1X1X1X1X1X1X1X1X1X1X1X1X1X1X& *.*.*.*.*.*.*.*.*.= $ *.J O 1X1X1X1X1X1X1X1X1X1X1X1X1X1X1X1X1X1X1X1X1X1X1X1X1X1X",
"1X1X1X1X1X1X1X1X1X1X1X1X1X1X1X1X1X1X1X1X1X1X1X1X1X1X*.*.*.*.*.*.o > > 1X1X1X1X1X1X1X1X1X1X1X1X1X1X1X1X1X1X1X1X1X1X1X1X1X1X1X1X1X",
"1X1X1X1X1X1X1X1X1X1X1X1X1X1X1X1X1X1X1X1X1X1X1X1X1X1X1X1X1X1X1X1X1X1X1X1X1X1X1X1X1X1X1X1X1X1X1X1X1X1X1X1X1X1X1X1X1X1X1X1X1X1X1X1X",
"1X1X1X1X1X1X1X1X1X1X1X1X1X1X1X1X1X1X1X1X1X1X1X1X1X1X1X1X1X1X1X1X1X1X1X1X1X1X1X1X1X1X1X1X1X1X1X1X1X1X1X1X1X1X1X1X1X1X1X1X1X1X1X1X",
"1X1X1X1X1X1X1X1X1X1X1X1X1X1X1X1X1X1X1X1X1X1X1X1X1X1X1X1X1X1X1X1X1X1X1X1X1X1X1X1X1X1X1X1X1X1X1X1X1X1X1X1X1X1X1X1X1X1X1X1X1X1X1X1X",
"1X1X1X1X1X1X1X1X1X1X1X1X1X1X1X1X1X1X1X1X1X1X1X1X1X1X1X1X1X1X1X1X1X1X1X1X1X1X1X1X1X1X1X1X1X1X1X1X1X1X1X1X1X1X1X1X1X1X1X1X1X1X1X1X",
"1X1X1X1X1X1X1X1X1X1X1X1X1X1X1X1X1X1X1X1X1X1X1X1X1X1X1X1X1X1X1X1X1X1X1X1X1X1X1X1X1X1X1X1X1X1X1X1X1X1X1X1X1X1X1X1X1X1X1X1X1X1X1X1X",
"1X1X1X1X1X1X1X1X1X1X1X1X1X1X1X1X1X1X1X1X1X1X1X1X1X1X1X1X1X1X1X1X1X1X1X1X1X1X1X1X1X1X1X1X1X1X1X1X1X1X1X1X1X1X1X1X1X1X1X1X1X1X1X1X",
"1X1X1X1X1X1X1X1X1X1X1X1X1X1X1X1X1X1X1X1X1X1X1X1X1X1X1X1X1X1X1X1X1X1X1X1X1X1X1X1X1X1X1X1X1X1X1X1X1X1X1X1X1X1X1X1X1X1X1X1X1X1X1X1X",
"1X1X1X1X1X1X1X1X1X1X1X1X1X1X1X1X1X1X1X1X1X1X1X1X1X1X1X1X1X1X1X1X1X1X1X1X1X1X1X1X1X1X1X1X1X1X1X1X1X1X1X1X1X1X1X1X1X1X1X1X1X1X1X1X",
"1X1X1X1X1X1X1X1X1X1X1X1X1X1X1X1X1X1X1X1X1X1X1X1X1X1X1X1X1X1X1X1X1X1X1X1X1X1X1X1X1X1X1X1X1X1X1X1X1X1X1X1X1X1X1X1X1X1X1X1X1X1X1X1X",
"1X1X1X1X1X1X1X1X1X1X1X1X1X1X1X1X1X1X1X1X1X1X1X1X1X1X1X1X1X1X1X1X1X1X1X1X1X1X1X1X1X1X1X1X1X1X1X1X1X1X1X1X1X1X1X1X1X1X1X1X1X1X1X1X"
};
