/* XPM */
static char *result[] = {
/* columns rows colors chars-per-pixel */
"64 64 99 2 ",
"   c gray20",
".  c #343433",
"X  c #343434",
"o  c #363834",
"O  c #475238",
"+  c #4A5638",
"@  c #4A5738",
"#  c gray25",
"$  c #515151",
"%  c #656565",
"&  c gray40",
"*  c #7C7C7C",
"=  c gray49",
"-  c #80AA45",
";  c #8DBC48",
":  c #90C249",
">  c #93C749",
",  c #9AD04B",
"<  c #9AD14B",
"1  c #9AD14C",
"2  c #9BD14C",
"3  c #9BD14D",
"4  c #9CD24F",
"5  c #9CD250",
"6  c #9DD250",
"7  c #9ED353",
"8  c #9FD355",
"9  c #A0D357",
"0  c #A1D458",
"q  c #A4D55F",
"w  c #A6D561",
"e  c #A6D662",
"r  c #A7D663",
"t  c #A9D667",
"y  c #AAD76A",
"u  c #ABD76B",
"i  c #ABD76C",
"p  c #ACD86D",
"a  c #ADD86F",
"s  c #B1DA77",
"d  c #B5DB7E",
"f  c #9F9F9F",
"g  c #A5A5A5",
"h  c #B8DC83",
"j  c #BADD87",
"k  c #BBDD8A",
"l  c #BCDE8C",
"z  c #BEDE8F",
"x  c #BEDF90",
"c  c #BFDF91",
"v  c #BFDF92",
"b  c #C0DF92",
"n  c #C1E095",
"m  c #C2E097",
"M  c #C3E099",
"N  c #C6E19E",
"B  c #C7E2A0",
"V  c #C8E2A2",
"C  c #CCE4AA",
"Z  c #CDE4AC",
"A  c #D2E6B6",
"S  c #D3E6B6",
"D  c #D3E7B7",
"F  c #D3E6B8",
"G  c #D6E8BD",
"H  c #D7E8BF",
"J  c gray82",
"K  c #D8E8C2",
"L  c #D9E9C2",
"P  c #DAE9C4",
"I  c #DCEAC9",
"U  c #DFEBCE",
"Y  c #DFEBCF",
"T  c #E0EBD0",
"R  c #E1ECD2",
"E  c #E2ECD5",
"W  c #E4EDD8",
"Q  c #E7EEDD",
"!  c #E7EEDE",
"~  c #E8EEDE",
"^  c #C8E7F0",
"/  c #CAEAF3",
"(  c #CEEAF3",
")  c #CAEAF4",
"_  c #CBEBF4",
"`  c #CAEAF5",
"'  c #E9EFE1",
"]  c #EBEFE4",
"[  c #ECF0E6",
"{  c #ECF0E7",
"}  c #EDF0E8",
"|  c #EDF0E9",
" . c #EEF1EB",
".. c #EFF1ED",
"X. c #F0F1EE",
"o. c #F1F1EF",
"O. c #F1F2F0",
"+. c #F1F2F1",
"@. c gray95",
/* pixels */
") ) ) ) ) ) ) ) ) ) ) ) ) ) ) ) ) ) ) ) ) ) ) ) ) ) ) ) ) ) ) ) ) ) ) ) ) ) ) ) ) ) ) ) ) ) ) ) ) ) ) ) ) ) ) ) ) ) ) ) ) ) ) ) ",
") ) ) ) ) ) ) ) ) ) ) ) ) ) ) ) ) ) ) ) ) ) ) ) ) ) ) ) ) ) ) ) ) ) ) ) ) ) ) ) ) ) ) ) ) ) ) ) ) ) ) ) ) ) ) ) ) ) ) ) ) ) ) ) ",
") ) ) ) ) ) ) ) ) ) ) ) ) ) ) ) ) ) ) ) ) ) ) ) ) ) ) ) ) ) ) ) ) ) ) ) ) ) ) ) ) ) ) ) ) ) ) ) ) ) ) ) ) ) ) ) ) ) ) ) ) ) ) ) ",
") ) ) ) ) ) ) ) ) ) ) ) ) ) ) ) ) ) ) ) ) ) ) ) ) ) ) ) ) ) ) ) ) ) ) ) ) ) ) ) ) ) ) ) ) ) ) ) ) ) ) ) ) ) ) ) ) ) ) ) ) ) ) ) ",
") ) ) ) ) ) ) ) ) ) ) ) ) ) ) ) ) ) ) ) ) ) ) ) ) ) ) ) ) ) ) ) ) ) ) ) ) ) ) ) ) ) ) ) ) ) ) ) ) ) ) ) ) ) ) ) ) ) ) ) ) ) ) ) ",
") ) ) ) ) ) ) ) ) ) ) ) ) ) ) ) ) ) ) ) ) ) ) ) ) ) ) ) ) ) ) ) ) ) ) ) ) ) ) ) ) ) ) ) ) ) ) ) ) ) ) ) ) ) ) ) ) ) ) ) ) ) ) ) ",
") ) ) ) ) ) ) ) ) ) ) ) ) ) ) ) ) ) ) ) ) ) ) ) ) ) ) ) ) ) ) ) ) ) ) ) ) ) ) ) ) ) ) ) ) ) ) ) ) ) ) ) ) ) ) ) ) ) ) ) ) ) ) ) ",
") ) ) ) ) ) ) ) ) ) ) ) ) ) ) ) ) ) ) ) ) ) ) ) ) ) ) ) ) ) ) ) ) ) ) ) ) ) ) ) ) ) ) ) ) ) ) ) ) ) ) ) ) ) ) ) ) ) ) ) ) ) ) ) ",
") ) ) ) ) ) ) ) ) ) ) ) ) ) ) ) ) ) ) ) ) ) ) ) ) ) ) ) _ ) ) ) ) ) ) ) ) ) ) ) ) ) ) ) ) ) ) ) ) ) ) ) ) ) ) ) ) ) ) ) ) ) ) ) ",
") ) ) ) ) ) ) ) ) ) ) ) ) ) ) ) ) ) ) ) ) ) ) ) ) ) ) ) ) ) ) ` ) ) ` ) ) ) ) ) ) ) ) ) ) ) ) ) ) ) ) ) ) ) ) ) ) ) ) ) ) ) ) ) ",
") ) ) ) ) ) ) ) ) ) ) ) ) ) ) ) ) ) ) ) ) ) ) ) ) ) ) ) ) ) ( ) ) ) ) ) ) ) ) ) ) ) ) ) ) ) ) ) ) ) ) ) ) ) ) ) ) ) ) ) ) ) ) ) ",
") ) ) ) ) ) ) ) ) ) ) ) ) ) ) ) ) ) ) ) ) ) ) ) ) ) ) ) ) ) ) ) ) ) ) ) ) ) ) ) ) ) ) ) ) ) ) ) ) ) ) ) ) ) ) ) ) ) ) ) ) ) ) ) ",
") ) ) ) ) ) ) ) ) ) ) ) ) ) ) ) ) ) ) ) ) ) ) ) ) ) ) ) ) ) ) ) ) ) ) ) ) ) ) ) ) ) ) ) ) ) ) ) ) ) ) ) ) ) ) ) ) ) ) ) ) ) ) ) ",
") ) ) ) ) ) ) ) ) ) ) ) ) ) ) ) ) ) ) ) ) ) ) ) ) ` ) ) ) ) ) ) ) ) ) ) ) ) ) ) ) ) ) ) ) ) ) ) ) ) ) ) ) ) ) ) ) ) ) ) ) ) ) ) ",
") ) ) ) ) ) ) ) ) ) ) ) ) ) ) ) ) ) ) ) ) ) ) ) ) ) ) ) ) ) ) ) ) ) ) ) ) ) ) ) ) ) ) ) ) ) ) ) ) ) ) ) ) ) ) ) ) ) ) ) ) ) ) ) ",
") ) ) ) ) ) ) ) ) ) ) ) ) ) ) ) ) ) ) ) ) ) ) ) ) ) ) ) ) ) ) ) ) ) ) ) ) ) ) ) ) ) ) ) ) ) ) ) ) ) ) ) ) ) ) ) ) ) ) ) ) ) ) ) ",
") ) ) ) ) ) ) ) ) ) ) ) ) ) ) ) ) ) ) ) ) ) ) ) ) ) ) ) ) ) ) ) ) ) ) ) ) ) ) ) ` ) ) ) ) ) ) ) ) ) ) ) ) ) ) ) ) ) ) ) ) ) ) ) ",
") ) ) ) ) ) ) ) ) ) ) ) ) ) ) ) ) ) ) ) ) / ) ) ) ) ) ) ) ) ) ) ) ) ) ) ) ) ) ) ) ) ) ) ) ) ) ) ) ) ) ) ) ) ) ) ) ) ) ) ) ) ) ) ",
") ) ) ) ) ) ) ) ) ) ) ) ) ) ) ) ) ) ) ) ) ) ) ) ) ) ) ) ` _ ) ) ) ) ) ) ) ) ) ) ` ) ` ) ) ) ) ) ) ) ) ) ) ) ) ) ) ) ) ) ) ) ) ) ",
") ) ) ) ) ) ) ) ) ) ) ) ) ) ) ) ) ) ) ) ) ) ) ) ) ) ` ) ) ) ` ) ) ) ) ) ) ) ) ` ) ) ) ) ) ) ) ) ) ) ) ) ) ) ) ) ) ) ) ) ) ) ) ) ",
") ) ) ) ) ) ) ) ) ) ) ) ) ) ) ) ) ) ) ) ) ) ) ) ) _ ) ) ) ) ) ) / ) ) ) ) ) ) / ) ) ) ` ) ) ) ) ) ) ) ) ) ) ) ) ) ) ) ) ) ) ) ) ",
") ) ) ) ) ) ) ) ) ) ) ) ) ) ) ) ) ) ) ) ^ ) ) ) _ ) ) ) ) ) ) ) ) ) ) ) ) ) ) ) ) ) ) ) ) ) ) ) ) ) ) ) ) ) ) ) ) ) ) ) ) ) ) ) ",
") ) ) ) ) ) ) ) ) ) ) ) ) ) ) ) ) ) ) ) / ) ) ` ) ) ) ) ) ) ) ) ) ) ) ) ) ) ) ) ) ) ) ) ) ) ) ) ) ) ) ) ) ) ) ) ) ) ) ) ) ) ) ) ",
") ) ) ) ) ) ) ) ) ) ) ) ) ) ) ) ) ) ) ) ) ) ) ) ) ) ) ) ) ) ) ) ) ) ) ) ) ) ) ) ) ) ) ) ) ) ) ) ) ) ) ) ) ) ) ) ) ) ) ) ) ) ) ) ",
") ) $                                                                                                                     $ ) ) ",
") X                                                                                                                         X ) ",
"%   . ; , , , , , , , , , , , , , , , , , , , , , , , , , , , , , , , , , , , , , , , , , , , , , , , , , , , , , , , , ; .   & ",
"X   - < < < < < < < < < < < < < < < < < < < < < < < < < < < < < < < < < < < < < < < < < < < < < < < < < < < < < < < < < < -   X ",
"    > < < < < < < < < < < < < < < < < < < < < < < < < < < < < < < < < < < < < < < < < < < < < < < < < < < < < < < < < < < >     ",
"    > < < < < < < < < < < < < < < < < < < < < < < < < < < < < < < < < < < < < < < < < < < < < < < < < < < < < < < < < < < >     ",
"    > < < < < < < < < < < < < < < < < < < < < < < < < < < < < < < < < < < < < < < < < < < < < < < < < < < < < < < < < < < >     ",
"    > < < < < < < < < < < < < < < < < < < < < < < < < < < < < < < < < < < < < < < < < < < < < < < < < < < < < < < < < < < >     ",
"    > < < < < < < < < < 3 T W W W W W W M < < y Y 3 < < < < 9 R 8 < < < 2 U p < < 2 Y W W W W W W W T 3 < < < < < < < < < >     ",
"    > < < < < < < < < < b @.@.@.@.@.@.@.@.< < ' @.Q < < < < X.@.D < < < l @.{ < < h @.@.@.@.@.@.@.@.@.k < < < < < < < < < >     ",
"    > < < < < < < < < < n @...Z Z Z Z Z a < < r @.@.k < < S @.@.6 < < < z @.} < < < N Z Z ~ @.' Z Z B < < < < < < < < < < >     ",
"    > < < < < < < < < < n @.[ < < < < < < < < < F @.@.5 e @.@.l < < < < z @.} < < < < < < L @.I < < < < < < < < < < < < < >     ",
"    > < < < < < < < < < n @.[ < < < < < < < < < < X.@.' o.@.! < < < < < z @.} < < < < < < L @.I < < < < < < < < < < < < < >     ",
"    > < < < < < < < < < n @.{ w w 1 < < < < < < < q @.@.@.@.4 < < < < < z @.} < < < < < < L @.I < < < < < < < < < < < < < >     ",
"    > < < < < < < < < < n @.@.@.@.| < < < < < < < < A @.@.j < < < < < < z @.} < < < < < < L @.I < < < < < < < < < < < < < >     ",
"    > < < < < < < < < < n @.@.@.@.G < < < < < < < < O.@.@.] < < < < < < z @.} < < < < < < L @.I < < < < < < < < < < < < < >     ",
"    > < < < < < < < < < n @.[ < < < < < < < < < < L @.@.@.@.m < < < < < z @.} < < < < < < L @.I < < < < < < < < < < < < < >     ",
"    > < < < < < < < < < n @.[ < < < < < < < < < u @.@.d C @.@.7 < < < < z @.} < < < < < < L @.I < < < < < < < < < < < < < >     ",
"    > < < < < < < < < < n @.[ 1 1 1 1 1 < < < < +.@.E < <  .@.{ < < < < z @.} < < < < < < L @.I < < < < < < < < < < < < < >     ",
"    > < < < < < < < < < n @.@.@.@.@.@.@. .< < K @.@.2 < < 0 @.@.v < < < z @.} < < < < < < L @.I < < < < < < < < < < < < < >     ",
"    > < < < < < < < < < i @.@.@.@.@.@.@. .< < H @.s < < < < V @.c < < < t @.P < < < < < < x @.m < < < < < < < < < < < < < >     ",
"    > < < < < < < < < < < 1 1 1 1 1 1 1 < < < < 1 < < < < < < 1 < < < < < 1 < < < < < < < < 1 < < < < < < < < < < < < < < >     ",
"    > < < < < < < < < < < < < < < < < < < < < < < < < < < < < < < < < < < < < < < < < < < < < < < < < < < < < < < < < < < >     ",
"    > < < < < < < < < < < < < < < < < < < < < < < < < < < < < < < < < < < < < < < < < < < < < < < < < < < < < < < < < < < >     ",
"    > < < < < < < < < < < < < < < < < < < < < < < < < < < < < < < < < < < < < < < < < < < < < < < < < < < < < < < < < < < >     ",
"    : < < < < < < < < < < < < < < < < < < < < < < < < < < < < < < < < < < < < < < < < < < < < < < < < < < < < < < < < < < :     ",
"#   @ < < < < < < < < < < < < < < < < < < < < < < < < < < < < < < < < < < < < < < < < < < < < < < < < < < < < < < < < < < +   # ",
"J     o O O O O O O O O O O O O O O O O O O O O O O O O O O O O O O O O O O O O O O O O O O O O O O O O O O O O O O O O o     J ",
") f                                                                                                                         f ) ",
") ) ) g = * * * * * * * * * * * * * * * * * * * * * * * * * * * * * * * * * * * * * * * * * * * * * * * * * * * * * * = g ) ) ) ",
") ) ) ) ) ) ) ) ) ) ) ) ) ) ) ) ) ) ) ) ) ) ) ) ) ) ) ) ) ) ) ) ) ) ) ) ) ) ) ) ) ) ) ) ) ) ) ) ) ) ) ) ) ) ) ) ) ) ) ) ) ) ) ) ",
") ) ) ) ) ) ) ) ) ) ) ) ) ) ) ) ) ) ) ) ) ) ) ) ) ) ) ) ) ) ) ) ) ) ) ) ) ) ) ) ) ) ) ) ) ) ) ) ) ) ) ) ) ) ) ) ) ) ) ) ) ) ) ) ",
") ) ) ) ) ) ) ) ) ) ) ) ) ) ) ) ) ) ) ) ) ) ) ) ) ) ) ) ) ) ) ) ) ) ) ) ) ) ) ) ) ) ) ) ) ) ) ) ) ) ) ) ) ) ) ) ) ) ) ) ) ) ) ) ",
") ) ) ) ) ) ) ) ) ) ) ) ) ) ) ) ) ) ) ) ) ) ) ) ) ) ) ) ) ) ) ) ) ) ) ) ) ) ) ) ) ) ) ) ) ) ) ) ) ) ) ) ) ) ) ) ) ) ) ) ) ) ) ) ",
") ) ) ) ) ) ) ) ) ) ) ) ) ) ) ) ) ) ) ) ) ) ) ) ) ) ) ) ) ) ) ) ) ) ) ) ) ) ) ) ) ) ) ) ) ) ) ) ) ) ) ) ) ) ) ) ) ) ) ) ) ) ) ) ",
") ) ) ) ) ) ) ) ) ) ) ) ) ) ) ) ) ) ) ) ) ) ) ) ) ) ) ) ) ) ) ) ) ) ) ) ) ) ) ) ) ) ) ) ) ) ) ) ) ) ) ) ) ) ) ) ) ) ) ) ) ) ) ) ",
") ) ) ) ) ) ) ) ) ) ) ) ) ) ) ) ) ) ) ) ) ) ) ) ) ) ) ) ) ) ) ) ) ) ) ) ) ) ) ) ) ) ) ) ) ) ) ) ) ) ) ) ) ) ) ) ) ) ) ) ) ) ) ) ",
") ) ) ) ) ) ) ) ) ) ) ) ) ) ) ) ) ) ) ) ) ) ) ) ) ) ) ) ) ) ) ) ) ) ) ) ) ) ) ) ) ) ) ) ) ) ) ) ) ) ) ) ) ) ) ) ) ) ) ) ) ) ) ) ",
") ) ) ) ) ) ) ) ) ) ) ) ) ) ) ) ) ) ) ) ) ) ) ) ) ) ) ) ) ) ) ) ) ) ) ) ) ) ) ) ) ) ) ) ) ) ) ) ) ) ) ) ) ) ) ) ) ) ) ) ) ) ) ) ",
") ) ) ) ) ) ) ) ) ) ) ) ) ) ) ) ) ) ) ) ) ) ) ) ) ) ) ) ) ) ) ) ) ) ) ) ) ) ) ) ) ) ) ) ) ) ) ) ) ) ) ) ) ) ) ) ) ) ) ) ) ) ) ) "
};
