/* XPM */
static char *result[] = {
/* columns rows colors chars-per-pixel */
"64 64 91 1 ",
"  c #323232",
". c gray20",
"X c #343433",
"o c #343434",
"O c #363834",
"+ c #453F34",
"@ c #554934",
"# c #475238",
"$ c #4A5638",
"% c #4A5738",
"& c #866836",
"* c #DA9F38",
"= c #F7B239",
"- c #80AA45",
"; c #8DBC48",
": c #90C249",
"> c #93C749",
", c #9AD04B",
"< c #9AD14B",
"1 c #9AD14C",
"2 c #9BD14C",
"3 c #9BD14D",
"4 c #9CD24F",
"5 c #9CD250",
"6 c #9DD250",
"7 c #9ED353",
"8 c #9FD355",
"9 c #A0D357",
"0 c #A1D458",
"q c #A4D55F",
"w c #A6D561",
"e c #A6D662",
"r c #A7D663",
"t c #A9D667",
"y c #AAD76A",
"u c #ABD76B",
"i c #ABD76C",
"p c #ACD86D",
"a c #ADD86F",
"s c #B1DA77",
"d c #B5DB7E",
"f c #B8DC83",
"g c #BADD87",
"h c #BBDD8A",
"j c #BCDE8C",
"k c #BEDE8F",
"l c #BEDF90",
"z c #BFDF91",
"x c #BFDF92",
"c c #C0DF92",
"v c #C1E095",
"b c #C2E097",
"n c #C3E099",
"m c #C6E19E",
"M c #C7E2A0",
"N c #C8E2A2",
"B c #CCE4AA",
"V c #CDE4AC",
"C c #D2E6B6",
"Z c #D3E6B6",
"A c #D3E7B7",
"S c #D3E6B8",
"D c #D6E8BD",
"F c #D7E8BF",
"G c #D8E8C2",
"H c #D9E9C2",
"J c #DAE9C4",
"K c #DCEAC9",
"L c #DFEBCE",
"P c #DFEBCF",
"I c #E0EBD0",
"U c #E1ECD2",
"Y c #E2ECD5",
"T c #E4EDD8",
"R c #E7EEDD",
"E c #E7EEDE",
"W c #E8EEDE",
"Q c #E9EFE1",
"! c #EBEFE4",
"~ c #ECF0E6",
"^ c #ECF0E7",
"/ c #EDF0E8",
"( c #EDF0E9",
") c #EEF1EB",
"_ c #EFF1ED",
"` c #F0F1EE",
"' c #F1F1EF",
"] c #F1F2F0",
"[ c #F1F2F1",
"{ c gray95",
"} c None",
/* pixels */
"}}}}}}}}}}}}}}}}}}}}}}}}}}}}}}}}}}}}}}}}}}}}}}}}}}}}}}}}}}}}}}}}",
"}}}}}}}}}}}}}}}}}}}}}}}}}}}}}}}}}}}}}}}}}}}}}}}}}}}}}}}}}}}}}}}}",
"}}}}}}}}}}}}}}}}}}}}}}}}}}}}}}}}}}}}}}}}}}}}}}}}}}}}}}}}}}}}}}}}",
"}}}}}}}}}}}}}}}}}}}}}}}}}}}}}}}}}}}}}}}}}}}}}}}}}}}}}}}}}}}}}}}}",
"}}}}}}}}}}}}}}}}}}}}}}}}}}}}}}}}}}}}}}}}}}}}}}}}}}}}}}}}}}}}}}}}",
"}}}}}}}}}}}}}}}}}}}}}}}}}}}}}}}}}}}}}}}}}}}}}}}}}}}}}}}}}}}}}}}}",
"}}}}}}}}}}}}}}}}}}}}}}}}}}}}}}}}}}}}}}}}}}}}}}}}}}}}}}}}}}}}}}}}",
"}}}}}}}}}}}}}}}}}}}}}}}}}}}}}}}}}}}}}}}}}}}}}}}}}}}}}}}}}}}}}}}}",
"}}}}}}}}}}}}}}}}}}}}}}}}}}}}}}}}}}}}}}}}}}}}}}}}}}}}}}}}}}}}}}}}",
"}}}}}}}}}}}}}}}}}}}}}}}}}}}}}}}}}}}}}}}}}}}}}}}}}}}}}}}}}}}}}}}}",
"}}}}}}}}}}}}}}}}}}}}}}}}}}}}}}}oo}}}}}}}}}}}}}}}}}}}}}}}}}}}}}}}",
"}}}}}}}}}}}}}}}}}}}}}}}}}}}}}o....o}}}}}}}}}}}}}}}}}}}}}}}}}}}}}",
"}}}}}}}}}}}}}}}}}}}}}}}}}}}}}..++..}}}}}}}}}}}}}}}}}}}}}}}}}}}}}",
"}}}}}}}}}}}}}}}}}}}}}}}}}}}}..&==&..}}}}}}}}}}}}}}}}}}}}}}}}}}}}",
"}}}}}}}}}}}}}}}}}}}}}}}}}}}...*==*...}}}}}}}}}}}}}}}}}}}}}}}}}}}",
"}}}}}}}}}}}}}}}}}}}}}}}}}}....@==@....}}}}}}}}}}}}}}}}}}}}}}}}}}",
"}}}}}}}}}}}}}}}}}}}}}}}}}...o......o...}}}}}}}}}}}}}}}}}}}}}}}}}",
"}}}}}}}}}}}}}}}}}}}}}}}}... }}....}} ...}}}}}}}}}}}}}}}}}}}}}}}}",
"}}}}}}}}}}}}}}}}}}}}}}}... }}}}}}}}}} ...}}}}}}}}}}}}}}}}}}}}}}}",
"}}}}}}}}}}}}}}}}}}}}}}... }}}}}}}}}}}} ...}}}}}}}}}}}}}}}}}}}}}}",
"}}}}}}}}}}}}}}}}}}}}}...o}}}}}}}}}}}}}}o...}}}}}}}}}}}}}}}}}}}}}",
"}}}}}}}}}}}}}}}}}}}}...o}}}}}}}}}}}}}}}}o...}}}}}}}}}}}}}}}}}}}}",
"}}}}}}}}}}}}}}}}}}}...o}}}}}}}}}}}}}}}}}}o...}}}}}}}}}}}}}}}}}}}",
"}}}}}}}}}}}}}}}}}}...o}}}}}}}}}}}}}}}}}}}}o...}}}}}}}}}}}}}}}}}}",
"}}............................................................}}",
"}..............................................................}",
" .X;,,,,,,,,,,,,,,,,,,,,,,,,,,,,,,,,,,,,,,,,,,,,,,,,,,,,,,,,;X..",
"..-<<<<<<<<<<<<<<<<<<<<<<<<<<<<<<<<<<<<<<<<<<<<<<<<<<<<<<<<<<-..",
"..><<<<<<<<<<<<<<<<<<<<<<<<<<<<<<<<<<<<<<<<<<<<<<<<<<<<<<<<<<>..",
"..><<<<<<<<<<<<<<<<<<<<<<<<<<<<<<<<<<<<<<<<<<<<<<<<<<<<<<<<<<>..",
"..><<<<<<<<<<<<<<<<<<<<<<<<<<<<<<<<<<<<<<<<<<<<<<<<<<<<<<<<<<>..",
"..><<<<<<<<<<<<<<<<<<<<<<<<<<<<<<<<<<<<<<<<<<<<<<<<<<<<<<<<<<>..",
"..><<<<<<<<<3ITTTTTTn<<yP3<<<<9U8<<<2Lp<<2PTTTTTTTI3<<<<<<<<<>..",
"..><<<<<<<<<c{{{{{{{{<<Q{R<<<<`{A<<<j{^<<f{{{{{{{{{h<<<<<<<<<>..",
"..><<<<<<<<<v{_VVVVVa<<r{{h<<Z{{6<<<k{/<<<mVVW{QVVM<<<<<<<<<<>..",
"..><<<<<<<<<v{~<<<<<<<<<S{{5e{{j<<<<k{/<<<<<<H{K<<<<<<<<<<<<<>..",
"..><<<<<<<<<v{~<<<<<<<<<<`{Q'{E<<<<<k{/<<<<<<H{K<<<<<<<<<<<<<>..",
"..><<<<<<<<<v{^ww1<<<<<<<q{{{{4<<<<<k{/<<<<<<H{K<<<<<<<<<<<<<>..",
"..><<<<<<<<<v{{{{(<<<<<<<<C{{g<<<<<<k{/<<<<<<H{K<<<<<<<<<<<<<>..",
"..><<<<<<<<<v{{{{D<<<<<<<<]{{!<<<<<<k{/<<<<<<H{K<<<<<<<<<<<<<>..",
"..><<<<<<<<<v{~<<<<<<<<<<H{{{{b<<<<<k{/<<<<<<H{K<<<<<<<<<<<<<>..",
"..><<<<<<<<<v{~<<<<<<<<<u{{dB{{7<<<<k{/<<<<<<H{K<<<<<<<<<<<<<>..",
"..><<<<<<<<<v{~11111<<<<[{Y<<){^<<<<k{/<<<<<<H{K<<<<<<<<<<<<<>..",
"..><<<<<<<<<v{{{{{{{)<<G{{2<<0{{x<<<k{/<<<<<<H{K<<<<<<<<<<<<<>..",
"..><<<<<<<<<i{{{{{{{)<<F{s<<<<N{z<<<t{J<<<<<<l{b<<<<<<<<<<<<<>..",
"..><<<<<<<<<<1111111<<<<1<<<<<<1<<<<<1<<<<<<<<1<<<<<<<<<<<<<<>..",
"..><<<<<<<<<<<<<<<<<<<<<<<<<<<<<<<<<<<<<<<<<<<<<<<<<<<<<<<<<<>..",
"..><<<<<<<<<<<<<<<<<<<<<<<<<<<<<<<<<<<<<<<<<<<<<<<<<<<<<<<<<<>..",
"..><<<<<<<<<<<<<<<<<<<<<<<<<<<<<<<<<<<<<<<<<<<<<<<<<<<<<<<<<<>..",
"..:<<<<<<<<<<<<<<<<<<<<<<<<<<<<<<<<<<<<<<<<<<<<<<<<<<<<<<<<<<:..",
"..%<<<<<<<<<<<<<<<<<<<<<<<<<<<<<<<<<<<<<<<<<<<<<<<<<<<<<<<<<<$..",
"}..O########################################################O..}",
"}}............................................................}}",
"}}}}o......................................................o}}}}",
"}}}}}}}}}}}}}}}}}}}}}}}}}}}}}}}}}}}}}}}}}}}}}}}}}}}}}}}}}}}}}}}}",
"}}}}}}}}}}}}}}}}}}}}}}}}}}}}}}}}}}}}}}}}}}}}}}}}}}}}}}}}}}}}}}}}",
"}}}}}}}}}}}}}}}}}}}}}}}}}}}}}}}}}}}}}}}}}}}}}}}}}}}}}}}}}}}}}}}}",
"}}}}}}}}}}}}}}}}}}}}}}}}}}}}}}}}}}}}}}}}}}}}}}}}}}}}}}}}}}}}}}}}",
"}}}}}}}}}}}}}}}}}}}}}}}}}}}}}}}}}}}}}}}}}}}}}}}}}}}}}}}}}}}}}}}}",
"}}}}}}}}}}}}}}}}}}}}}}}}}}}}}}}}}}}}}}}}}}}}}}}}}}}}}}}}}}}}}}}}",
"}}}}}}}}}}}}}}}}}}}}}}}}}}}}}}}}}}}}}}}}}}}}}}}}}}}}}}}}}}}}}}}}",
"}}}}}}}}}}}}}}}}}}}}}}}}}}}}}}}}}}}}}}}}}}}}}}}}}}}}}}}}}}}}}}}}",
"}}}}}}}}}}}}}}}}}}}}}}}}}}}}}}}}}}}}}}}}}}}}}}}}}}}}}}}}}}}}}}}}",
"}}}}}}}}}}}}}}}}}}}}}}}}}}}}}}}}}}}}}}}}}}}}}}}}}}}}}}}}}}}}}}}}"
};
