/* XPM */
static char *result[] = {
/* columns rows colors chars-per-pixel */
"64 64 210 2 ",
"   c #060504",
".  c #090605",
"X  c #0E0B09",
"o  c #120D0B",
"O  c #14100C",
"+  c #1C150F",
"@  c #161112",
"#  c #1C1514",
"$  c #1C1718",
"%  c #1E1919",
"&  c #1F1915",
"*  c #140F11",
"=  c #221716",
"-  c #241B15",
";  c #291E15",
":  c #241C1A",
">  c #291E1A",
",  c #301F15",
"<  c #2C2217",
"1  c #2D221B",
"2  c #32261C",
"3  c #36291D",
"4  c #3A2C1E",
"5  c #302317",
"6  c #3F311E",
"7  c #261F21",
"8  c #2A1F20",
"9  c #2B2223",
"0  c #2E2628",
"q  c #262022",
"w  c #322623",
"e  c #352A22",
"r  c #3C2D22",
"t  c #332A2C",
"y  c #3A2E2B",
"u  c #302629",
"i  c #3E3124",
"p  c #3E3229",
"a  c #382E30",
"s  c #3D3335",
"d  c #3A3537",
"f  c #402F1F",
"g  c #45361E",
"h  c #412F21",
"j  c #433324",
"k  c #493625",
"l  c #4B3926",
"z  c #443529",
"x  c #4A3728",
"c  c #473A2A",
"v  c #4D3B2B",
"b  c #473924",
"n  c #513C27",
"m  c #523D2B",
"M  c #403634",
"N  c #4D3E32",
"B  c #423639",
"V  c #483B3E",
"C  c #503F31",
"Z  c #6A343B",
"A  c #4F402F",
"S  c #56412D",
"D  c #5A442D",
"F  c #5E492E",
"G  c #4D423C",
"H  c #46433E",
"J  c #544332",
"K  c #5B4632",
"L  c #5D4935",
"P  c #5E4B3A",
"I  c #55473B",
"U  c #62492E",
"Y  c #64542A",
"T  c #755D2B",
"R  c #634B34",
"E  c #6A4E35",
"W  c #634E39",
"Q  c #654A35",
"!  c #6B5236",
"~  c #67513D",
"^  c #6C533B",
"/  c #72553C",
"(  c #755A3D",
")  c #795B3E",
"_  c #7B6828",
"`  c #7A6639",
"'  c #473F42",
"]  c #4A4546",
"[  c #544A47",
"{  c #5C534C",
"}  c #524E50",
"|  c #5B5454",
" . c #6B5641",
".. c #6B5846",
"X. c #725A42",
"o. c #7C5D43",
"O. c #735B46",
"+. c #635C57",
"@. c #754046",
"#. c #7B6742",
"$. c #6B635B",
"%. c #776859",
"&. c #7F7650",
"*. c #685F60",
"=. c #6B696A",
"-. c #776D62",
";. c #787372",
":. c #8A682D",
">. c #956E2D",
",. c #937A25",
"<. c #99792B",
"1. c #8B7432",
"2. c #987B32",
"3. c #856E2B",
"4. c #A4792F",
"5. c #AC7D2E",
"6. c #A0762F",
"7. c #A47930",
"8. c #803C45",
"9. c #815F43",
"0. c #95555D",
"q. c #A0505B",
"w. c #826345",
"e. c #866B46",
"r. c #88775A",
"t. c #997E55",
"y. c #816F5B",
"u. c #9E5760",
"i. c #8A7B67",
"p. c #837D78",
"a. c #AA6C75",
"s. c #A0757B",
"d. c #9D8328",
"f. c #9C8234",
"g. c #98823B",
"h. c #A18626",
"j. c #A48929",
"k. c #B3822E",
"l. c #AD8E31",
"z. c #A58937",
"x. c #B19031",
"c. c #B4873D",
"v. c #98884B",
"b. c #B69651",
"n. c #B9A355",
"m. c #8A867C",
"M. c #948678",
"N. c #BAA774",
"B. c #BB7981",
"V. c #7D8184",
"C. c #848283",
"Z. c #8D8A8A",
"A. c #8D8683",
"S. c #938E8A",
"D. c #9A9A9B",
"F. c #9B9A98",
"G. c #92908D",
"H. c #A48B88",
"J. c #AE9996",
"K. c #ACA196",
"L. c #9EA0A2",
"P. c #A7A9AA",
"I. c #B3ACA9",
"U. c #B2ADA3",
"Y. c #A6AEB2",
"T. c #ADB2B3",
"R. c #B5B3B4",
"E. c #BBB8B8",
"W. c #C8B694",
"Q. c #C8B6B8",
"!. c #CEC39E",
"~. c #D5C5AB",
"^. c #C6C3B1",
"/. c #BBBFC2",
"(. c #C9BFC1",
"). c #B9C5CA",
"_. c #BFCDD4",
"`. c #C3C7CA",
"'. c #D5C8C9",
"]. c #CCCFD1",
"[. c #C8D4D9",
"{. c #D4D4D2",
"}. c #DADCDC",
"|. c #D2D9DC",
" X c #D5D3C1",
".X c #E2D8D9",
"XX c #E9E9DF",
"oX c #CBDCE4",
"OX c #C0D5E0",
"+X c #D2DEE4",
"@X c #D5E0E6",
"#X c #D3E3EB",
"$X c #D9E6EE",
"%X c #DBE5E9",
"&X c #D4E7F0",
"*X c #D4EAF4",
"=X c #DAECF5",
"-X c #DDEFF8",
";X c #CEE5F0",
":X c #EAEBED",
">X c #E8E9E6",
",X c #F3EFED",
"<X c #E2EEF5",
"1X c #E4F1F9",
"2X c #ECF5FA",
"3X c #E9F1F5",
"4X c #F3F4F5",
"5X c #F4F9FB",
"6X c #F9FAFA",
"7X c None",
/* pixels */
"7X7X7X7X7X7X7X7X7X7X7X7X7X7X7X7X7X7X7X7X7X7X7X7X7X7X7X7X7X7X7X7X7X7X7X7X7X7X7X7X7X7X7X7X7X7X7X7X7X7X7X7X7X7X7X7X7X7X7X7X7X7X7X7X",
"7X7X7X7X7X7X7X7X7X7X7X7X7X7X7X7X7X7X7X7X7X7X7X7X7X7X7X7X7X7X7X7X7X7X7X7X7X7X7X7X7X7X7X7X7X7X7X7X7X7X7X7X7X7X7X7X7X7X7X7X7X7X7X7X",
"7X7X7X7X7X7X7X7X7X7X7X7X7X7X7X7X7X7X7X7X7X7X7X7X7X7X7X7X7X7X7X7X7X7X7X7X7X7X7X7X7X7X7X7X7X7X7X7X7X7X7X7X7X7X7X7X7X7X7X7X7X7X7X7X",
"7X7X7X7X7X7X7X7X7X7X7X7X7X7X7X7X7X7X7X7X7X7X7X7X7X7X7X7X7X7X7X7X7X7X7X7X7X7X7X7X7X7X7X7X7X7X7X7X7X7X7X7X7X7X7X7X7X7X7X7X7X7X7X7X",
"7X7X7X7X7X7X7X7X7X7X7X7X7X7X7X7X7X7X7X7X7X7X7X7X7X7X7X7X7X7X7X7X7X7X7X7X7X7X7X7X7X7X7X7X7X7X7X7X7X7X7X7X7X7X7X7X7X7X7X7X7X7X7X7X",
"7X7X7X7X7X7X7X7X7X7X7X7X7X7X7X7X7X7X7X7X7X7X7X7X7X7X7X7X7X7X7X7X7X7X7X7X7X7X7X7X7X7X7X7X7X7X7X7X7X7X7X7X7X7X7X7X7X7X7X7X7X7X7X7X",
"7X7X7X7X7X7X7X7X7X7X7X7X7X7X7X7X7X7X7X7X7X7X7X7X7X7X7X7X7X7X7X7X7X7X7X7X7X7X7X7X7X7X7X7X7X7X7X7X7X7X7X7X7X7X7X7X7X7X7X7X7X7X7X7X",
"7X7X7X7X7X7X7X7X7X7X7X7X7X7X7X7X7X7X7X7X7X7X7X7X7X7X7X7X7X7X7X7X7X7X7X7X7X7X7X7X7X7X7X7X7X7X7X7X7X7X7X7X7X7X7X7X7X7X7X7X7X7X7X7X",
"7X7X7X7X7X7X7X7X7X7X7X7X7X7X7X7X7X7X7X7X7X7X7X7X7X7X7X7X7X7X7X7X7X7X7X7X7X7X7X7X7X7X7X7X7X7X7X7X7X7X7X7X7X7X7X7X7X7X7X7X7X7X7X7X",
"7X7X7X7X7X7X7X7X7X7X7X7X7X7X7X7X7X7X7X7X7X7X7X7X7X7X7X7X7X7X7X7X7X7X7X7X7X7X7X7X7X7X7X7X7X7X7X7X7X7X7X7X7X7X7X7X7X7X7X7X7X7X7X7X",
"7X7X7X7X7X7X7X7X7X7X7X7X7X7X7X7X7X7X7X7X7X7X7X7X7X7X7X7X7X7X7X7X7X7X7X7X7X7X7X7X7X7X7X7X7X7X7X7X7X7X7X7X7X7X7X7X7X7X7X7X7X7X7X7X",
"7X7X7X7X7X7X7X7X7X7X7X7X7X7X7X7X7X7X7X7X7X7X7X7X7X7X7X7X7X7X7X7X7X7X7X7X7X7X7X7X7X7X7X7X7X7X7X7X7X7X7X7X7X7X7X7X7X7X7X7X7X7X7X7X",
"7X7X7X7X7X7X7X7X7X7X7X7X7X7X7X7X7X7X7X7X7X7X7X7X7X7X7X7X7X7X7X7X7X7X7X7X7X7X7X7X7X7X7X7X7X7X7X7X7X7X7X7X7X7X7X7X7X7X7X7X7X7X7X7X",
"7X7X7X7X7X7X7X7X7X7X7X7X7X7X7X7X7X7X7X7X7X7X7X7X7X7X7X7X7X7X7X7X7X7X7X7X7X7X7X7X7X7X7X7X7X7X7X7X7X7X7X7X7X7X7X7X7X7X7X7X7X7X7X7X",
"7X7X7X7X7X7X7X7X7X7X7X7X7X7X7X7X7X7X7X7X7X7X7X7X7X7X7X7X7X7X7X7X7X7X7X7X7X7X7X7X7X7X7X7X7X7X7X7X7X7X7X7X7X7X7X7X7X7X7X7X7X7X7X7X",
"7X7X7X7X7X7X7X7X7X7X7X7X7X7X7X7X7X7X7X7X7X7X7X7X7X7X7X7X7X7X7X7X7X7X7X7X7X7X7X7X7X7X7X7X7X7X7X7X7X7X7X7X7X7X7X7X7X7X7X7X7X7X7X7X",
"7X7X7X7X7X7X7X7X7X7X7X7X7X7X7X7X7X7X7X7X7X7X7X7X7X7X7X7X7X7X7X7X7X7X7X7X7X7X7X7X7X7X7X7X7X7X7X7X7X7X7X7X7X7X7X7X7X7X7X7X7X7X7X7X",
"7X7X7X7X7X7X7X7X7X7X7X7X7X7X7X7X7X7X7X7X7X7X7X7X7X7X7X7X7X7X7X7X7X7X7X7X7X7X7X7X7X7X7X7X7X7X7X7X7X7X7X7X7X7X7X7X7X7X7X7X7X7X7X7X",
"7X7X7X7X7X7X7X7X7X7X7X7X7X7X7X7X7X7X7X7X7X7X7X7X7X7X7X7X7X7X7X7X7X7X7X7X7X7X7X7X7X7X7X7X7X7X7X7X7X7X7X7X7X7X7X7X7X7X7X7X7X7X7X7X",
"7X7X7X7X7X7X7X7X7X7X7X7X7X7X7X7X7X7X7X7X7X7X7X7X7X7X7X7X7X7X7X7X7X7X7X7X7X7X7X7X7X7X7X7X7X7X7X7X7X7X7X7X7X7X7X7X7X7X7X7X7X7X7X7X",
"7X7X7X7X7X7X7X7X7X7X7X7X7X7X7X7X7X7X7X7X7X7X7X7X7X7X7X7X7X7X7X7X7X7X7X7X7X7X7X7X7X7X7X7X7X7X7X7X7X7X7X7X7X7X7X7X7X7X7X7X7X7X7X7X",
"7X7X7X7X7X7X7X7X7X7X7X7X7X7X7X7X7X7X7X7X7X7X7X7X7X7X7X7X7X7X7X7X7X7X7X7X7X7X7X7X7X7X7X7X7X7X7X7X7X7X7X7X7X7X7X7X7X7X7X7X7X7X7X7X",
"7X7X7X7X7X7X7X7X7X7X7X7X7X7X7X7X7X7X7X7X7X7X7X7X7X7X7X7X7X7X7X7X5 4 6 7X7X7X7X7X7X7X7X7X7X7X7X7X7X7X7X7X7X7X7X7X7X7X7X7X7X7X7X7X",
"7X7X7X7X7X7X7X7X7X7X7X7X7X7X7X7X7X7X7X7X7X7X7X7X7X< 3 4 4 k m k < X - i S ^ 7X7X7X7X7X7X7X7X7X7X7X7X7X7X7X7X7X7X7X7X7X7X7X7X7X7X",
"7X7X7X7X7X7X7X7X7X7X7X7X7X7X7X; 7X7X7X7X7X7X7Xx v v N x K r e [ Q.l F k 3 5 - 4 k 1 2 7X7X7X7X7X7X7X7X7X7X7X7X7X7X7X7X7X7X7X7X7X",
"7X7X7X7X7X7X7X7X7X7X7X7X7X7Xe.> 7X7X7X> # 8 y j v W W K ^  .~ K.q.I.i f S v m w j l K v 5 < 7X7X7X7X7X7X7X7X7X7X7X7X7X7X7X7X7X7X",
"7X7X7X7X7X7X7X7X7X7X7X7X7X7Xr U v v = 1 W K v C W P z p z v n {.8.'.>.S D S F n U Q D S m 3 l 7X7X7X7X7X7X7X7X7X7X7X7X7X7X7X7X7X",
"7X7X7X7X7X7X7X7X7X7X7X7XK / r J 4 = v v x  .L h z K ^ ~ K k H.q.Z ~.r.:.j 4 j v n F U > 4 3 + 4 > 7X7X7X7X7X3 7X7X3 7X7X7X7X7X7X",
"7X7X7X7X7X7X7X7X7X7X7X^ ! 2 r Q w K R W ^ z = > 1 = = | 6X4X.X,X:Xc.5.T 3 i 4 3 4 S m J x r j - 3 > 7X7X7X7X3 7X7X4 7X7X7X7X7X7X",
"7X7X7X7X7X7X7X# 7X7XQ r i h U U D / ^ 3 o ] I.> u 0 7 q ] 7.b.k.k.k.>.> O @ + - ; : 2 j m R S r - 4 v l D U 4 7X7X4 7X7X7X7X7X7X",
"7X7X7X7X7X7X7X3 7XD o.e v v m l R k O @ : } a.;.= $ $ : > :.5.k.5.>.s t } a 0 % @ * @ @ - j D E 4 l 3 1 3 m 2 7Xn F 7X7X7X7X7X7X",
"7X7X7X7X7X7Xl 3 7XE 2 m k k k m 1 # : 0 9 ] a..X` s 0 % = 3 4.5.6.v ] d .X] s ] [ ' t 9 7 # h j ^ ! K J j ( l - ! k 7X7X7X7X7X7X",
"7X7X7X7X7X7X4 ! ! j v j 1 k r 1 1 q q 0 u | s.@.v._ Z.} % > 6.5.>.] E.=.E./.B V B a B s 0 7 # e h / D h S K #.2 k j 7X7X7X7X7X7X",
"7X7X7X7X3 > n J i 1 j k v 1 p = $ % q 0 u '.s.H.g.` Z.L.u [ 7.5.>.A.Z.R.Z.'.-.' s y B s t 7 = o ; C Q w D 1 4 D Q 4 6 7X7X7X7X7X",
"7X7X7X7X4 3 ^ j v j v m l O > 7 $ $ d | t u.K..Xd.d.Y.*XT.r.<.5.>.K./.I.A.I.2.1.u 9 8 7 a y , # X O r e D 4 v 4 4 U > 7X7X7X7X7X",
"7X7X7X7X4 n w x r b S S 5   9 t t q 9 >X6X6Xn.n.d.v.;X=X1X{.W.~.2.5X%XK.,X2.m.2.Y 7 0 0 t 8 8 = . o e j ! 2 < D 5 3 # 7X7X7X7X7X",
"7X7X7X7X> ` U K b R i v 2   & 0 q : : a d.d.j.h._ %X*X=X2X5X4X4XN.5X>Xf.c.x.] 2.T @ @ $ % 9 0 >   w e J j S 3 S 4 4 # 7X7X7X7X7X",
"7X7X7X7X< v U ~ 1 ^ ^ c i & - > = % : > g d.h.d.6 <X&X=X<X4X5X4X4X:X}.f.l.x.z.1.2 : > : % % % %   v z ^ e i R D 2 5 # 7X7X7X7X7X",
"7X7X7X7X4 i 1 ^ e S b Q 1 j   X _.] } - ; _ d.,.5 @XoX&X#X#X:X:X>X|.[.z.l.l.z.Y X @ = > 0 0 u q & c y J i z ! v b - - 7X7X7X7X7X",
"7X7X7X7Xb j r i ~ w i W v c X   #XY.[.t O g d.,.A |.oXoX*X#X].`.`.R.L.m.j.l.2.o V.@ 0 } t u u : i i L A > J J > > j 7X7X7X7X7X7X",
"7X7X7X7X7X4 v / X.v e P R R 4 < #XOX*XY.F.r.d.,.` 1X=X;X=X@XP.-XD.;XB.V.g.l.` =.2X=.;X;X} % - 1 J N J N L ~ h k - - 7X+ 7X7X7X7X",
"7X7X7X7X7X4 j m ! o.w Q J X.P z m.).$X$XT.y.,.,.^.2X2X=X<X).C.=X*X=X[.;Xz.b.N.2X2X1X=X#XH O w J W ~ ~ e  .W U m 6 + 7X7X7X7X7X7X",
"7X7X7X7X7X7Xv D ! L K w.L w 1 p s =.F.Y.[.^.~.z.5X2X<X=X2XC.=.=X*X1X2X5X!.>XXX5X2X1XoXT.t e z J C K r r R C j ; + 3 7X7X7X7X7X7X",
"7X7X7X7X7X7Xj e S Q D h / L c z  .%.&.r.%.&.S.K.{.|.G.[.#Xe s $X*X-X2X5X5X5X5X:X].P.+.T.v c e P N z P h Q m l 4 m 7X7X7X7X7X7X7X",
"7X7X7X7X7Xl 7X1 D ) L Q S z K v p v u r N N %.i.M.S.;.`.[.> 1 +X*X-X2X2X}.U.p.%.$.0 ] ..P e L 3 j E o.o./ E n 2 o 7X7X7X7X7X7X7X",
"7X7X7X7X7X7X7X3 L v S S Q ^ e P J S L x e W X.$.F.;.$.P I j r G._.|.m.| y w G I a O.O.A p i c P J K D w > 3 - > 7X7X7X7X7X7X7X7X",
"7X7X7X7X7X7X7X2 r 2 3 m i S ! ! R ^ ^ J v C C j : 1 u e e J X.%.+.{ s { P I ~ z  ...A b L S j x x l Q D 3 5 7X7X7X7X7X7X7X7X7X7X",
"7X7X7X7X7X7XS R l 4 v l 6 l i S K m K v z r r C S P / W ~ ~ ..y W i A L ~ J A  .^ J A A 4 3 i x e 1 = - 5 S k 7X7X7X7X7X7X7X7X7X",
"7X7X7X7X7X7X3 4 4 j m 4 > 3 k m < m i F ! ^ R z r ~ W i L J J z C C v Q K W J j e e > h U m ! E m j ; 7X@ 5 j 7X7X7X7X7X7X7X7X7X",
"7X7X7X7X7X7X7Xl j 3 > m h K l n S 3 # k 4 Q ) ) / x 1 P ^ X.y o.9.X. .C v r n J Q m m m h r m m k g f 5 # . , 7X7X7X7X7X7X7X7X7X",
"7X7X7X7X7X7X7Xv j n / k k m n U 4 ; < 5 ; k j n Q C o.^ J 2 K / ^ o.v r 1 J v l n n k 4 e m k < l U D 4 4 7X7X7X7X7X7X7X7X7X7X7X",
"7X7X7X7X7X7X7Xv D / U h n m k w 5 3 < j 3 l r < 3 n 3 - r / E K x r x l j l x 2 , h D U l ! ! U Q Q F 7X7X7X7X7X7X7X7X7X7X7X7X7X",
"7X7X7X7X7X7X7Xn 7Xo.7Xf 4 w E 4 1 O < f 2 2 R 6 = 4 h m m ; v J > ; > > = > m F m > ; z K r Q D j 3 < 7X7X7X7X7X7X7X7X7X7X7X7X7X",
"7X7X7X7X7X7X7X7X7X7X7X4 ; , U j 1 - 4 4 < - F 3 + = > 4 3 j & < l 3 4 x ; n k 2 3 l h k o @ @ . - k b 7X7X7X7X7X7X7X7X7X7X7X7X7X",
"7X7X7X7X7X7X7X7X7X7X7X7X7Xf U 3 P f 4 - g 3 1 1 + + 4 n j : < 3 h 3 h h 3 ; h 1 h > k 3 7X7X7X7X7X7X7X7X7X7X7X7X7X7X7X7X7X7X7X7X",
"7X7X7X7X7X7X7X7X7X7X7X7X7Xm 3 m F < m 4 4 2 6 - - + 4 E j ; 1 x 2 > n 4 l 3 2 3 h 3 v 5 - 7X7X7X7X7X7X7X7X7X7X7X7X7X7X7X7X7X7X7X",
"7X7X7X7X7X7X7X7X7X7X7X7X7X7X4 k e.4 S F 3 3 1 @ ; 3 > m E 2 & l r 3 U k D x r l l h < D E 7X7X7X7X7X7X7X7X7X7X7X7X7X7X7X7X7X7X7X",
"7X7X7X7X7X7X7X7X7X7X7X7X7X7X7X7Xt.S i ! 1 5 r @ f 3 5 U E x 7X7Xl 4 m D n K = 2 r n v 7X7X7X7X7X7X7X7X7X7X7X7X7X7X7X7X7X7X7X7X7X",
"7X7X7X7X7X7X7X7X7X7X7X7X7X7X7X7Xt.w.L m 3 O 6 @ 7XE , l J w.7X7X7Xn l h K j 7X- 7X7X7X7X7X7X7X7X7X7X7X7X7X7X7X7X7X7X7X7X7X7X7X7X",
"7X7X7X7X7X7X7X7X7X7X7X7X7X7X7X7X7X7XR l < 7Xj @ 7X7Xm k m w.7X7X7X4 D < k Q 9.7X7X7X7X7X7X7X7X7X7X7X7X7X7X7X7X7X7X7X7X7X7X7X7X7X",
"7X7X7X7X7X7X7X7X7X7X7X7X7X7X7X7X7X7X7X7X7X7X7X7X7X7X7X7XU Q 7X7X7X; 7Xj < k 7X7X7X7X7X7X7X7X7X7X7X7X7X7X7X7X7X7X7X7X7X7X7X7X7X7X",
"7X7X7X7X7X7X7X7X7X7X7X7X7X7X7X7X7X7X7X7X7X7X7X7X7X7X7X7X7XF 7X7X7X- 7Xj 7X7X7X7X7X7X7X7X7X7X7X7X7X7X7X7X7X7X7X7X7X7X7X7X7X7X7X7X",
"7X7X7X7X7X7X7X7X7X7X7X7X7X7X7X7X7X7X7X7X7X7X7X7X7X7X7X7X7X7X7X7X7X+ 7X7X7X7X7X7X7X7X7X7X7X7X7X7X7X7X7X7X7X7X7X7X7X7X7X7X7X7X7X7X",
"7X7X7X7X7X7X7X7X7X7X7X7X7X7X7X7X7X7X7X7X7X7X7X7X7X7X7X7X7X7X7X7X7X+ 7X7X7X7X7X7X7X7X7X7X7X7X7X7X7X7X7X7X7X7X7X7X7X7X7X7X7X7X7X7X"
};
