/* XPM */
static char *result[] = {
/* columns rows colors chars-per-pixel */
"100 100 55 1 ",
"  c #B9C7CF",
". c #BDCACF",
"X c #BCD4D8",
"o c #B9E8E7",
"O c #BDE9E8",
"+ c #C3CDD2",
"@ c #C6D1D6",
"# c #CBD3D6",
"$ c #C4D4D9",
"% c #CCD7DA",
"& c #C2D8DC",
"* c #CDDADD",
"= c #D3D7D9",
"- c #D4DBDC",
"; c #D9DEDE",
": c #DCE1DF",
"> c #D6DEE1",
", c #DADEE1",
"< c #CEE0E3",
"1 c #C3ECEB",
"2 c #CAEEED",
"3 c #D6E3E4",
"4 c #DDE3E3",
"5 c #DEE9E7",
"6 c #DDE6E8",
"7 c #D6ECEC",
"8 c #DCEBEB",
"9 c #CEF0EF",
"0 c #DAF1EF",
"q c #CFF1F0",
"w c #D4F2F1",
"e c #DBF6F4",
"r c #DFF8F5",
"t c #E3E6E5",
"y c #E5E8E7",
"u c #E9E9E7",
"i c #E4E7E8",
"p c #E5EAEA",
"a c #EBEDEB",
"s c #F1EFEC",
"d c #E5F1EF",
"f c #EDF1EE",
"g c #F2F1EE",
"h c #E4F4F2",
"j c #ECF4F2",
"k c #E3FAF6",
"l c #EDFAF6",
"z c #E6FBF8",
"x c #ECFDF9",
"c c #F4F4F2",
"v c #F9F6F3",
"b c #F2FAF6",
"n c #FBF9F5",
"m c #F1FEF9",
"M c #FFFCF9",
/* pixels */
"oooooooooooooooooooooooooooooooooooooooooooooooooooooooooooooooooooooooooooooooooooooooooooooooooooo",
"ooooOooooooooOoooooooooooooooooOooooooOOooooOooooooooooooooooooooooooooooooooooOoooooooOoooooooooooo",
"oooOoooOooOooOoOoOooOooooOOOooOOOOoooOoOoooOooOoOoOoOOoOOooooOOOoOoOOooooOOOoooOOOOOOoOOooOoOoOoOoOo",
"OOOOOOOoOOOOOOoOOOOOOOOOOoOOOOOOoOOOOOoOOOOoOOOOOOOOoOOOOOOOOoOOOOOOOOOOOoOOOOOOOooOOOoOOOOoOOOOOOOO",
"OOOOOOOOOOOOOOOOOOOOOOOOOOOOOOOOOOOOOOOOOOOOOOOOOOOOOOOOOOO&OOOOOOOOOOOOOOOOO1OOOOOOOOOOOOOOOOOOOOOO",
"1OO1OO1OOOO1OOO1OOO11OOO1OO1OOOO1OOOOOOOOOO11OOOOOOOO1OOOOOOO1OO1OOOOO1OOOOOOOOO1OOOOOOOOOO1O1OOOO1O",
"O1OO11OO1OOOO1O11OO1OOO1OO1O1O1O1OO11O1OO11OOOO11O1O1OOOO11O1O1O1O1O1O1O1O1O1O1OO1O1OO1O1OOO1OOO1O1O",
"1OO11OO1O11O1O1OO1OO111O1OO1O1O11OO1O1O1O1O1O1O1O1O1O111O1O1O1O1O1O1O1OO1O1OO1O11OO111O1O111O11OO1O1",
"111O1O1111O1111O1O1O11O11O1O1O11111O1111O1O11O1OO1111O111OO111O11O1O1O111O1OO1O111O111O1OO1111111O1O",
"1O111111O1111O1111111O11111111111O111111111111111O1O11111111O111111111O1111111111O11111111O111O11111",
"1O11111111111111111111111111111111111111111O11111111111111111111111111111111111111111121111111111111",
"1111111111111111111111111111111111111111111112112111111111111111111111111111111111111111111111111111",
"1211112111111112211112111111112111121111111111111211111111111111111211111111111111112111111121111111",
"1121121121211111111211111221111111111121112112111111212112111212211112111221112111111111121111121112",
"1212111211121121212121111212121211111111212111112111112121111112111121121212211111112111111222111111",
"2121212122122221121212212121212122222221211222221122212122212212122212212121122222222122222121212212",
"2121212221221221222222212212121222222122222112122122221212222222222122222221212112122222222122222221",
"2221222222222222121212222122222222112222212222222222122222222121212212121222222222222122122222212222",
"2222222222222212222222222222212222222222212222222222222221222222222222222222222222212222222222222122",
"2222122222222222222222222222222221222222222222222222222222222222222222222222222222222222222122222222",
"222222922922922292222222229222922222222292922222222q222222292222922222222222222222222222222q2q222227",
"9992922929929299229922299229992299999222922992922222q2q29292222q22997q2229929222q22q22q222q222q222q2",
"99999999922992299qq2q2q9999999q99992999992999999q2qqqq2299q292qqq22qq92qqqq9qqqqq2qq2qqq2qq2qqqqqqq2",
"299929999999999999q29qq2299299299999992999999999qq2q2qqq99q2qqq2q2qq2qq2922q922qqq2q7q22qq2q2q222qq2",
"999999q9999q99999999q9999999qqq929q99999999999qq99qq99qq99qq99999999992w9q9q99qq2qqq9999w2q2w2qqqq2q",
"9qqqqqqqqq97qq9q999qqqqqq799qqqq99qqqqqqqq9q79qq9q9q999q9qqq9999qq9qw9qqqqqqqqqqqqqq999q2q2w2w2wqq99",
"qqqqqqqq999qqqqqqqqqqqqqqqqqqqqqqqqqqqqqqqqqqqqqqqqqqqqqqqqqqqqqqqqq999qqqqqqqqqqqqqqqqqqqqqw2w2qqqq",
"q7qqwqqqww9www7qqwqqqwqww7qq7qqqq7qqqq7qqwqwqqwqqq7qwqwqqqq7qqwqqwqqqww9qqqq7qqwqq7qqqq7qwqwwqwqqq7q",
"qqqwq7qq9w9wqqwq7wqqqwqqwqqw9q9qqq7qwqwqwqwqwqwqww9wqqqq7qqq7qwqqq7wqqqq7w9wqq7qqwwqwwqqqwwqqqqwwqqw",
"wwqwqwww9ww9wqqwqqwqqwwqwwwqwqwwwwqqwqwwqwqwwwqwwqq7wwwwwwwwqwwwwqwwwqwwwwqwwqqwwqwqwqwwqqwwwwqww7wq",
"wwwwwwwwwwwwwwwwwwwwwwwwwwwwwwwwwwwwwwwwqwwwwwwqwwwwwqqwwwqwwwwwwwwwwwwwwwwwwwwwwwwwwqwwwwwwwwwwwwww",
"wwqwwwwwwwwwwwqwwwwwwwwwwqwwwwwwwwwwwqwwwwwwwqwwwwqwwwwwwwwwwwwqwwqwwwqwwwwwwwwqwwwwwwwwwwwwwwwwwwww",
"wwwwwwwwwwwwwwwwewwwwwwwwwwwwwwwwwwwwwwewwwwwwwwwwwwwwewwwwwwwwwwwwwwwwwwwwwwwwwwwwwwwwewwwwwwwwwwww",
"wwewwwewwwewwwewwwwwwwweewwwwwwwewwwwwwwwewwwewwewwwwwwwewewwwewewwwwewwewwwwwewwwwwwwwwewwwewwwweww",
"wewwwewwewwwewwwweweewwwwwwewwwewwweewwewwwwwwewweewwwwwwwwwewwwwwewwwewweewwwwwewweewwewwwwwwewweww",
"ewewewewweewewewwwweweweweweweweewewwwewewewewwewwweeweeewewwwewewwwewweewweeweeweewwweweweeewweewee",
"eweweeweeweeweweeweewewweeweewewweweeeweeweeweeweweeweewewwweeweeweeweewweeweewwweweeeweewewweewwwew",
"weeeweewweeweweweeeweweeewweewweewewewewweweeeweeeweewweeeeeewweweeweweeewweeweeeweeewewewweeeweeewe",
"ewweeweeeweweeeeweweeeeeeeeeeeeeeeeeeeeeweweeweweweweweweeeeeeeeweweeeweeweweeeweeeweeeeweewweweewee",
"eeeeeeweeeeeeweeeeeeweeweeweeweeweeweweeeeeeeeeeeeeeeeeeewweeweeeeeeeweeeeeeweeeeweweeweeeeeeeeeeeee",
"eeeeeeeeeeeeeeeeeeeeeeeeeeeeeeeeeeeeeeeeeeeeeeeeeeeeeeeeeeeeeeeeeeeeweeeeeeeeeeeeeeereeeeeeeeeeeeeew",
"eeeeeeeeeeeeeeeeeeeeeeeeeeeeeeeeeeeeeeeeeeeeeeeeeeeeeeeeeeeeeeeeeeeeeeeeeeeeeeeeeeeeeeeeeeeeeeeeeeee",
"eeeeeeeeeeeeeeeeeeeeeeeeeeeeeeeeeeeeeeeeeeeeeereeeereeeeeeeereeeeeeeeeeeeeeeeeeeeeeeeeeeeeeeeeeeeere",
"eeeeeeeerereeeeeeeereeeeerheeeeereeeeekeeeeeereeeeeereeeeeeeeeeekeeeeeekeeereeeeeeeeeeeereeerereeeer",
"reerkkeekeerkeeeeeekrrreerreerrrekkeekeekeekeeerererrrrrerrrrerekeekrrerrerrrrerkeeekeerrrrerrrrrerr",
"rrreeeekeekeeekkkkeererrrrerrrereeeeeekekekeekrrrrrrererrrerrrrreekeeerrrrerrrrrkekeerrrrerrreererrr",
"rrekekkeekkekekeekkerrrrrrrrrrrrkkekkkeeeeeekererrererrrerrrrrehekekkerrrrrrrrrreeeerrrrrehrerrerrrr",
"rrkekekkkekkekekekekrrrrrrkrrrrkkekekekkkkkkekkrrrhrkhrrrhrrhrrrkekekkrrrkrrrrkrkkkkkrrrrrrrhrhkkrrk",
"rkekrkrrrkrrkrrrrkrrrkrrkrrrrkrrrrrrrrrkkrrrkrrrrkekrrkrrrrrrrrrrrkrrrrrrrrrrkrrrrrrkrrkrrkrrrrrrrrk",
"hkkkrkkrkrkrrkkkkkkrkrrkrkkkrrkrkkkrkkkkrrkrrrkkhkkkrkrkkkkrkkrkkrrkkkkrkkrkkkkrkkkrrrkkkkrrkkkrkrkr",
"kekkkkkhkkrkkkkrkkkkkkkrkkkrkkkkkrkkkrkkkkkkkkkkkkkehkkkkrkkkkkkkkzhkrkkkkkkkkkkkrkkkkkkkkkkkrkkrkkk",
"kkkkkkkkkkkkkkkkkkkkkkkkkkkkkkkkkkkkkkkkkkkkkkkkkkkzzkkkkkkkkkkkkkkkkkkkkkkkkkkkkkkkkkkkkkkkkkkkkkkk",
"zkkzkkkzkkzkkkkzkkzkkkkkkkkzkkzzkkkzkkkkkkzkkzkkkkkkzkkkkkkkkkkzkkkkkkkkkkkkzkkkkkkkzkkkkkzkkkkkkkkk",
"zzkzkzkzzkzkkzkzzkkzzzzzkzkzzzzzkkzkzzzzzkzzkzzkkzzkkkzkzzzkkzzkzkzzzzzzzkzkzkzzzzzzkzzkzkzkzzzzzzzk",
"kzkkkzkkzkkzzkzkkzkkkzzkzzkkkkzkzkkzzkkxzkkzzkkzzkzkzkkzzkkzzkzkkzzkzkzkzkzzkkxkkxkkkkzkzkkzkkzkkzkz",
"zzzzzzzzzzzzzzzzkkxzkzzzkkzzzzzzzzzzkzkkkkzzzzzzzzzzzzzzzzzzzzzzzkkzzzzzzzzkzkkkkkkzzkzzzzzzzzzzzzzz",
"zzzzzzzzzzzzzzzzzzzzzzzzzzzzzzzzzkzzzzzzzzzzzzzzzzzzzzzzzzzzzzzzzzzzzzzzzzzzzzzzxzzzzzzzzzzzzzzzzzzz",
"zzzzzzzzzzzzzzzzzzzzzzzzzzzzzzzzzzzzzzzzzzzzzzzzzzzzzzzzzzzzzzzzzzzzzzzzzzzzzzzzzzzzzzzzzzzzzzzzzzzz",
"zzxzzzzzzzzxzzzzzzzzzzzzzzzxzzzxzzzzxzzxzzzzxzzzzxzzzxzzzzzzzzxzzzzzxzzzxzzzxzzzzxkkzzxkzxzxzzzzzlzz",
"zxzzxxxzzzxzxxzxxzxzxxxzzxzxzxzzxxxzzzxzxzxzzxxzxzxzxzxzzzxzxxzxzxxzzxxzxzxzxzxzxzxxxzxxzxzzxzxxlzzz",
"xzxzxzxxxzzxzzxxzxxxxzzxxxxzzxxxxxxxxxxxzxxxzxxzxzxxxzxxxzzxzzxxxzxxxzzxxxzxxxzzxzzxxxzxxxzzxzxxxzxz",
"xxxxxzxzxxxxxxxzxzzxxxxzxzxxxzzxxkxxxzxzxzzxxzxxzxxzzxxzxxxxxxxzxzxzxxxzzxzxzxxxxxxzxzzxzxxxxxzzxxxx",
"zxxxxxxxxzxxxxxxxxxxxzxxxxzxxxxxxxxxxxxxxxxxxxxxzxxxxxzxxxxxxxxxxxxxxzxxxxxxxxzxxxxxxxxxxxzxxxxxxxxx",
"xxxxxxxxxxxxxxxxxxxxxxxxxxxxxxxxxxxxzxxxxxxxxxxxxxxxxxxxxxxxxxxxxxxxxxxxxxxxxxxxxxxxxxxxxxxxxxxxxxxx",
"xxxxxxxxxxxxxxxxxxxxxxxxxxxxxxxxxxxxxxxxxxxxxxxxxxxxxxxxxxxxxxxxxxxxxxxxxxxxxxxxxxxxxxxxxxxxxxxxxxxx",
"xxxxxxxxxxxxmxxxxmxxxxmxxxxxxmxxxxmxmxmxxxxxxxmxxxxxxmxxxxxxmxmxxxxxxxxmxxxmxxxxmxxxxxxxxmmxxxxxxxxx",
"xxxxxxxxxxmxxxmxxmmxmxxmmxmxxmmxmxxmxxmxmxmxmxxmmxmxxxmxxmxxxmxxmmxmxmmxmxmxmxxmxmmxxmxxxmxxmxmxxmmx",
"xxxxxxxxxxxxxmxmmxxmxxmxxmxmmxxmxmxxmxxmxmxmxxmxxmxmmmxmmxmmmxxmxxmxmxmxxmxxxmmxmxmxmxmmmxxmxmxmxmxm",
"lzlzzzxxxxxxxxxmxmxxmxxmxmmxmmxmxxmmmmxmmxmxmxxmmxmxmxmxmxmxxxmxxxmxxxmmxmxmmxmxxmmxmxmxmxmmmxmxxmxx",
"zlzzzzlzzzlmmxmxxmmmmmxmmxmxmxmmmmmxxxmmmmmxmmmxxmmmmmmmmxmmmmmmmmmmmmxmmmmmmmmmmmmmmmmmmmmmmmmmmmmm",
"lhkkkkhzhllxxmxmmmxxxxmmmmmmmmmmmmmmmmmxxxmmxxmmmmmmmmmmmmxmmmmmmmmmmmmmmmmmmxmmmmmmmmmmmmmmmmmmmmmm",
"hkhhhhhzzzlllxxbmxmmmmxmxmmmxmmmmmxmmxmxmmmxmmmmxmmxmxmmmmmmmmmxmmmxmmmmmmmmmmmmmmmmmmmmmmmmmmmmmmmm",
"ed0e0ehhkkkllzxxxmlmlmmmmmmxmmmmmmmmmmxmmxlxmbbxxmmxmxmmmxmmmmmmmmmmmlmmmmmmmmmmmmmmmmmmmmmmmmmmmmmm",
"l000000ehhklzllxlxmlmmlmmmmmmmmmmmmmmxbxxbxzxxxzmxxbxbmxmbmmxmmmmmmmmmmmmmmmmmmmmmmmmmmmmmmmmmmmmmMm",
"md709w0hhhjlllllmmmmmmmmmmmmmmmmmmmmmllxlllllllllxbxxxbxmbxbxmmxlbmxmmmmmmmxmlmmmmlmlmmmmmmmmmmmmmmm",
"ddp5:7d00hhjbmbbmmbmmmbmmmmmmMmmmxbmllblllllllllllxbljzlxmbxllbblxbxlllmmmmmmmlmbmmmlllbmllmlmmmmmmm",
"dfd55dfddjjllbblbblmmbmbmbbmmmmmmmmblbbldjhlllblljxcxclxcxmbmbbmbxblllblbbbMmllllbbllblllblbxmmmblmm",
"ffdyscvbgbjdljlbmblbbbbmnmmbbbbmbbbbbllblddddddjjjjjlbbjjjjlbjlbbbllljjlllmbmmbbbzllcjllllbjblbllbmb",
"%%XX&*<75570dllbbbbjlbbbmbbmnmbbbbmbbfddldddjjdllbcxjjjjjjjjjhjbbbllbjbbjbbbbnblbjjjhhjhhjhzjzzzzlll",
":$-::X%*:75dfjfljlcjjcjcbbbbmbmbbbbbbfddppdjccbgcbbnbjcjjjjjdphjjjjcbbbjjbbjjbbjjjzdhdhhdhjjjjjjllbb",
"::-::-:5i6pjdjjjjjcbfffflflbbbbjjcjcjcffffadfgbgcccccfbcccjjpdjccjjjjccbbnbjfjfdpjfjffdddjjjbjbbbbbm",
"::=%:--:>666idfffdccgfjfddfjjjbfjjjjfffaddp45pdajcccfaffjcccjiacjjadfjbccbnbd55djjajlcffjjcfjcbbnbbM",
"::::::4tpppddddfppfffaassydfffdfhppaaadfafp44355yjffccffjjccfpiaafaaajcfjccng8dafapjcfcvvvcvcccncbbb",
":::::::5ipffajfjppaffy:ufdydddddpy86tiyvngg4454333666ii66,66piiii38aaaaaadgbfcggfcffffcnnbbgccvbcbcc",
"yt:*-4446pjffdppffsggvuuffppdcf8ii64,,tsnvsyust:>,44t44,,,,,iiti444ypttpaaffafafccvsasgvfuggfcffgvcc",
"bga:4tttipaapffpajggsggudppafgba36iast,iussyysfuyiyaasagcggguiuspi4itppaauaayyfsccsaaaagfaggaaaaasgj",
"gsfasgaffpdjjccfcgggvsssgsaffcgfiiiaga,ityy5:dsutusguaaasvggssggp46psgaasaaaafvvccvccsppfagayaaptiuu",
"caaagscccccccccccgvvvvvgggfcvbccaitias4,tt:5:yt:tsupttiaggasssvsattupaafgafgssvvvvvccscstygatuauut4:",
"gfufffgffcccvvcnsssvvvccggcfccccaiaascsi,6,,,i,,;tt4tttuuussssussstttuscgggsaagggvggvvnvgavngassssuu",
"vgsgyyuasfcccccfaassaaaagfaacccccccsascii>>,,,,>--t4;4:ttuusuuuugsusspssvgsaauauggggggnnngvnggassssu",
"aty5:tafsfccfaaiiiiiiiiitpajcbccnaiaaascbsia,>*>---,4tt4ttiitttussasgsaasuuuuaaasuassasgvnnnvvssssuu",
"::::4yyuffcccffcsiiuauiiyfcccccccscavcccvcgpifuupt*,444-,,iissussauuasasuuu:yuuusuuuasgggnvnnvvgsssu",
";:t4ytuyaasccaccfcaiaiiasajjjffaaacvaagafscvgsgvvgsauaitiiavvgsvaauussaassuuyyyyuuyasuvngssvvvggvvsu",
"uuuuuupgsaaapcaajnciaaccfavncgaaaica,iasaacssaiigaui,uccsaassssvsasvggssaussuy:uyusaussgsvvuuggg4ts:",
"=:;-==,,iipiiaaacciicfsccccnnncjcaa,ifaapuatiiiiuuiiutuvsvgsgsgsausnvvvvvvsvvsuvvgvvsuvvvvvsutt;@@==",
" +..+#;;,afccfsciiisfaascccccncsccaiajvvgfsaiaiuiuiuaasgisvvaasaausvssgvvvnvsaugvggguusgvvvg:+.+@=##",
"#=====;::uagvvgaiiacccuavgccasiiiaaiiscsgii,6iiassiiiigsassaagisaasaiiaianvvisvssvgssutt,ussu:===;;=",
";;==:::::t,iuaiiiiiaccauvvcvviiiiiiiai,iaiiaiasaaiiiiiigggcgaiiaaaatpssaacvsagcvssgsstiuu,=uu,,,=:uu",
":;++=tuuu4,iaiiaii,iscsiiggavai,,*@@*>,iaaiasiaii,isiiisggagaagcaasgfiiiiiiiiiisuiiitsu,issttt,,;=,,",
"::::===:===icccvsai4iuiii,i,ia,,=**%,aiiacggiiiaaiassagsacvgigvvnvnvassaaaiuiiiuassssuiut,astuu,,,,u"
};
