/* XPM */
static char *result[] = {
/* columns rows colors chars-per-pixel */
"64 64 242 2 ",
"   c #060504",
".  c #0D0A06",
"X  c #0C0B0A",
"o  c #080807",
"O  c #120A06",
"+  c #120D0A",
"@  c #14120B",
"#  c #1B140D",
"$  c #1E190E",
"%  c #161511",
"&  c #1C1612",
"*  c #1D1914",
"=  c #22190E",
"-  c #23170E",
";  c #231C14",
":  c #2A1E15",
">  c #231F1A",
",  c #211711",
"<  c #311F12",
"1  c #2B2115",
"2  c #2B221B",
"3  c #27241B",
"4  c #322519",
"5  c #342B1C",
"6  c #3B2C1C",
"7  c #382616",
"8  c #37311C",
"9  c #292824",
"0  c #362C22",
"q  c #3A2E23",
"w  c #363124",
"e  c #3B3224",
"r  c #3C352A",
"t  c #34322A",
"y  c #3C3934",
"u  c #44331D",
"i  c #4C361C",
"p  c #553B1D",
"a  c #452F18",
"s  c #443524",
"d  c #4C3B24",
"f  c #443A2C",
"g  c #4B3C2A",
"h  c #463626",
"j  c #533D24",
"k  c #523D2B",
"l  c #583D27",
"z  c #463D33",
"x  c #442E22",
"c  c #4D412D",
"v  c #484024",
"b  c #544126",
"n  c #5B4425",
"m  c #54432C",
"M  c #5B452B",
"N  c #5C4A2C",
"B  c #4C4235",
"V  c #4A453B",
"C  c #534533",
"Z  c #5C4B33",
"A  c #554A3D",
"S  c #5A4C3A",
"D  c #574635",
"F  c #5B513C",
"G  c #5B5036",
"H  c #634B2C",
"J  c #63472A",
"K  c #634D32",
"L  c #654C37",
"P  c #625135",
"I  c #6B5434",
"U  c #65543B",
"Y  c #6A553B",
"T  c #6C5A3D",
"R  c #67583B",
"E  c #725B3D",
"W  c #715739",
"Q  c #6B4F31",
"!  c #72603D",
"~  c #564B43",
"^  c #5C5244",
"/  c #5C534A",
"(  c #595549",
")  c #5D5B53",
"_  c #424140",
"`  c #654E41",
"'  c #635442",
"]  c #645944",
"[  c #6C5C43",
"{  c #645B4A",
"}  c #6B5E4B",
"|  c #735D43",
" . c #745D4B",
".. c #645F55",
"X. c #6B6049",
"o. c #756244",
"O. c #7B6344",
"+. c #74644C",
"@. c #7A664B",
"#. c #7C6A4E",
"$. c #78694B",
"%. c #65635A",
"&. c #6B6457",
"*. c #736552",
"=. c #756A52",
"-. c #7B6B53",
";. c #746C5D",
":. c #7A6D5B",
">. c #786558",
",. c #7D725C",
"<. c #7B7259",
"1. c #6C6963",
"2. c #776D61",
"3. c #797367",
"4. c #7E7B72",
"5. c #836B4D",
"6. c #826649",
"7. c #88724E",
"8. c #816D53",
"9. c #856E57",
"0. c #857154",
"q. c #8A7355",
"w. c #83735B",
"e. c #8A755B",
"r. c #8C7A5D",
"t. c #84795E",
"y. c #937B5C",
"u. c #847562",
"i. c #857A64",
"p. c #8B7B63",
"a. c #83746B",
"s. c #847A6B",
"d. c #8B7D6B",
"f. c #887562",
"g. c #917D64",
"h. c #927C6B",
"j. c #857D71",
"k. c #887F75",
"l. c #816F60",
"z. c #8D8165",
"x. c #8D826C",
"c. c #85816C",
"v. c #938165",
"b. c #94846B",
"n. c #9A856B",
"m. c #96886B",
"M. c #9C8A6C",
"N. c #998265",
"B. c #8C8473",
"V. c #8C847A",
"C. c #85847B",
"Z. c #948673",
"A. c #948974",
"S. c #9B8C73",
"D. c #948B7B",
"F. c #9B8D7B",
"G. c #978777",
"H. c #9E937C",
"J. c #9B9177",
"K. c #A38D6E",
"L. c #A18867",
"P. c #A28E73",
"I. c #A38D7B",
"U. c #A39275",
"Y. c #A99475",
"T. c #A3947C",
"R. c #AA967B",
"E. c #A7997D",
"W. c #AB9A7D",
"Q. c #B29C7D",
"!. c #92805F",
"~. c #948D82",
"^. c #9E8F82",
"/. c #949284",
"(. c #9C9383",
"). c #999689",
"_. c #9C9991",
"`. c #A39583",
"'. c #A59A84",
"]. c #AB9C83",
"[. c #A59C8A",
"{. c #AB9D8A",
"}. c #A99686",
"|. c #B19D84",
" X c #B29F8D",
".X c #A99D91",
"XX c #B19E90",
"oX c #AEA186",
"OX c #ACA28C",
"+X c #A6A28D",
"@X c #B1A185",
"#X c #B2A48C",
"$X c #B9A98F",
"%X c #B5A98D",
"&X c #ADA492",
"*X c #ADA59A",
"=X c #AEA99A",
"-X c #A8A495",
";X c #B3A593",
":X c #B4A994",
">X c #BAAC94",
",X c #B5AB9A",
"<X c #BBAC9B",
"1X c #B0A699",
"2X c #BCB19C",
"3X c #BBB198",
"4X c #B5ADA2",
"5X c #B9ADA1",
"6X c #BDB4A3",
"7X c #BCB6A8",
"8X c #AFA8A0",
"9X c #C3B49C",
"0X c #C7BA9D",
"qX c #C1AB9A",
"wX c #C2B5A2",
"eX c #C3B9A5",
"rX c #CABBA5",
"tX c #C4BCAB",
"yX c #CABDAB",
"uX c #C7B6A7",
"iX c #CDBEB2",
"pX c #C4BEB1",
"aX c #C8B7A6",
"sX c #CCC2AD",
"dX c #C6C3AC",
"fX c #D2C4AE",
"gX c #CCC4B3",
"hX c #CBC6B6",
"jX c #D2C5B3",
"kX c #D3C9B4",
"lX c #D3C6BA",
"zX c #D4CBBB",
"xX c #DACCBC",
"cX c #DCC8BA",
"vX c #D9D1BD",
"bX c #E2D2BF",
"nX c #D8CDC2",
"mX c #DCD2C1",
"MX c #D9D3C6",
"NX c #E2D3C6",
"BX c #E2CEC3",
"VX c None",
/* pixels */
"VXVXVXVXVXVXVXVXVXVXVXVXVXVXVXVXVXVXVXVXVXVXVXVXVXVXVXVXVXVXVXVXVXVXVXVXVXVXVXVXVXVXVXVXVXVXVXVXVXVXVXVXVXVXVXVXVXVXVXVXVXVXVXVX",
"VXVXVXVXVXVXVXVXVXVXVXVXVXVXVXVXVXVXVXVXVXVXVXVXVXVXVXVXVXVXVXVXVXVXVXVXVXVXVXVXVXVXVXVXVXVXVXVXVXVXVXVXVXVXVXVXVXVXVXVXVXVXVXVX",
"VXVXVXVXVXVXVXVXVXVXVXVXVXVXVXVXVXVXVXVXVXVXVXVXVXVXVXVXVXVXVXVXVXVXVXVXVXVXVXVXVXVXVXVXVXVXVXVXVXVXVXVXVXVXVXVXVXVXVXVXVXVXVXVX",
"VXVXVXVXVXVXVXVXVXVXVXVXVXVXVXVXVXVXVXVXVXVXVXVXVXVXVXVXVXVXVXVXVXVXVXVXVXVXVXVXVXVXVXVXVXVXVXVXVXVXVXVXVXVXVXVXVXVXVXVXVXVXVXVX",
"VXVXVXVXVXVXVXVXVXVXVXVXcXnXNXVXVXVXVXVXVXVXVXxXlXgXiXVXVXVXVXVXVXVXxXxXnXVXVXVXVXVXVXVXVXNXBXcXBXVXVXVXVXVXVXVXVXVXVXVXVXVXVXVX",
"VXVXVXVXVXVXVXVXcXBXVXVX^.).`.7XVXVXVXVXVXVX1X:X=X&X<XVXVXVXVXVXVX*X&X=XwXyXVXVXVXVXVXVXxXeX:X;X:XjXVXVXVXVXVXVXVXVXVXVXVXVXVXVX",
"VXVXVXVXVXVXuXwXwX<X<X{.^ ,.3.u.VXVXcXbXVXVXt.c.B.D.Z.VXVXVXVXVXVX+.=.u.j.}.VXVXVXVXVX4X;X{.#X:X<X<XVXVXnXVXVXVXVXVXVXVXVXVXVXVX",
"VXVXVXVXVXVX{.;X:X1X{.+X5 Z X.F <X=X.X=XyXxX^ m b j c 5XgXyXgXlXa.L L U U } >.MXnXMXlXu.S.].;X:X].9.iXiX<X<XyXVXVXVXVXVXVXVXVXVX",
"VXVXVXVXVXVXb.H.H.:XOX[.& f S + ;.D.T.H.&XtX( 1 8 # z &X].].&X:X6Xc b n b 3 =X-X-X=X7X/ [ w.-.R c A 4X<X[.G.F.VXVXVXVXVXVXVXVXVX",
"VXVXVXVXVXVX' i.b.G.D.:.,XgXfXNX<.R $.<.-.z.4.5XeX*X~ w.B.A.Z.I.A.X w.rXV.& s.~./.).-X&.w Y 6 O X &.}.F.G.d.p.VXVXVXVXVXVXVXVXVX",
"VXVXVXVXVXVXVXk d d g - H.[.OXeXzXF C b b m A x.w.D.+.Z | @.-.] F .XmXlXhX3.( <.3.;.&.D.7X5XpXF.; B -.u.,.f.f.>.}.R.R.qXVXVXVXVX",
"VXVXVXVXVXVXVXVX}.XXV.3 $.g.J.oX2XhXX ( sXhX) U T $...5 m m d g A.xXeX,X3X1X* F G D 5 /.{.OX&X4XhX/.C S S U ` ' Y  .8.y.I.VXVXVX",
"VXVXVXVXVXVXVXVX&XD.1XdXF O.m.J.oX2X1.OXx.x.eXG d N s z S U # e.eXOXoX:X>X`.3.lXrXs.@ { :.B.D.`.(.(.0 6 g k # C j L |  .8.VXVXVX",
"VXVXVXVXVXVXVXu.w.w.b.,Xs.Z O.p.M.T.A.&XH.T.oX7X- <XbXmXxXxXxX:.p.U.].@XoXJ.;XW.:X<XyX:.N N K G K L a.[.V.k.V.k j j l M ` VXVXVX",
"VXVXVXVXVXVXVXVX+.x.G.'.j.+ N P R R =.6X:X>X1X].[.0XwX9XrX0XyX&.Y $.t.r.=.] x.J.{.%X>XeXB r z f.>.; j.d.>.*.} 6 x 6 7 a l VXVXVX",
"VXVXVXVXVXVXnXzXC T X.Z f % 0 p d ; B.1X:XOXJ.=.x.W.R.#X$X>X$X^ % Y E $.0 f S.E.R.].oX#X^.3.jXeX6XyX} a.l. .A 1.I.x x VXVXVXVXVX",
"VXVXVXVXVXqXOX7X4.3 6 b rXjXyXfXyX/ ' 8.w.+.U * r 0.y.M.M.M.t.rXmXkXdXgXsX{.X.0.w.8.8.$.s.eX>X&X{.{.r f g e *.OXJ.;XVXVXVXVXVXVX",
"VXVXVXVXVXi.M.].=X+ }.rX9X>X#XoXoX,X+ g d u :.4X1.g I ! O.! g {.%XeXwX>XW.d.M b b n N h B.,X&X'.F.p.2 B A X ).H.Z.'.VXVXVXVXVXVX",
"VXVXVXVXh.x.-.z.'.d.].oX].P.M.b.v.S.f =XyXtX&XD.F.( X B.fXeXA.$.W.>XeX%X0.f ;.u 5 e sX).<.z.S.p.-.F ,X+X&X+X*.p.B.F.VXVXVXVXVXVX",
"VXVXVXVXVX$.| [ R C 6.q.e.q.#.o.| [ 1.(.=X=XD.X.S :.tXOXe.H ' H o.S.T.#.$.gX7XgXV /.=X,XZ.G K H C 0 x.b.i.X.g U -.t.Z.VXVXVXVXVX",
"VXVXVXVXVXd i l ^ ~.n n n n n N I 5 3 R i.F.Z.:.U +.S.S.#X0X_ @ m H J } 7X+XT.&X7XD.H.(.7X^ ; <.tX;.[ [ c B ( K H P VXVXVXVXVXVX",
"VXVXVXVXVXVXVXVXjXyXV : Z g 6 B lXlXhXA n U 9.-.^ C A.`.oX:X3 7XhXdXX &X(.E.'.+X2Xx.H.F.(.,X&.7XtXdX' 8 OX6X2XsX; 1XlXlXVXVXVXVX",
"VXVXVXVXVXVXVXXXrXwX3.=X7X).o c.oX<X6XsXA w m 6 + 5 T 0.!.-.3X&X+X,XB.S.H.'.oX:X&X] p.F.v.u.} (.{.OX/.,X:XT.S.D.V.{.S.H.qXVXVXVX",
"VXVXVXVXVXVXVXS.].<X(.H.D.=X-XC -.E.<X6XdX& -.cXNXxX[ d d e OX[.oX:XdXP $.x.T.H.Z.= K G P *.0 o.-.<.U D.'.].T.h.;.b.Z.b.G.VXVXVX",
"VXVXVXVXVXVXVXo.e.U.oXD.z.(.5X:XZ T v.'.,XV.3XsXwXrXvXsX^ ~ '.OX&X,X&X1 D U P K Z nXB.- s.<X XI.Z Z ; { b.].U.^ V S.Z.i.w.VXVXVX",
"VXVXVXVXVXVXVXY Q I } x.x.A.`.=X( M n Y -.m.E.>X>X].Q.qXkX} z.H.T.z.-.6XhXkX] . '.yXyX4.F.g.f.n.~ .X{.T.N ] L o w b.S.d.VXVXVXVX",
"VXVXVXVXVXVXNX<XH m @ ] x.c.c.d.V * Z N j D C i.W.@XU.M.m.) d Q P u A.oXoX[.>X&.}.@X|.9XP 8.p.e.i.e.[ d., = ^.5Xr $.d.9.VXVXVXVX",
"VXVXVXVXVXyXfXcX4.A tXm u F C c 7XtXgX3.5 sX4.m H $.0.q.-.B /.eXdXV.x.[.E.S.m.{.p.].oX#X: d M g ( f.-.-.&.4.9X<X:XVXVXVXVXVXVXVX",
"VXVXVXVXVX>X>X>XD.S.;X2Xx.@ . OX[.].:X6X~.7XdX7X} < 1 1 f.sX6X,X+X{.] T.T.m.p.g.m g.U.y.2 z u 3 f 0.w.:.G.i.S.S.]. XVXVXVXVXVXVX",
"VXVXVXVXh.T.S.r.{ R t.J.OX;.4.Z.H.'.`.(.F J.=X,XdX-X% 7XeX:X{.D.i.*.# T r.q.-. .y H H ] gXuXuXyXZ.M o.-.-.0.{.oX&XuXVXVXVXVXVXVX",
"VXVXVXVXVXE H P # f Y w.b.z.i.J.J.S.A.s.@ ] b.(.*X4XB.&X1X[.A.t.| C o = b N h eXwX2X; (.:X>X;X9XwXD 4 Z D C '.wX2X>XVXVXVXVXVXVX",
"VXVXVXVXVXVXl :.MX,XZ N Y ] U o.-.-.$.F o 5 U =.s.d.e :.p.f.0.U P 1.lXlXjX~.y eX%X;XuXZ.].]. X<X<X`.9 gXxX/ Y b.].G.VXVXVXVXVXVX",
"VXVXVXVXVXVXVXw.].wX=Xs c 3 w I P Y T X y _.d.S Z -.4.A N H N D jXgX<X#X'.;X&X>X>X>XwXP.h.T.W.;X#XF.yX|.Y.$X~ ; 5 &XiXVXVXVXVXVX",
"VXVXVXVXVXVXVXw.S.W.:X1.y vXmXV.4 &.2XlXrXuXyXj.D.nXgXzX7XA o .X>X{.}.p.e.f.w.].3X7XwXeXg Y 0.0.$.*.|.K.L.Y.9X@ D.,X<X7XVXVXVXVX",
"VXVXVXVXVXVXVXS.J.S.E.[.7XyXdXdX'.9X9X:X{.`.'.OXoX<X:X>X2XdX6X-.w.9.-.@.T g S M.#X>X%X#Xo O 4 p # OX|.Y.Y.R.@XOXD.`.;X,X<XVXVXVX",
"VXVXVXVXVXVXVXw.p.8.#.=.6X5XeX-X3 T @X#X{.P.b.*.L g.#X<X6X9X6Xq M L M l m 9 * o.O.0.5.o.&.tXdX0XOXU.W.|.|.R.|.aX .-.F.`.F.VXVXVX",
"VXVXVXVXVXVXVXL M n n ' 3X;X>X=X  + T U.P.m.f.: @ H #.T.:X].z.* B -.z _ 9X'. XtXT.m p '.fX0X%XW.W.n 6.K.W.oXR.>XZ M [ w.+.VXVXVX",
"VXVXVXVXVXVXVXVXVXe o j.&X'.E.B.9 %.y j E | [ o o 3 I P I P T.MXnXzXxXz.U.T.g.0.v.<.+X9X>XW.Y.M.w.> j M W m.h.@., j j d VXVXVXVX",
"VXVXVXVXVXVXlXdXhXlXiX:.m.f.[ 0.{.S.>X+Xg - ).zXzXtX,XG 1 d.zXjX2X#X|.+.Z.:XoX0.O.-.U.Y.Y.K.!.$.S tXwXa.O @ - *.uX}.VXVXVXVXVXVX",
"VXVXVXVXVX>XOXH.J.m.:.: K M u :.f.N.S.S.w.d.+X[.`.[.+X-Xt eXeX$XE.b.x.- U K.$XS.o.= X.7.!.7.E % ~.}.P.'./ o u.K.P.P.VXVXVXVXVXVX",
"VXVXVXVXa.S.S.b.t.<.e %.:X(.9 B L.b.0.R * { '.J.Z.p.Z.x.r m.U.U.M.y.X.%.:.d k ' gXMX(.m Z c X X H.P.n.S.,Xf #.7.5.y.VXVXVXVXVXVX",
"VXVXVXVXVXw.p.z.t.-.>X@XW.Q.rXD.0 b G 2X_.c p.x.w.,.i.f.9 D I W W T 2XfXfX>Xt ,XT.S.{.( 2X9XkXH.f.h.b.T.XXwXL l j J VXVXVXVXVXVX",
"VXVXVXVXVXm P T P m ! 7.q.q.N.#X9 `.%XQ.$XoXU X.[ ] P s.kXdXf + e yX3X@X].].=.O.P N K <X$XW.W.#X+.Y 0.b.I.|.<XVXVXVXVXVXVXVXVXVX",
"VXVXVXVXVXVXVXk VXs.u p J W ! O.%XE.J.S.U.W.; g d 1 O [.:X2XtX% 6X@XU.S.K.p.5 K M M 7 w.Y.@XU.U.f.5 b K E 6.>.tXyXtXlXVXVXVXVXVX",
"VXVXVXVXVXVXVXVX&X+X,.= p p l i S.M.M.m.y.t.9 4.OX).@ i.U.oXeX;.r.e.8.6.E =.tXOXD.V.~ ( r.W.Y.U.{..   # - # w J.W.].OX6XVXVXVXVX",
"VXVXVXVXVXVXVXVXD.Z.'.3.o O ; + T 7.r.#.E i.kX0XyXfX=X0.h.M.U.>Xh N $.U 1 dXsXjXkXkXxXw.M W O.8.b.) -XvXnX6Xw [ t.Z.U.oX;XVXVXVX",
"VXVXVXVXVXVXVXVXf.-.v.V.* =XeXdXx.d m v -.0X>X%X#X<XOXR 6.8.o.T 3.dX:X>X`.P.].$X>X%X@XT.@ 1 j p K J.,X'.].2X+Xn N @.p.n.G.VXVXVX",
"VXVXVXVXVXVXVX` U G N S D.E.'.'.;X6X* % 3XoXE.Y.U.E.B.7 H H N @ ^ m.b.M.@Xw.o.5.5.Y H D 6X6Xd., 1 {.T.b.N.E..XO m n L E VXVXVXVX",
"VXVXVXVXVXVXVXVXu a d + :.v.x.b.I.#X<X9 b.M.J.Y.U.v.] _.2.# ) zXc.#.M.E.oX[.s Z k :   { n.h.].<X; [.T.S.m.n.d.1.hXh.VXVXVXVXVXVX",
"VXVXVXVXVXVXVXVXVXVXwXnX=.T -.e.b.U.{.%.T 7.!.M.r.| #XM.I.;.-XE.&XP 0.W.oX#X_ 7XnXhX) B @.8.r.I.T.].'.W.T.A.:.pX>X4XVXVXVXVXVXVX",
"VXVXVXVXVXeX>X0XfX{.'.R.*Xu Z 5.f.p.S.~.. m I I m a.e.y.g.T.(.}.T.f m P $.o.<X].^.|.<X:.M | | I 4 A. X].T.e.`.]. X;XVXVXVXVXVXVX",
"VXVXVXVXVX%XY.K.b.J.Z.r.x.% , j I o.@.w.nXMX).> o w.e.8.8.-.-.S.I.) 9 A w * d.g.h.g.N.G.+ d s ; X +.P.E.g.x =.r.}.;XVXVXVXVXVXVX",
"VXVXVXVXVX].R.M.[ -.8.q.$.> C.&.h j s p.$X$X9XzX~.[ | W U f s ! N.x.{.g.S..X=.e.p.e.8.f.nXfXfXfXzXA N E k > Q I r.].VXVXVXVXVXVX",
"VXVXVXVXVXr.g.I & S H M U gXfXlXkX+X) i.n.S.R.:XgX' j j c y 9 S f w.+.=.$.e.s Y | W k  XY.Q.Q.Q.Q.{.  0 gXrXj n H Y VXVXVXVXVXVX",
"VXVXVXVXVXVXp D.fXtXB 5 w.;X|.$XeXyXgXD 9.N.I.R.>XeX+ ..rX9XeXtXt 2.-.-.| [ % 0 C & o g.g.R.R.Y.W.R.3.rX9X9X4 2 :.wXVXVXVXVXVXVX",
"VXVXVXVXVXVXVXU.M.P.wX9 d.b.e.r.N.P.g.X Z q.S.Y.#X#X^ {.b.b.S.W.6X+.p.w.] [ C.pXtXhXV.w.K.W.Y.Y.Y.n.Y.U.|.>X~ gXfXrXjXVXVXVXVXVX",
"VXVXVXVXVXVX'.K.e.q.y.>X=.e.| I J H R lX;.H r.S.T.R.S p.p.p.f.g.Z.c 8. .U U d.g.m.R.:X' y.K.Y.L.L.q.h.h.P.|.I.{.Q.Y.|.VXVXVXVXVX",
"VXVXVXVXVXVXd.0.o.o.@.+.k J H p j S uXwXwX] j I W I VXo.w.w.r.w.-.VXY v.p.D T #.w.p.g.a.VXVXVXW | a.Y.L.g.L.| q.h.q.6.VXVXVXVXVX",
"VXVXVXVXVXVXk H K l i i VXVXVXVXVX&XS.P.#X{.VXVXVXVXVXm | $.#.o.M VXVXVXVXVXVXN d.b.w.` VXVXVXVXVXVXK.L.q.6.VXJ J J VXVXVXVXVXVX",
"VXVXVXVXVXVXVXVXVXVXVXVXVXVXVXVXVXv.8.5.q.' VXVXVXVXVXVXj K J l VXVXVXVXVXVXVXVX+.e.#.VXVXVXVXVXVXVX| 5.J Q VXVXVXVXVXVXVXVXVXVX",
"VXVXVXVXVXVXVXVXVXVXVXVXVXVXVXVXVXj p i a VXVXVXVXVXVXVXVXi d VXVXVXVXVXVXVXVXVXVXJ VXVXVXVXVXVXVXVXVXVXVXVXVXVXVXVXVXVXVXVXVXVX",
"VXVXVXVXVXVXVXVXVXVXVXVXVXVXVXVXVXVXVXVXVXVXVXVXVXVXVXVXVXVXVXVXVXVXVXVXVXVXVXVXVXVXVXVXVXVXVXVXVXVXVXVXVXVXVXVXVXVXVXVXVXVXVXVX",
"VXVXVXVXVXVXVXVXVXVXVXVXVXVXVXVXVXVXVXVXVXVXVXVXVXVXVXVXVXVXVXVXVXVXVXVXVXVXVXVXVXVXVXVXVXVXVXVXVXVXVXVXVXVXVXVXVXVXVXVXVXVXVXVX",
"VXVXVXVXVXVXVXVXVXVXVXVXVXVXVXVXVXVXVXVXVXVXVXVXVXVXVXVXVXVXVXVXVXVXVXVXVXVXVXVXVXVXVXVXVXVXVXVXVXVXVXVXVXVXVXVXVXVXVXVXVXVXVXVX"
};
