/* XPM */
static char *result[] = {
/* columns rows colors chars-per-pixel */
"64 64 202 2 ",
"   c #5E483F",
".  c #6F4C3D",
"X  c #704C3D",
"o  c #7D4F3C",
"O  c #7F4F3C",
"+  c #4A4847",
"@  c #4E4C4B",
"#  c #594740",
"$  c #504845",
"%  c #5F4A41",
"&  c #554B48",
"*  c #554C48",
"=  c #564C48",
"-  c #5B514C",
";  c #5B524E",
":  c #5A524F",
">  c #5C524E",
",  c #634B41",
"<  c #604B42",
"1  c #604B43",
"2  c #624C43",
"3  c #654D43",
"4  c #634E45",
"5  c #664E44",
"6  c #674F45",
"7  c #644F46",
"8  c #684F46",
"9  c #695147",
"0  c #665148",
"q  c #675149",
"w  c #63554F",
"e  c #6A5349",
"r  c #68534A",
"t  c #6C554B",
"y  c #69544C",
"u  c #6A554C",
"i  c #6B564E",
"p  c #6D564C",
"a  c #6D564D",
"s  c #6D584F",
"d  c #765041",
"f  c #70584E",
"g  c #635954",
"h  c #6D5850",
"j  c #6E5A51",
"k  c #6F5C54",
"l  c #715B51",
"z  c #725A50",
"x  c #705C53",
"c  c #735C52",
"v  c #735F57",
"b  c #755E54",
"n  c #745F56",
"m  c #78635B",
"M  c #9B5437",
"N  c #935238",
"B  c #945338",
"V  c #955439",
"C  c #9A563A",
"Z  c #9E5538",
"A  c #9D5638",
"S  c #9E573A",
"D  c #A25739",
"F  c #A45738",
"G  c #A35839",
"H  c #A55838",
"J  c #A55A3B",
"K  c #A65A3B",
"L  c #A0593C",
"P  c #A75B3C",
"I  c #A85939",
"U  c #A95939",
"Y  c #A85A39",
"T  c #A95A39",
"R  c #A95A3A",
"E  c #AA5A3A",
"W  c #AB5A3A",
"Q  c #AB5B3A",
"!  c #AC5B3A",
"~  c #AC5B3B",
"^  c #AC5C3B",
"/  c #AD5C3B",
"(  c #AE5C3B",
")  c #AE5D3B",
"_  c #AF5D3B",
"`  c #AA5D3E",
"'  c #AA5E3E",
"]  c #AB5E3F",
"[  c #AE5D3C",
"{  c #AF5D3C",
"}  c #B05D3C",
"|  c #B05E3C",
" . c #B15E3C",
".. c #B05E3D",
"X. c #B15F3D",
"o. c #B25F3C",
"O. c #B25F3D",
"+. c #B35F3D",
"@. c #B45F3D",
"#. c #B4603D",
"$. c #B5603D",
"%. c #B4603E",
"&. c #B5603E",
"*. c #B4613E",
"=. c #B4613F",
"-. c #B5613F",
";. c #B6613E",
":. c #B7613E",
">. c #B6613F",
",. c #B7623F",
"<. c #B8613E",
"1. c #B8623E",
"2. c #B8623F",
"3. c #B9623F",
"4. c #B9633F",
"5. c #BA633F",
"6. c #BB633F",
"7. c #845440",
"8. c #895844",
"9. c #895845",
"0. c #895945",
"q. c #8E5D4A",
"w. c #8E5E4A",
"e. c #A25D40",
"r. c #A45D40",
"t. c #A45F42",
"y. c #A65F42",
"u. c #93634F",
"i. c #8B6859",
"p. c #8F6B5C",
"a. c #936350",
"s. c #996955",
"d. c #906C5C",
"f. c #9C6E5B",
"g. c #9F6F5B",
"h. c #A86143",
"j. c #A96243",
"k. c #AE6141",
"l. c #AF6242",
"z. c #A96245",
"x. c #AB6449",
"c. c #AD6649",
"v. c #AF684B",
"b. c #AB684D",
"n. c #B06243",
"m. c #B36545",
"M. c #B46645",
"N. c #B56646",
"B. c #B96340",
"V. c #B86341",
"C. c #BB6340",
"Z. c #BA6441",
"A. c #BB6441",
"S. c #BC6440",
"D. c #BD6440",
"F. c #BD6540",
"G. c #BC6541",
"H. c #BE6540",
"J. c #BE6541",
"K. c #BE6641",
"L. c #BD6642",
"P. c #BD6643",
"I. c #BE6643",
"U. c #BF6743",
"Y. c #B16A4D",
"T. c #B36B4E",
"R. c #B96948",
"E. c #BA6A49",
"W. c #BB6B4A",
"Q. c #BE6D4C",
"!. c #B46D50",
"~. c #B66F52",
"^. c #B66F54",
"/. c #B47357",
"(. c #B67256",
"). c #BA7356",
"_. c #BC7557",
"`. c #B67358",
"'. c #B1745B",
"]. c #B87458",
"[. c #BC7659",
"{. c #BD7859",
"}. c #BF785D",
"|. c #967161",
" X c #917E76",
".X c #BD7E62",
"XX c #C16B48",
"oX c #C16D4A",
"OX c #C07252",
"+X c #C37C5F",
"@X c #C37E61",
"#X c #C58062",
"$X c #C78164",
"%X c #C88366",
"&X c #CC8568",
"*X c #CD876A",
"=X c #C7896D",
"-X c #CB896D",
";X c #B29D93",
":X c #D59B83",
">X c #D79D85",
",X c None",
/* pixels */
",X,X,X,X,X,X,X,X,X,X,X,X,X,X,X,X,X,X,X,X,X,X,X,X,X,X,X,X,X,X,X,X,X,X,X,X,X,X,X,X,X,X,X,X,X,X,X,X,X,X,X,X,X,X,X,X,X,X,X,X,X,X,X,X",
",X,X,X,X,X,X,X,X,X,X,X,X,X,X,X,X,X,X,X,X,X,X,X,X,X,X,X,X,X,X,X,X,X,X,X,X,X,X,X,X,X,X,X,X,X,X,X,X,X,X,X,X,X,X,X,X,X,X,X,X,X,X,X,X",
",X,X,X,X,X,X,X,X,X,X,X,X,X,X,X,X,X,X,X,X,X,X,X,X,X,X,X,X,X,X,X,X,X,X,X,X,X,X,X,X,X,X,X,X,X,X,X,X,X,X,X,X,X,X,X,X,X,X,X,X,X,X,X,X",
",X,X,X,X,X,X,X,X,X,X,X,X,X,X,X,X,X,X,X,X,X,X,X,X,X,X,X,X,X,X,X,X,X,X,X,X,X,X,X,X,X,X,X,X,X,X,X,X,X,X,X,X,X,X,X,X,X,X,X,X,X,X,X,X",
",X,X,X,X,X,X,X,X,X,X,X,X,X,X,X,X,X,X,X,X,X,X,X,X,X,X,X,X,X,X,X,X,X,X,X,X,X,X,X,X,X,X,X,X,X,X,X,X,X,X,X,X,X,X,X,X,X,X,X,X,X,X,X,X",
",X,X,X,X,X,X,X,X,X,X,X,X,X,X,X,X,X,X,X,X,X,X,X,X,X,X,X,X,X,X,X,X,X,X,X,X,X,X,X,X,X,X,X,X,X,X,X,X,X,X,X,X,X,X,X,X,X,X,X,X,X,X,X,X",
",X,X,X,X,X,X,X,X,X,X,X,X,X,X,X,X,X,X,X,X,X,X,X,X,X,X,X,X,X,X,X,X,X,X,X,X,X,X,X,X,X,X,X,X,X,X,X,X,X,X,X,X,X,X,X,X,X,X,X,X,X,X,X,X",
",X,X,X,X,X,X,X,X,X,X,X,X,X,X,X,X,X,X,X,X,X,X,X,X,X,X,X,X,X,X,X,X,X,X,X,X,X,X,X,X,X,X,X,X,X,X,X,X,X,X,X,X,X,X,X,X,X,X,X,X,X,X,X,X",
",X,X,X,X,X,X,X,X,X,X,X,X,X,X,X,X,X,X,X,X,X,X,X,X,X,X,X,X,X,X,X,X,X,X,X,X,X,X,X,X,X,X,X,X,X,X,X,X,X,X,X,X,X,X,X,X,X,X,X,X,X,X,X,X",
",X,X,X,X,X,X,X,X,X,X,X,X,X,X,X,X,X,X,X,X,X,X,X,X,X,X,X,X,X,X,X,X,X,X,X,X,X,X,X,X,X,X,X,X,X,X,X,X,X,X,X,X,X,X,X,X,X,X,X,X,X,X,X,X",
",X,X,X,X,X,X,X,X,X,X,X,X,X,X,X,X,X,X,X,X,X,X,X,X,X,X,X,X,X,X,X,X,X,X,X,X,X,X,X,X,X,X,X,X,X,X,X,X,X,X,X,X,X,X,X,X,X,X,X,X,X,X,X,X",
",X,X,X,X,X,X,X,X>X>X>X>X>X>X>X>X>X>X>X>X>X>X>X>X>X>X>X>X>X>X;X>X>X>X>X>X>X>X>X>X>X>X>X>X>X>X>X>X>X>X>X>X>X,X,X,X,X,X,X,X,X,X,X,X",
",X,X,X,X,X,X,X:X&X&X&X&X&X&X&X&X&X&X&X&X&X&X&X&X&X&X&X&X&X*X X&X&X&X&X&X&X&X&X&X&X&X&X&X&X&X&X&X&X&X&X&X&X,X,X,X,X,X,X,X,X,X,X,X",
",X,X,X,X,X,X,X=XS.S.S.S.S.S.S.S.S.S.S.S.S.S.S.S.S.S.S.S.S.P.m S.S.S.S.S.S.S.S.S.S.S.S.S.S.S.S.S.S.S.S.S.S.,X,X,X,X,X,X,X,X,X,X,X",
",X,X,X,X,X,X,X.X<.<.<.<.<.<.<.<.<.<.<.<.<.<.<.<.<.<.<.<.<.V.n <.<.<.<.<.<.<.<.<.<.<.<.<.<.<.<.<.<.<.<.<.1.,X,X,X,X,X,X,X,X,X,X,X",
",X,X,X,X,X,X,X/.@.@.@.@.@.@.@.@.@.@.@.@.@.@.@.@.@.@.@.@.@.=.l @.@.@.@.@.@.@.@.@.@.@.@.@.@.@.@.@.@.@.@.@.@.,X,X,X,X,X,X,X,X,X,X,X",
",X,X,X,X,X,X,Xb.} } } } } } } } } } } } } } } } } } } } } ..a } } } } } } } } } } } } } } } } } } } } } } ,X,X,X,X,X,X,X,X,X,X,X",
",X,X,X,X,X,X,Xt.! ! ! ! ! ! ! ! ! ! ! ! ! ! ! ! ! ! ! ! ! ^ e ! ! ! ! ! ! ! ! ! ! ! ! ! ! ! ! ! ! ! ! ! ~ ,X,X,X,X,X,X,X,X,X,X,X",
",X,X,X,X,X,X,XA T T T T T T T T T T T T T T T T T T T T T Y 6 T T T T T T T T T T T T T T T T T T T T T T ,X,X,X,X,X,X,X,X,X,X,X",
",X,X,X,X,X,X,X,X= = = = = = = = = = & = = = = = = = = = = = @ = = = = = = = = = = * = = = = = = = = = = - ,X,X,X,X,X,X,X,X,X,X,X",
",X,X,X,X,X,X,X%XJ.J.J.J.J.J.J.J.J.J.v U.J.J.J.J.J.J.J.J.J.J.J.J.J.J.J.J.J.J.J.J.J.g.Q.J.J.J.J.J.J.J.J.J.K.,X,X,X,X,X,X,X,X,X,X,X",
",X,X,X,X,X,X,X}.5.5.5.5.5.5.5.5.5.5.x Z.5.5.5.5.5.5.5.5.5.5.5.5.5.5.5.5.5.5.5.5.5.s.R.5.5.5.5.5.5.5.5.5.5.,X,X,X,X,X,X,X,X,X,X,X",
",X,X,X,X,X,X,X^.;.;.;.;.;.;.;.;.;.;.s >.;.;.;.;.;.;.;.;.;.;.;.;.;.;.;.;.;.;.;.;.;.u.m.;.;.;.;.;.;.;.;.;.;.,X,X,X,X,X,X,X,X,X,X,X",
",X,X,X,X,X,X,Xv.o.o.o.o.o.o.o.o.o.o.y O.o.o.o.o.o.o.o.o.o.o.o.o.o.o.o.o.o.o.o.o.o.w.k.o.o.o.o.o.o.o.o.o.o.,X,X,X,X,X,X,X,X,X,X,X",
",X,X,X,X,X,X,Xh._ _ _ _ _ _ _ _ _ _ q [ _ _ _ _ _ _ _ _ _ _ _ _ _ _ _ _ _ _ _ _ _ 0.` _ _ _ _ _ _ _ _ _ ) ,X,X,X,X,X,X,X,X,X,X,X",
",X,X,X,X,X,X,XL Q Q Q Q Q Q Q Q Q Q 7 Q Q Q Q Q Q Q Q Q Q Q Q Q Q Q Q Q Q Q Q Q Q 7.J Q Q Q Q Q Q Q Q Q Q ,X,X,X,X,X,X,X,X,X,X,X",
",X,X,X,X,X,X,XC H H H H H H H H H H 1 F H H H H H H H H H H H H H H H H H H H H H o Z H H H H H H H H H H ,X,X,X,X,X,X,X,X,X,X,X",
",X,X,X,X,X,X,X,Xd.d.d.d.d.d.d.d.d.d.d.d.d.d.d.d.d.d.d.d.d.p.: d.d.d.d.d.d.d.d.d.d.d.d.d.d.d.d.d.d.d.d.d.|.,X,X,X,X,X,X,X,X,X,X,X",
",X,X,X,X,X,X,X#XD.D.D.D.D.D.D.D.D.D.D.D.D.D.D.D.D.D.D.D.D.L.b D.D.D.D.D.D.D.D.D.D.D.D.D.D.D.D.D.D.D.D.D.D.,X,X,X,X,X,X,X,X,X,X,X",
",X,X,X,X,X,X,X[.1.1.1.1.1.1.1.1.1.1.1.1.1.1.1.1.1.1.1.1.1.B.z 1.1.1.1.1.1.1.1.1.1.1.1.1.1.1.1.1.1.1.1.1.2.,X,X,X,X,X,X,X,X,X,X,X",
",X,X,X,X,X,X,X!.#.#.#.#.#.#.#.#.#.#.#.#.#.#.#.#.#.#.#.#.#.*.p #.#.#.#.#.#.#.#.#.#.#.#.#.#.#.#.#.#.#.#.#.#.,X,X,X,X,X,X,X,X,X,X,X",
",X,X,X,X,X,X,Xx. . . . . . . . . . . . . . . . . . . . . ...e  . . . . . . . . . . . . . . . . . . . . . .,X,X,X,X,X,X,X,X,X,X,X",
",X,X,X,X,X,X,Xr./ / / / / / / / / / / / / / / / / / / / / / 8 / / / / / / / / / / / / / / / / / / / / / / ,X,X,X,X,X,X,X,X,X,X,X",
",X,X,X,X,X,X,XA E E E E E E E E E E E E E E E E E E E E E R 3 E E E E E E E E E E E E E E E E E E E E E E ,X,X,X,X,X,X,X,X,X,X,X",
",X,X,X,X,X,X,X,XX X X X X X X X X X X X X X X X X X X X X . $ X X X X X X X X X X X X X X X X X X X X X d ,X,X,X,X,X,X,X,X,X,X,X",
",X,X,X,X,X,X,X-XXXXXXXXXXXXXXXXXXXXXk oXXXXXXXXXXXXXXXXXXXXXXXXXXXXXXXXXXXXXXXXXXXf.OXXXXXXXXXXXXXXXXXXXXX,X,X,X,X,X,X,X,X,X,X,X",
",X,X,X,X,X,X,X+X6.6.6.6.6.6.6.6.6.6.j A.6.6.6.6.6.6.6.6.6.6.6.6.6.6.6.6.6.6.6.6.6.s.E.6.6.6.6.6.6.6.6.6.C.,X,X,X,X,X,X,X,X,X,X,X",
",X,X,X,X,X,X,X).:.:.:.:.:.:.:.:.:.:.i ,.:.:.:.:.:.:.:.:.:.:.:.:.:.:.:.:.:.:.:.:.:.a.M.:.:.:.:.:.:.:.:.:.:.,X,X,X,X,X,X,X,X,X,X,X",
",X,X,X,X,X,X,XY.+.+.+.+.+.+.+.+.+.+.r +.+.+.+.+.+.+.+.+.+.+.+.+.+.+.+.+.+.+.+.+.+.w.l.+.+.+.+.+.+.+.+.+.+.,X,X,X,X,X,X,X,X,X,X,X",
",X,X,X,X,X,X,Xj._ _ _ _ _ _ _ _ _ _ 7 { _ _ _ _ _ _ _ _ _ _ _ _ _ _ _ _ _ _ _ _ _ 9.' _ _ _ _ _ _ _ _ _ _ ,X,X,X,X,X,X,X,X,X,X,X",
",X,X,X,X,X,X,XL ! ! ! ! ! ! ! ! ! ! 2 Q ! ! ! ! ! ! ! ! ! ! ! ! ! ! ! ! ! ! ! ! ! 7.K ! ! ! ! ! ! ! ! ! ! ,X,X,X,X,X,X,X,X,X,X,X",
",X,X,X,X,X,X,XM U U U U U U U U U U % I U U U U U U U U U U U U U U U U U U U U U O D U U U U U U U U U U ,X,X,X,X,X,X,X,X,X,X,X",
",X,X,X,X,X,X,X,X> > > > > > > > > > ; > > > > > > > > > > ; + > > > > > > > > > > ; > > > > > > > > > > g ,X,X,X,X,X,X,X,X,X,X,X",
",X,X,X,X,X,X,X$XF.F.F.F.F.F.F.F.F.F.F.F.F.F.F.F.F.F.F.F.F.I.c F.F.F.F.F.F.F.F.F.F.F.F.F.F.F.F.F.F.F.F.F.H.,X,X,X,X,X,X,X,X,X,X,X",
",X,X,X,X,X,X,X{.3.3.3.3.3.3.3.3.3.3.3.3.3.3.3.3.3.3.3.3.3.Z.f 3.3.3.3.3.3.3.3.3.3.3.3.3.3.3.3.3.3.3.3.3.4.,X,X,X,X,X,X,X,X,X,X,X",
",X,X,X,X,X,X,X~.$.$.$.$.$.$.$.$.$.$.$.$.$.$.$.$.$.$.$.$.$.-.t $.$.$.$.$.$.$.$.$.$.$.$.$.$.$.$.$.$.$.$.$.&.,X,X,X,X,X,X,X,X,X,X,X",
",X,X,X,X,X,X,Xc. . . . . . . . . . . . . . . . . . . . . .X.9  . . . . . . . . . . . . . . . . . . . . . .,X,X,X,X,X,X,X,X,X,X,X",
",X,X,X,X,X,X,Xy.( ( ( ( ( ( ( ( ( ( ( ( ( ( ( ( ( ( ( ( ( / 5 ( ( ( ( ( ( ( ( ( ( ( ( ( ( ( ( ( ( ( ( ( ( ,X,X,X,X,X,X,X,X,X,X,X",
",X,X,X,X,X,X,XS W W W W W W W W W W W W W W W W W W W W W E , W W W W W W W W W W W W W W W W W W W W W E ,X,X,X,X,X,X,X,X,X,X,X",
",X,X,X,X,X,X,X,XB B B B B B B B B B B B B B B B B B B B B N # B B B B B B B B B B B B B B B B B B B B B V ,X,X,X,X,X,X,X,X,X,X,X",
",X,X,X,X,X,X,X,X(.(.(.(.(.(.(.(.(.(.w `.(.(.(.(.(.(.(.(.(.(.(.(.(.(.(.(.(.(.(.(.(.i.'.(.(.(.(.(.(.(.(.(.].,X,X,X,X,X,X,X,X,X,X,X",
",X,X,X,X,X,X,X@XS.S.S.S.S.S.S.S.S.S.h G.S.S.S.S.S.S.S.S.S.S.S.S.S.S.S.S.S.S.S.S.S.s.W.S.S.S.S.S.S.S.S.S.S.,X,X,X,X,X,X,X,X,X,X,X",
",X,X,X,X,X,X,X_.<.<.<.<.<.<.<.<.<.<.u 2.<.<.<.<.<.<.<.<.<.<.<.<.<.<.<.<.<.<.<.<.<.u.N.<.<.<.<.<.<.<.<.<.1.,X,X,X,X,X,X,X,X,X,X,X",
",X,X,X,X,X,X,XT.@.@.@.@.@.@.@.@.@.@.0 %.@.@.@.@.@.@.@.@.@.@.@.@.@.@.@.@.@.@.@.@.@.q.n.@.@.@.@.@.@.@.@.@.@.,X,X,X,X,X,X,X,X,X,X,X",
",X,X,X,X,X,X,Xz.} } } } } } } } } } 4 | } } } } } } } } } } } } } } } } } } } } } 8.] } } } } } } } } } } ,X,X,X,X,X,X,X,X,X,X,X",
",X,X,X,X,X,X,Xe.~ ~ ~ ~ ~ ~ ~ ~ ~ ~ < ~ ~ ~ ~ ~ ~ ~ ~ ~ ~ ~ ~ ~ ~ ~ ~ ~ ~ ~ ~ ~ ~ 7.P ~ ~ ~ ~ ~ ~ ~ ~ ~ ~ ,X,X,X,X,X,X,X,X,X,X,X",
",X,X,X,X,X,X,XA T T T T T T T T T T   T T T T T T T T T T T T T T T T T T T T T T O G T T T T T T T T T T ,X,X,X,X,X,X,X,X,X,X,X",
",X,X,X,X,X,X,X,X,X,X,X,X,X,X,X,X,X,X,X,X,X,X,X,X,X,X,X,X,X,X,X,X,X,X,X,X,X,X,X,X,X,X,X,X,X,X,X,X,X,X,X,X,X,X,X,X,X,X,X,X,X,X,X,X",
",X,X,X,X,X,X,X,X,X,X,X,X,X,X,X,X,X,X,X,X,X,X,X,X,X,X,X,X,X,X,X,X,X,X,X,X,X,X,X,X,X,X,X,X,X,X,X,X,X,X,X,X,X,X,X,X,X,X,X,X,X,X,X,X",
",X,X,X,X,X,X,X,X,X,X,X,X,X,X,X,X,X,X,X,X,X,X,X,X,X,X,X,X,X,X,X,X,X,X,X,X,X,X,X,X,X,X,X,X,X,X,X,X,X,X,X,X,X,X,X,X,X,X,X,X,X,X,X,X",
",X,X,X,X,X,X,X,X,X,X,X,X,X,X,X,X,X,X,X,X,X,X,X,X,X,X,X,X,X,X,X,X,X,X,X,X,X,X,X,X,X,X,X,X,X,X,X,X,X,X,X,X,X,X,X,X,X,X,X,X,X,X,X,X",
",X,X,X,X,X,X,X,X,X,X,X,X,X,X,X,X,X,X,X,X,X,X,X,X,X,X,X,X,X,X,X,X,X,X,X,X,X,X,X,X,X,X,X,X,X,X,X,X,X,X,X,X,X,X,X,X,X,X,X,X,X,X,X,X",
",X,X,X,X,X,X,X,X,X,X,X,X,X,X,X,X,X,X,X,X,X,X,X,X,X,X,X,X,X,X,X,X,X,X,X,X,X,X,X,X,X,X,X,X,X,X,X,X,X,X,X,X,X,X,X,X,X,X,X,X,X,X,X,X",
",X,X,X,X,X,X,X,X,X,X,X,X,X,X,X,X,X,X,X,X,X,X,X,X,X,X,X,X,X,X,X,X,X,X,X,X,X,X,X,X,X,X,X,X,X,X,X,X,X,X,X,X,X,X,X,X,X,X,X,X,X,X,X,X"
};
