/* XPM */
static char *result[] = {
/* columns rows colors chars-per-pixel */
"64 64 199 2 ",
"   c #231F20",
".  c #252122",
"X  c #2A2526",
"o  c #2B2728",
"O  c #2D292A",
"+  c #312C2D",
"@  c #342F30",
"#  c #363132",
"$  c #3A3435",
"%  c #3D3738",
"&  c #3D393A",
"*  c #453837",
"=  c #423C3D",
"-  c #573F3F",
";  c #453F40",
":  c #483F40",
">  c #464142",
",  c #4B4344",
"<  c #4D4748",
"1  c #4E4949",
"2  c #524546",
"3  c #534B4C",
"4  c #5C4A46",
"5  c #564F50",
"6  c #565252",
"7  c #5B5455",
"8  c #5E5A5A",
"9  c #5F5758",
"0  c #6B4B4A",
"q  c #645555",
"w  c #6E5955",
"e  c #635D5E",
"r  c #6B5A5B",
"t  c #6B5654",
"y  c #666263",
"u  c #6B6364",
"i  c #6E6B6B",
"p  c #736364",
"a  c #7A6364",
"s  c #726C6D",
"d  c #7B6D6E",
"f  c #777171",
"g  c #7B7575",
"h  c #7D7778",
"j  c #7E7A7B",
"k  c #875D3F",
"l  c #8A5F42",
"z  c #8E5956",
"x  c #8D6347",
"c  c #93664C",
"v  c #96694F",
"b  c #966A51",
"n  c #9B6D54",
"m  c #9E6F59",
"M  c #9E7059",
"N  c #A2725B",
"B  c #836A69",
"V  c #837B7D",
"C  c #8A7B7C",
"Z  c #8A7474",
"A  c #977978",
"S  c #B56D6C",
"D  c #A67661",
"F  c #A57863",
"G  c #AA7A66",
"H  c #AE7C6A",
"J  c #A77D68",
"K  c #B17E6D",
"L  c #A67D79",
"P  c #C57371",
"I  c #EA7F7E",
"U  c #9D807E",
"Y  c #B5816F",
"T  c #B58473",
"R  c #B68B7A",
"E  c #BD8A7B",
"W  c #BA8779",
"Q  c #A8836F",
"!  c #C08D7E",
"~  c #837E80",
"^  c #A17F80",
"/  c #EF7F80",
"(  c #8D8989",
")  c #898485",
"_  c #988788",
"`  c #938E90",
"'  c #9B9394",
"]  c #9A9798",
"[  c #AA8785",
"{  c #B88C8A",
"}  c #BC9484",
"|  c #BD978C",
" . c #A99898",
".. c #B89897",
"X. c #A88E91",
"o. c #BFA29D",
"O. c #A4A0A1",
"+. c #AAA5A6",
"@. c #B4A5A4",
"#. c #B8A2A0",
"$. c #B6B3B3",
"%. c #C48D80",
"&. c #C59284",
"*. c #CC958A",
"=. c #C89689",
"-. c #D0958E",
";. c #C39392",
":. c #CF9A94",
">. c #C59799",
",. c #C99B9B",
"<. c #C49B97",
"1. c #D29A93",
"2. c #D49C9B",
"3. c #DB9D97",
"4. c #F38081",
"5. c #C9A69A",
"6. c #D6A096",
"7. c #DCA39C",
"8. c #D1A19E",
"9. c #D99FA0",
"0. c #C4AEAC",
"q. c #CAA7A8",
"w. c #D6A3A4",
"e. c #DBA3A4",
"r. c #DDA6A8",
"t. c #DDAAAC",
"y. c #D2ABA4",
"u. c #C5B0AF",
"i. c #D8B0A6",
"p. c #DEADB0",
"a. c #CAB3B4",
"s. c #DEB2B3",
"d. c #D6BABA",
"f. c #E3A5A2",
"g. c #E3AAA4",
"h. c #E8A8A6",
"j. c #E4ABAC",
"k. c #EBABAB",
"l. c #F1AEAF",
"z. c #EDB2AE",
"x. c #E4AEB1",
"c. c #F1AFB1",
"v. c #E4B1B5",
"b. c #EDB4B1",
"n. c #E6B5BA",
"m. c #E8B7BC",
"M. c #E9B8BD",
"N. c #E2BCBA",
"B. c #F5B3B4",
"V. c #F8B4B6",
"C. c #F4B9B6",
"Z. c #F6BDBB",
"A. c #F9BCBA",
"S. c #F8B7B8",
"D. c #CCC0BF",
"F. c #E9C3BC",
"G. c #F6C1BE",
"H. c #F9C1BE",
"J. c #EBBCC2",
"K. c #C6C3C3",
"L. c #CDCBCB",
"P. c #D4CCCC",
"I. c #DAC5C4",
"U. c #D8D7D7",
"Y. c #E4C6C4",
"T. c #EBC5C6",
"R. c #EACAC4",
"E. c #EEC2C9",
"W. c #E3CCCC",
"Q. c #E7C9CB",
"!. c #F7C3C0",
"~. c #F9C4C3",
"^. c #FACCC4",
"/. c #F0C5CB",
"(. c #FAC7C8",
"). c #F3CBCE",
"_. c #FACACB",
"`. c #F7CCC3",
"'. c #ECD0CE",
"]. c #FBD2CC",
"[. c #F3D2CF",
"{. c #F4CDD0",
"}. c #FACDD1",
"|. c #ECD6D5",
" X c #F3D4D2",
".X c #FBD5D4",
"XX c #FBD9D7",
"oX c #F4DAD9",
"OX c #FDDDDB",
"+X c #F7D9D6",
"@X c #FCE0DE",
"#X c #EAE9E9",
"$X c #FDE6E4",
"%X c #FDE8E7",
"&X c #FDEAEA",
"*X c #F7E6E5",
"=X c #FEFEFE",
"-X c #F6F6F6",
";X c None",
/* pixels */
";X;X;X;X;X;X;X;X;X;X;X;X;X;X;X;X;X;X;X;X;X;X;X;X;X;X;X;X;X;X;X;X;X;X;X;X;X;X;X;X;X;X;X;X;X;X;X;X;X;X;X;X;X;X;X;X;X;X;X;X;X;X;X;X",
";X;X;X;X;X;X;X;X;X;X;X;X;X;X;X;X;X;X;X;X;X;X;X;X;X;X;X;X;X;X;X;X;X;X;X;X;X;X;X;X;X;X;X;X;X;X;X;X;X;X;X;X;X;X;X;X;X;X;X;X;X;X;X;X",
";X;X;X;X;X;X;X;X+ . ;X;X;X;X;X;X;XO   + ;X;X;X;X;X;X;X;X;X;X;X;X;X;X;X;X;X;X;X;X;X;X;X;X;X;X;X;X;X;X;X;X;X;X;X;X;X;X;X;X;X;X;X;X",
";X;X;X;X;X;X;X@   . ;X;X;X;X;X;X;X.   . O ;X;X;X;X;X;X;X;X;X;X;X;X;X;X;X;X;X;X;X;X;X;X;X;X;X;X;X;X;X;X;X;X;X;X;X;X;X;X;X;X;X;X;X",
";X;X;X;X;X;X;X;X;X;X;X;X;X;X;X;X;X;Xf o ~ ;X;X;X;X;X;X;X;X;X;X;X;X;X;X;X;X;X;X;X;X;X;X;X;X;X;X;X;X;X;X;X;X;X;X;X;X;X;X;X;X;X;X;X",
";X;X;X;X;X;X;X;X;X;X;X;X;X;X;X, > ` ;X;X;X;X;X;X;X;X;X;X;X;X;X;X;X;X;X;X;X;X;X;X;X;X;X;X;X;X;X;X;X;X;X;X;X;X;X;X;X;X;X;X;X;X;X;X",
";X;X;X;X;X;X;X;Xi $.#X$.6 < K.=X=XU.e ;X;X;X;X;X;X;X;X;X;X;X;X;X;X;X;X;X;X;X;X;X;X;X;X;X;X;X;X;X;X;X;X;X;X;X;X;X;X;X;X;X;X;X;X;X",
";X;X;X;X;X;X;Xe #X=X=X=XP.+.=X=X=X=XL.;X;X;X;X;X;X;X;X;X;X;X;X;X;X;X;X;X;X;X;X;X;X;X;X;X;X;X;X;X;X;X;X;X;X;X;X;X;X;X;X;X;X;X;X;X",
";X;X;X;X;X;X;Xo #X=X=X=X1 X =X=X=X=X=X, ;X;X;X;X;X;X;X;X;X;X;X;X;X;X;X;X;X;X;X;X;X;X;X;X;X;X;X;X;X;X;X;X;X;X;X;X;X;X;X;X;X;X;X;X",
";X;X;X;X;X;X]   8 =X=X-X. . -X=X=X=X=Xs # X > h ;X;X;X;X;X;X;X;X;X;X;X;X;X;X;X;X;X;X;X;X;X;X;X;X;X;X;X;X;X;X;X;X;X;X;X;X;X;X;X;X",
";X;X;X;X;X;Xi   g ' # ,   > =X=X=X=X=X( XXXXa., . y ;X;X;X;X;X;X;X;X;X;X;X;X;X;X;X;X;X;X;X;X;X;X;X;X;X;X;X;X;X;X;X;X;X;X;X;X;X;X",
";X;X;X;X;X;Xf   X _ `.^.< =X=X=X=X=X=Xs XXOXOXOX'.< + ;X;X;X;X;X;X;X;X;X;X;X;X;X;X;X;X;X;X;X;X;X;X;X;X;X;X;X;X;X;X;X;X;X;X;X;X;X",
";X;X;X;X;X3 . U ^.^.^.^.e =X=X=X=X=X=X9 XXXXXXOXOXOXu.. ( ;X;X;X;X;X;X;X;X;X;X;X;X;X;X;X;X;X;X;X;X;X;X;X;X;X;X;X;X;X;X;X;X;X;X;X",
";X;X;X;XX & Z.!.^.`.^.`.F.O.=X=X=X=XK.Y..XXXXXXXOX@XOXOX= g ;X;X;X;X;X;X;X;X;X;X;X;X;X;X;X;X;X;X;X;X;X;X;X;X;X;X;X;X;X;X;X;X;X;X",
";X;X;X. r H.H.~.^.^.OX$X$X@.$.=X=XL. .$X@X@X@XOXOX[.b Q &.3 e ;X;X;X;X;X;X;X;X;X;X;X;X;X;X;X;X;X;X;X;X;X;X;X;X;X;X;X;X;X;X;X;X;X",
";X;X  p H.^.@X&X&X&X%X$X$X$XoX' ' |.@X@X@X@X@X@X5.Q OXOX@X@Xd e ;X;X;X;X;X;X;X;X;X;X;X;X;X;X;X;X;X;X;X;X;X;X;X;X;X;X;X;X;X;X;X;X",
";XO 1 &X&X&X&X&X&X%X$X%X%X$X$X$X$X$X$X@X@X@X@X;.5.OXOXOXOXOXOXu j ;X;X;X;X;X;X;X;X;X;X;X;X;X;X;X;X;X;X;X;X;X;X;X;X;X;X;X;X;X;X;X",
"j . $X&X&X&X&X&X%X%X%X$X$X%X$X$X$X@X@X$XOXOX5.} OXOXOXOXOXOX@X@X1 O.;X;X;X;X;X;X;X;X;X;X;X;X;X;X;X;X;X;X;X;X;X;X;X;X;X;X;X;X;X;X",
"& u &X&X&X&X%X&X%X$X%X$X%X$X$X$X$X@X@X@X@X[.x @XOXOXOXXXOXOX.XR. Xo ;X;X;X;X;X;X;X;X;X;X;X;X;X;X;X;X;X;X;X;X;X;X;X;X;X;X;X;X;X;X",
". K.&X%X&X%X$X$X%X$X%X%X%X$X$X$X@X$X@X@X@Xk [.@XOXOXOX.XN.l |  XoXd.# ;X;X;X;X;X;X;X;X;X;X;X;X;X;X;X;X;X;X;X;X;X;X;X;X;X;X;X;X;X",
". |.&X$X&X$X&X$X$X%X%X%X$X$X$X$X@X@X@X@X Xx @X@XOXOXOXJ ;.XXXXXXOXOXd e ;X;X;X;X;X;X;X;X;X;X;X;X;X;X;X;X;X;Xy +     O y ;X;X;X;X",
"X P.&X%X$X$X%X$X$X$X$X$X$X$X .$X@X@X@X@Xi.y.OX@XOX+Xc T..XXXXXXXOXY.V . 1 O.;X;X;X;X;X;X;X;X;X;X;X;X;X;Xh . q o.R.T.u.p . 6 ;X;X",
"> ) $X$X$X$X$X&X$X$X$X$X$XI.X +X@XW.@X@X5.R.@XOXOXc .XXXXXXX.X@.+     O o   i ;X;X;X;X;X;X;X;X;X;X;X;X6 %  XXX.XF.i..X].].3 3 ;X",
";X+ &X$X%X&X$X$X$X$X$X$X+X* S 0.@X0.I.@XR.F.@XXXR )..X.XXXd.@   * u..XOXoXo.. ;X;X;X;X;X;X;X;X;X;X;Xu $ .X.X.X].^.C.&.^.].].# ;X",
";X# @.%X$X%X$X$X$X$X@XoX# I I s @Xo.' W.W.5.+X.X} .X.X+Xp   @ s.}..X+XOXOX@Xe + ;X;X;X;X;X;X;X;X;X;X  [..X].H.A.A.A.! B.C.^.<.y ",
";X;X. I.%X$X$X$X$X$XI.@ I 4.I - OXg     $  .W.d. X.Xa.o   A _.{.}.}..X.XOXOX'.  ;X;X;X;X;X;X;X;X;X# p ].].H.H.A.A.A.C.6.A.A.s.> ",
";X;X;XO C @X$X$X$XC 2 I 4.4./ $ OX% ;X;X;X8 @ a.W.u   + J.(._.}.}..X.X.XOXOX@XO V ;X;X;X;X;X;X;X;X. <.R H e.H.A.A.A.b.z.A.A., ( ",
";X;X;X;Xh o + #   0 4.4.4.4.4.* +X% ;X;X;X;X;X& <   : J.J.}.(._.}.}..X.XXXOX@Xe i ;X;X;X;X;X;X;Xi # ].].H.H.Q g.A.A.1.B.[ O $ ;X",
";X;X;X;X;X;X;X;X) + 4.4.4.4./ = d ;X;X;X;X;X;X;X  $ v.J.J.{.(.}.}.}.}.XXXXOX@X@.; ;X;X;X;X;X;X;X7 Z ].^.H.A.A.f.b.A . # < ;X;X;X",
";X;X;X;X;X;X;X;X;Xo P / 4.4.S < e ;X;X;X;X;X;X;X  >.j.J.J.{.(.}.}.}..X.XXXOXOX'.@ ;X;X;X;X;X;X;X> 0.].`.H.A.H.A.[ o ;X;X;X;X;X;X",
";X;X;X;X;X;X;X;X;X;X. z P 0   3 ;X;X;X;X;X;X;X;X  { x.m.J.{.}.}.}.}.}..X.XOXOX.Xo ;X;X;X;X;X;X;X3 d.].^.H.A.A.A.t < ;X;X;X;X;X;X",
";X;X;X;X;X;X;X;X;X;X;X< + = ;X;X;X;X;X;X;X;X;X;X$ $ x.J.J.{.}.J._.}.}..X.XXXOX@X. ;X;X;X;X;X;X;Xe 5.^.i.D ! 7.=.B < ;X;X;X;X;X;X",
";X;X;X;X;X;X;X;X;X;X;X;X;X;X;X;X;X;X;X;X;X;X;X;X;X  w.n.J./.{.(._.}.}.}.XXXXOXOX. ;X;X;X;X;X;X;X;Xu T `.H.H.A.A.S.+ ;X;X;X;X;X;X",
";X;X;X;X;X;X;X;X;X;X;X;X;X;X;X;X;X;X;X;X;X;X;X;X;X; a v.m.E.{.(.(.}.}.}..X.XXXOXO ;X;X;X;X;X;X;X;XX ^.^.H.H.A.A.A.7.% ;X;X;X;X;X",
";X;X;X;X;X;X;X;X;X;X;X;X;X;X;X;X;X;X;X;X;X;X;X;X;X' # x.m.E.{.~.(._.}.}..X.XXXOXO ;X;X;X;X;X;X;X;X< ..^.^.H.H.A.z.B.q C ;X;X;X;X",
";X;X;X;X;X;X;X;X;X;X;X;X;X;X;X;X;X;X;X;X;X;X;X;X;X;X. x.m.J./.~.(._.}.}.}..XXXOX+ ;X;X;X;X;X;X;X;X;XO `.H.7.N -.l.z.&.. ;X;X;X;X",
";X;X;X;X;X;X;X;X;X;X;X;X;X;X;X;X;X;X;X;X;X;X;X;X;X;X  x.n.J./.~.J._.}.}.}..XXXXX@ ;X;X;X;X;X;X;X;X;X3 _ W H.A.C.S.S.S.L > ;X;X;X",
";X;X;X;X;X;X;X;X;X;X;X;X;X;X;X;X;X;X;X;X;X;X;X;X;X;X  r.n.m.E.~.(._._.}.}..X.XXXO ;X;X;X;X;X;X;X;X;X;X. G.~.A.A.S.S.V.V.O ;X;X;X",
";X;X;X;X;X;X;X;X;X;X;X;X;X;X;X;X;X;X;X;X;X;X;X;X;X;X. r.x.J.J.~.(.(._.}.}..X.XXXo ;X;X;X;X;X;X;X;X;X;X8 U H.H.A.S.S.V.V.;.+ ;X;X",
";X;X;X;X;X;X;X;X;X;X;X;X;X;X;X;X;X;X;X;X;X;X;X;X;X;X. e.x.m./.~.~.(._._.}.}..XXX. ;X;X;X;X;X;X;X;X;X;X;X+ H.&.N K H n m h.+ ( ;X",
";X;X;X;X;X;X;X;X;X;X;X;X;X;X;X;X;X;X;X;X;X;X;X;X;X;X. w.j.n.J.~.~.(.(._.}.}..X.X  ;X;X;X;X;X;X;X;X;X;X;Xo 1.A.A.S.V.V.V.f.w # ;X",
";X;X;X;X;X;X;X;X;X;X;X;X;X;X;X;X;X;X;X;X;X;X;X;X;X;X  w.j.n.J.A.J.~.(._.}.}..X.XO ;X;X;X;X;X;X;X;X;X;X;X; g.H.A.V.V.V.V.V.9.  ;X",
";X;X;X;X;X;X;X;X;X;X;X;X;X;X;X;X;X;X;X;X;X;X;X;X;X;X  2.j.x.J.J.~.~.(.(.}.}..X).9 ;X;X;X;X;X;X;X;X;X;X;Xy y.A.C.h.e.h.c.V.j.+ ' ",
";X;X;X;X;X;X;X;X;X;X;X;X;X;X;X;X;X;X;X;X;X;X;X;X;X;X  ,.j.x.m.Z.A.~.(._._._.}.u ;X;X;X;X;X;X;X;X;X;X;X;Xs 8.G f.l.l.h.*.v 1.4 s ",
";X;X;X;X;X;X;X;X;X;X;X;X;X;X;X;X;X;X;X;X;X;X;X;X;X;Xo 2 r.j.m.H.J.~.~.(._.}.C 3 ;X;X;X;X;X;X;X;X;X;X;X;X< g.A.A.V.V.V.V.V.3.4 7 ",
";X;X;X;X;X;X;X;X;X;X;X;X;X;X;X;X;X;X;X;X;X;X;X;X;X;X; d = $ q U <.t.t.w.p O . ;X;X;X;X;X;X;X;X;X;X;X;X;X+ S.A.A.V.V.V.V.c.9.2 ~ ",
";X;X;X;X;X;X;X;X;X;X;X;X;X;X;X;X;X;X;X;X;X;X;X;X;X;X9 ..s.v.M...Z t 7 B ,.Z.= ;X;X;X;X;X;X;X;X;X;X;X;X;X4 W D H N v H l.c.9.O ;X",
";X;X;X;X;X;X;X;X;X;X;X;X;X;X;X;X;X;X;X;X;X;X;X;X;X;X1 X.v.s.~.~.~.(.H.J.A.z.Z 2 ;X;X;X;X;X;X;X;X;X;X;X& ;.S.S.V.V.V.V.*.{ :.o ;X",
";X;X;X;X;X;X;X;X;X;X;X;X;X;X;X;X;X;X;X;X;X;X;X;X;X;X' B >.s.~.~.~.H.H.H.Y -.C.  ;X;X;X;X;X;X;X;X;X;Xf & =.6.A.V.V.V.V.c.2.w u ;X",
";X;X;X;X;X;X;X;X;X;X;X;X;X;X;X;X;X;X;X;X;X;X;X;X;X;X;X> t.b n F G v v &.A.H.A.A & ;X;X;X;X;X;X;X;X) . b.A.A.K f.V.V.V.j.2.X ;X;X",
";X;X;X;X;X;X;X;X;X;X;X;X;X;X;X;X;X;X;X;X;X;X;X;X;X;X;Xo v.s.M.~.H.H.H.H.H.A.h.b.r = ;X;X;X;X;X;X6   { Z.A.A.V.-.3.V.V.3.3 ;X;X;X",
";X;X;X;X;X;X;X;X;X;X;X;X;X;X;X;X;X;X;X;X;X;X;X;X;X;X;X3 ..v.j.~.H.H.H.H.H.6.! A.b.{ X < y y # . t Z.A.*.b.V.V.V.! l.3.^ 7 ;X;X;X",
";X;X;X;X;X;X;X;X;X;X;X;X;X;X;X;X;X;X;X;X;X;X;X;X;X;X;X] : w.p.J.H.H.H.7.c g.H.A.T A.6.,.A | j.6.C.A.A.A.N V.V.V.B.D ;.# ;X;X;X;X",
";X;X;X;X;X;X;X;X;X;X;X;X;X;X;X;X;X;X;X;X;X;X;X;X;X;X;X;X. w.b D N x N z.A.A.A.C.E A.z.C.A.! Z.A.N A.A.V.l.3.B.B.k.K o ;X;X;X;X;X",
";X;X;X;X;X;X;X;X;X;X;X;X;X;X;X;X;X;X;X;X;X;X;X;X;X;X;X;Xi < t.p.A.H.H.H.A.A.C.c A.A.6.Z.S.H A.A.*.V.V.V.V.n B.l.2.o ;X;X;X;X;X;X",
";X;X;X;X;X;X;X;X;X;X;X;X;X;X;X;X;X;X;X;X;X;X;X;X;X;X;X;X;X. ,.p.j.A.A.A.A.g.n V.A.C.M V.V.W V.V.h.l.V.V.V.Y l.2.O ;X;X;X;X;X;X;X",
";X;X;X;X;X;X;X;X;X;X;X;X;X;X;X;X;X;X;X;X;X;X;X;X;X;X;X;X;Xh O t.t.b.A.C.n *.A.V.A.V.W V.V.Y V.V.l.h.V.V.B.T { o ;X;X;X;X;X;X;X;X",
";X;X;X;X;X;X;X;X;X;X;X;X;X;X;X;X;X;X;X;X;X;X;X;X;X;X;X;X;X;Xe < T m x T V.C.A.C.V.N V.V.V.M V.V.f.l.V.c.e.0 @ ;X;X;X;X;X;X;X;X;X",
";X;X;X;X;X;X;X;X;X;X;X;X;X;X;X;X;X;X;X;X;X;X;X;X;X;X;X;X;X;X;Xe , w.r.r.V.C.V.V.f.*.V.V.V.N V.V.T V.j.A X 9 ;X;X;X;X;X;X;X;X;X;X",
";X;X;X;X;X;X;X;X;X;X;X;X;X;X;X;X;X;X;X;X;X;X;X;X;X;X;X;X;X;X;X;Xf o ^ r.r.r.k.e.H V.V.V.7.h.V.k.W a X 6 ;X;X;X;X;X;X;X;X;X;X;X;X",
";X;X;X;X;X;X;X;X;X;X;X;X;X;X;X;X;X;X;X;X;X;X;X;X;X;X;X;X;X;X;X;X;X;Xh + p >.E 2.e.e.e.1.{ ;.a + $ V ;X;X;X;X;X;X;X;X;X;X;X;X;X;X",
";X;X;X;X;X;X;X;X;X;X;X;X;X;X;X;X;X;X;X;X;X;X;X;X;X;X;X;X;X;X;X;X;X;X;X;X;X( 8 1 = $ = > 2 V ;X;X;X;X;X;X;X;X;X;X;X;X;X;X;X;X;X;X",
";X;X;X;X;X;X;X;X;X;X;X;X;X;X;X;X;X;X;X;X;X;X;X;X;X;X;X;X;X;X;X;X;X;X;X;X;X;X;X;X;X;X;X;X;X;X;X;X;X;X;X;X;X;X;X;X;X;X;X;X;X;X;X;X",
";X;X;X;X;X;X;X;X;X;X;X;X;X;X;X;X;X;X;X;X;X;X;X;X;X;X;X;X;X;X;X;X;X;X;X;X;X;X;X;X;X;X;X;X;X;X;X;X;X;X;X;X;X;X;X;X;X;X;X;X;X;X;X;X"
};
